<svg width="25" height="27" viewBox="0 0 25 27" fill="none" xmlns="http://www.w3.org/2000/svg">
<path d="M22.1641 0.5C22.5507 0.500035 22.9232 0.635047 23.2197 0.87793L23.3428 0.988281L23.4531 1.11035C23.6961 1.40695 23.8301 1.78023 23.8301 2.16699V4.16699C23.83 5.84658 23.1631 7.45781 21.9756 8.64551C20.7881 9.83293 19.1773 10.4999 17.498 10.5C16.3492 10.5001 15.247 10.957 14.4346 11.7695C13.6221 12.5822 13.165 13.6847 13.165 14.834C13.1651 15.9887 13.4472 16.8512 13.7803 17.8506C14.1137 18.851 14.498 19.9892 14.498 21.501C14.498 22.5378 14.2884 23.5573 13.8877 24.5H21.498C22.05 24.5004 22.498 24.948 22.498 25.5C22.498 26.052 22.05 26.4996 21.498 26.5H2.83301C2.28072 26.5 1.83301 26.0523 1.83301 25.5C1.83305 24.9478 2.28075 24.5 2.83301 24.5H11.6387C12.1983 23.603 12.498 22.5647 12.498 21.501C12.498 20.346 12.216 19.483 11.8828 18.4834C11.683 17.8838 11.4669 17.2345 11.3242 16.4854C10.5465 16.8372 9.71234 17.0593 8.85449 17.1367C7.43661 17.2646 6.01064 16.9942 4.7373 16.3574C3.46414 15.7207 2.3929 14.7423 1.64453 13.5312C0.896106 12.3201 0.500016 10.9238 0.5 9.5C0.500115 9.1854 0.648714 8.88898 0.900391 8.7002C2.03923 7.84607 3.39376 7.3261 4.81152 7.19824C6.22926 7.07048 7.65454 7.33989 8.92773 7.97656C10.2009 8.61327 11.2721 9.59177 12.0205 10.8027C12.1113 10.9497 12.196 11.0998 12.2764 11.252C12.4948 10.9333 12.7426 10.6325 13.0195 10.3555C13.2716 10.1034 13.5442 9.87569 13.8311 9.67188V6.83301C13.8312 5.15358 14.4992 3.54311 15.6865 2.35547C16.874 1.16779 18.4846 0.500104 20.1641 0.5H22.1641ZM4.99121 9.18945C4.1143 9.26854 3.27076 9.55273 2.52539 10.0127C2.60463 10.8853 2.88367 11.7302 3.34668 12.4795C3.89987 13.3746 4.6908 14.0987 5.63184 14.5693C6.57294 15.0399 7.6269 15.239 8.6748 15.1445C9.5515 15.0654 10.3934 14.7801 11.1387 14.3203C11.0593 13.4482 10.7821 12.6034 10.3193 11.8545C9.76616 10.9593 8.97428 10.2363 8.0332 9.76562C7.09225 9.29508 6.03896 9.09508 4.99121 9.18945ZM20.1641 2.5C19.0151 2.5001 17.913 2.95695 17.1006 3.76953C16.2883 4.58206 15.8312 5.68397 15.8311 6.83301V8.72559C16.3697 8.57856 16.93 8.50003 17.498 8.5C18.6468 8.49993 19.7491 8.04383 20.5615 7.23145C21.374 6.41885 21.83 5.31623 21.8301 4.16699V2.5H20.1641Z" fill="white"/>
<path d="M22.1641 0.5L22.1641 0H22.1641V0.5ZM23.2197 0.87793L23.5536 0.505696C23.548 0.500719 23.5423 0.495867 23.5366 0.491144L23.2197 0.87793ZM23.3428 0.988281L23.7137 0.65298C23.702 0.64003 23.6896 0.627702 23.6766 0.616047L23.3428 0.988281ZM23.4531 1.11035L23.8399 0.793467C23.8348 0.787201 23.8295 0.78106 23.824 0.77505L23.4531 1.11035ZM23.8301 4.16699L24.3301 4.16702V4.16699H23.8301ZM21.9756 8.64551L22.3291 8.99907L22.3292 8.99904L21.9756 8.64551ZM17.498 10.5L17.498 10H17.498L17.498 10.5ZM14.4346 11.7695L14.081 11.416L14.081 11.416L14.4346 11.7695ZM13.165 14.834H12.665V14.834L13.165 14.834ZM13.7803 17.8506L13.3059 18.0087V18.0087L13.7803 17.8506ZM14.498 21.501L14.998 21.501V21.501H14.498ZM13.8877 24.5L13.4275 24.3044C13.3619 24.4588 13.3781 24.6359 13.4707 24.7759C13.5633 24.9158 13.7199 25 13.8877 25V24.5ZM21.498 24.5L21.4984 24H21.498V24.5ZM22.498 25.5H22.998V25.5L22.498 25.5ZM21.498 26.5V27H21.4984L21.498 26.5ZM1.83301 25.5L1.33301 25.5V25.5H1.83301ZM11.6387 24.5V25C11.8112 25 11.9716 24.911 12.0629 24.7647L11.6387 24.5ZM12.498 21.501L12.998 21.501V21.501H12.498ZM11.8828 18.4834L12.3572 18.3253V18.3253L11.8828 18.4834ZM11.3242 16.4854L11.8154 16.3918C11.7867 16.2413 11.6906 16.1122 11.5546 16.0416C11.4186 15.971 11.2577 15.9666 11.1181 16.0298L11.3242 16.4854ZM8.85449 17.1367L8.8994 17.6347H8.89941L8.85449 17.1367ZM4.7373 16.3574L4.51365 16.8046L4.51368 16.8046L4.7373 16.3574ZM1.64453 13.5312L1.21919 13.7941L1.21919 13.7941L1.64453 13.5312ZM0.5 9.5L0 9.49982V9.50001L0.5 9.5ZM0.900391 8.7002L0.60039 8.3002L0.600364 8.30022L0.900391 8.7002ZM4.81152 7.19824L4.76665 6.70026L4.76661 6.70026L4.81152 7.19824ZM8.92773 7.97656L9.15137 7.52937L9.15136 7.52936L8.92773 7.97656ZM12.0205 10.8027L12.4459 10.5399L12.4458 10.5399L12.0205 10.8027ZM12.2764 11.252L11.8343 11.4855C11.916 11.6403 12.0728 11.7411 12.2476 11.7511C12.4224 11.7612 12.5897 11.6791 12.6887 11.5347L12.2764 11.252ZM13.0195 10.3555L12.666 10.0019L12.6659 10.002L13.0195 10.3555ZM13.8311 9.67188L14.1207 10.0795C14.2527 9.98567 14.3311 9.83378 14.3311 9.67188H13.8311ZM13.8311 6.83301L13.3311 6.83297V6.83301H13.8311ZM15.6865 2.35547L15.3329 2.00194L15.3329 2.00196L15.6865 2.35547ZM20.1641 0.5V0H20.164L20.1641 0.5ZM4.99121 9.18945L4.94636 8.69147L4.9463 8.69147L4.99121 9.18945ZM2.52539 10.0127L2.26281 9.58719C2.10144 9.68677 2.01029 9.86907 2.02744 10.0579L2.52539 10.0127ZM3.34668 12.4795L2.92134 12.7423L2.92135 12.7423L3.34668 12.4795ZM5.63184 14.5693L5.4082 15.0165L5.40821 15.0165L5.63184 14.5693ZM8.6748 15.1445L8.71971 15.6425L8.71973 15.6425L8.6748 15.1445ZM11.1387 14.3203L11.4012 14.7458C11.5626 14.6462 11.6538 14.4639 11.6366 14.275L11.1387 14.3203ZM10.3193 11.8545L10.7447 11.5917L10.7447 11.5917L10.3193 11.8545ZM8.0332 9.76562L8.25685 9.31843L8.25683 9.31842L8.0332 9.76562ZM20.1641 2.5V2H20.164L20.1641 2.5ZM17.1006 3.76953L16.747 3.416L16.747 3.41604L17.1006 3.76953ZM15.8311 6.83301L15.3311 6.83295V6.83301H15.8311ZM15.8311 8.72559H15.3311C15.3311 8.88144 15.4037 9.02838 15.5276 9.12297C15.6515 9.21756 15.8124 9.24898 15.9627 9.20794L15.8311 8.72559ZM17.498 8.5L17.4981 9H17.4981L17.498 8.5ZM20.5615 7.23145L20.9151 7.58501L20.9151 7.58497L20.5615 7.23145ZM21.8301 4.16699L22.3301 4.16703V4.16699H21.8301ZM21.8301 2.5H22.3301C22.3301 2.22386 22.1062 2 21.8301 2V2.5ZM22.1641 0.5L22.164 1C22.434 1.00002 22.6949 1.09432 22.9029 1.26472L23.2197 0.87793L23.5366 0.491144C23.1516 0.175778 22.6674 4.51505e-05 22.1641 0L22.1641 0.5ZM23.2197 0.87793L22.8859 1.25016L23.0089 1.36052L23.3428 0.988281L23.6766 0.616047L23.5536 0.505696L23.2197 0.87793ZM23.3428 0.988281L22.9719 1.32358L23.0822 1.44565L23.4531 1.11035L23.824 0.77505L23.7137 0.65298L23.3428 0.988281ZM23.4531 1.11035L23.0664 1.42724C23.2361 1.63443 23.3301 1.89573 23.3301 2.16699H23.8301H24.3301C24.3301 1.66472 24.1561 1.17946 23.8399 0.793467L23.4531 1.11035ZM23.8301 2.16699H23.3301V4.16699H23.8301H24.3301V2.16699H23.8301ZM23.8301 4.16699L23.3301 4.16697C23.33 5.71407 22.7157 7.19812 21.622 8.29198L21.9756 8.64551L22.3292 8.99904C23.6105 7.71751 24.33 5.97908 24.3301 4.16702L23.8301 4.16699ZM21.9756 8.64551L21.622 8.29194C20.5283 9.38558 19.0448 9.99993 17.498 10L17.498 10.5L17.4981 11C19.3099 10.9999 21.0478 10.2803 22.3291 8.99907L21.9756 8.64551ZM17.498 10.5L17.498 10C16.2164 10.0001 14.9872 10.5098 14.081 11.416L14.4346 11.7695L14.7881 12.1231C15.5069 11.4043 16.4819 11.0001 17.4981 11L17.498 10.5ZM14.4346 11.7695L14.081 11.416C13.1749 12.3223 12.665 13.552 12.665 14.834H13.165H13.665C13.665 13.8174 14.0694 12.842 14.7882 12.123L14.4346 11.7695ZM13.165 14.834L12.665 14.834C12.6651 16.0781 12.9729 17.0096 13.3059 18.0087L13.7803 17.8506L14.2546 17.6925C13.9214 16.6928 13.6651 15.8993 13.665 14.834L13.165 14.834ZM13.7803 17.8506L13.3059 18.0087C13.6391 19.0084 13.998 20.0782 13.998 21.501H14.498H14.998C14.998 19.9003 14.5883 18.6936 14.2546 17.6925L13.7803 17.8506ZM14.498 21.501L13.998 21.5009C13.998 22.4704 13.802 23.4234 13.4275 24.3044L13.8877 24.5L14.3479 24.6956C14.7748 23.6912 14.998 22.6052 14.998 21.501L14.498 21.501ZM13.8877 24.5V25H21.498V24.5V24H13.8877V24.5ZM21.498 24.5L21.4977 25C21.7741 25.0002 21.998 25.2244 21.998 25.5L22.498 25.5L22.998 25.5C22.998 24.6715 22.3259 24.0006 21.4984 24L21.498 24.5ZM22.498 25.5H21.998C21.998 25.7756 21.7741 25.9998 21.4977 26L21.498 26.5L21.4984 27C22.3259 26.9994 22.998 26.3285 22.998 25.5H22.498ZM21.498 26.5V26H2.83301V26.5V27H21.498V26.5ZM2.83301 26.5V26C2.55687 26 2.33301 25.7761 2.33301 25.5H1.83301H1.33301C1.33301 26.3284 2.00458 27 2.83301 27V26.5ZM1.83301 25.5L2.33301 25.5C2.33303 25.2239 2.55693 25 2.83301 25V24.5V24C2.00457 24 1.33307 24.6716 1.33301 25.5L1.83301 25.5ZM2.83301 24.5V25H11.6387V24.5V24H2.83301V24.5ZM11.6387 24.5L12.0629 24.7647C12.6718 23.7887 12.9979 22.6587 12.998 21.501L12.498 21.501L11.998 21.5009C11.998 22.4707 11.7248 23.4174 11.2145 24.2353L11.6387 24.5ZM12.498 21.501H12.998C12.998 20.2566 12.6902 19.3247 12.3572 18.3253L11.8828 18.4834L11.4085 18.6415C11.7417 19.6413 11.998 20.4353 11.998 21.501H12.498ZM11.8828 18.4834L12.3572 18.3253C12.1567 17.7238 11.951 17.1039 11.8154 16.3918L11.3242 16.4854L10.8331 16.5789C10.9828 17.3651 11.2093 18.0438 11.4085 18.6415L11.8828 18.4834ZM11.3242 16.4854L11.1181 16.0298C10.3908 16.3589 9.611 16.5664 8.80957 16.6387L8.85449 17.1367L8.89941 17.6347C9.81369 17.5522 10.7023 17.3155 11.5303 16.9409L11.3242 16.4854ZM8.85449 17.1367L8.80958 16.6387C7.48438 16.7582 6.15138 16.5055 4.96093 15.9102L4.7373 16.3574L4.51368 16.8046C5.8699 17.4828 7.38883 17.7709 8.8994 17.6347L8.85449 17.1367ZM4.7373 16.3574L4.96096 15.9102C3.77072 15.315 2.76936 14.4003 2.06987 13.2684L1.64453 13.5312L1.21919 13.7941C2.01644 15.0842 3.15756 16.1264 4.51365 16.8046L4.7373 16.3574ZM1.64453 13.5312L2.06987 13.2684C1.37032 12.1364 1.00002 10.831 1 9.49999L0.5 9.5L0 9.50001C1.7345e-05 11.0165 0.42189 12.5038 1.21919 13.7941L1.64453 13.5312ZM0.5 9.5L1 9.50018C1.00006 9.34325 1.07428 9.19479 1.20042 9.10017L0.900391 8.7002L0.600364 8.30022C0.223144 8.58317 0.000172675 9.02755 2.98023e-08 9.49982L0.5 9.5ZM0.900391 8.7002L1.20039 9.10019C2.26489 8.30182 3.53108 7.81574 4.85643 7.69622L4.81152 7.19824L4.76661 6.70026C3.25645 6.83645 1.81357 7.39031 0.60039 8.3002L0.900391 8.7002ZM4.81152 7.19824L4.8564 7.69622C6.18169 7.57679 7.51399 7.82864 8.70411 8.42377L8.92773 7.97656L9.15136 7.52936C7.79509 6.85115 6.27683 6.56417 4.76665 6.70026L4.81152 7.19824ZM8.92773 7.97656L8.70409 8.42376C9.89432 9.01898 10.8956 9.93369 11.5952 11.0656L12.0205 10.8027L12.4458 10.5399C11.6486 9.24985 10.5075 8.20756 9.15137 7.52937L8.92773 7.97656ZM12.0205 10.8027L11.5952 11.0656C11.679 11.2013 11.7582 11.3415 11.8343 11.4855L12.2764 11.252L12.7185 11.0184C12.6339 10.8582 12.5436 10.6981 12.4459 10.5399L12.0205 10.8027ZM12.2764 11.252L12.6887 11.5347C12.8905 11.2404 13.1187 10.9635 13.3731 10.709L13.0195 10.3555L12.6659 10.002C12.3664 10.3016 12.0992 10.6262 11.864 10.9692L12.2764 11.252ZM13.0195 10.3555L13.3731 10.709C13.6042 10.4779 13.8552 10.2681 14.1207 10.0795L13.8311 9.67188L13.5414 9.2643C13.2333 9.48326 12.939 9.72881 12.666 10.0019L13.0195 10.3555ZM13.8311 9.67188H14.3311V6.83301H13.8311H13.3311V9.67188H13.8311ZM13.8311 6.83301L14.3311 6.83305C14.3312 5.28638 14.9464 3.803 16.0401 2.70898L15.6865 2.35547L15.3329 2.00196C14.052 3.28322 13.3312 5.02078 13.3311 6.83297L13.8311 6.83301ZM15.6865 2.35547L16.0401 2.709C17.1339 1.61503 18.6173 1.0001 20.1641 1L20.1641 0.5L20.164 0C18.3519 0.000111789 16.6142 0.720546 15.3329 2.00194L15.6865 2.35547ZM20.1641 0.5V1H22.1641V0.5V0H20.1641V0.5ZM4.99121 9.18945L4.9463 8.69147C3.99117 8.77761 3.07326 9.08707 2.26281 9.58719L2.52539 10.0127L2.78797 10.4382C3.46826 10.0184 4.23742 9.75946 5.03612 9.68743L4.99121 9.18945ZM2.52539 10.0127L2.02744 10.0579C2.11361 11.0068 2.41713 11.9264 2.92134 12.7423L3.34668 12.4795L3.77202 12.2167C3.35021 11.534 3.09565 10.7637 3.02334 9.96747L2.52539 10.0127ZM3.34668 12.4795L2.92135 12.7423C3.52319 13.7162 4.38384 14.5043 5.4082 15.0165L5.63184 14.5693L5.85547 14.1221C4.99775 13.6932 4.27655 13.033 3.77201 12.2166L3.34668 12.4795ZM5.63184 14.5693L5.40821 15.0165C6.43242 15.5287 7.57937 15.7453 8.71971 15.6425L8.6748 15.1445L8.6299 14.6466C7.67442 14.7327 6.71345 14.5512 5.85546 14.1221L5.63184 14.5693ZM8.6748 15.1445L8.71973 15.6425C9.67525 15.5563 10.5915 15.2454 11.4012 14.7458L11.1387 14.3203L10.8761 13.8948C10.1954 14.3148 9.42774 14.5746 8.62988 14.6466L8.6748 15.1445ZM11.1387 14.3203L11.6366 14.275C11.5503 13.3273 11.249 12.4078 10.7447 11.5917L10.3193 11.8545L9.89399 12.1173C10.3152 12.799 10.5682 13.5691 10.6407 14.3656L11.1387 14.3203ZM10.3193 11.8545L10.7447 11.5917C10.1426 10.6173 9.28081 9.83052 8.25685 9.31843L8.0332 9.76562L7.80956 10.2128C8.66775 10.642 9.38972 11.3013 9.89399 12.1173L10.3193 11.8545ZM8.0332 9.76562L8.25683 9.31842C7.23307 8.80647 6.08683 8.58874 4.94636 8.69147L4.99121 9.18945L5.03607 9.68744C5.99108 9.60141 6.95144 9.7837 7.80957 10.2128L8.0332 9.76562ZM20.1641 2.5L20.164 2C18.8824 2.00012 17.6532 2.50971 16.747 3.416L17.1006 3.76953L17.4542 4.12306C18.1729 3.4042 19.1479 3.00009 20.1641 3L20.1641 2.5ZM17.1006 3.76953L16.747 3.41604C15.8412 4.32217 15.3312 5.55114 15.3311 6.83295L15.8311 6.83301L16.3311 6.83306C16.3312 5.8168 16.7355 4.84196 17.4542 4.12302L17.1006 3.76953ZM15.8311 6.83301H15.3311V8.72559H15.8311H16.3311V6.83301H15.8311ZM15.8311 8.72559L15.9627 9.20794C16.46 9.07219 16.9761 9.00003 17.4981 9L17.498 8.5L17.498 8C16.8838 8.00003 16.2793 8.08493 15.6994 8.24323L15.8311 8.72559ZM17.498 8.5L17.4981 9C18.7793 8.99992 20.0088 8.49124 20.9151 7.58501L20.5615 7.23145L20.208 6.87788C19.4894 7.59642 18.5144 7.99994 17.498 8L17.498 8.5ZM20.5615 7.23145L20.9151 7.58497C21.8215 6.67846 22.33 5.44863 22.3301 4.16703L21.8301 4.16699L21.3301 4.16695C21.33 5.18384 20.9265 6.15923 20.2079 6.87792L20.5615 7.23145ZM21.8301 4.16699H22.3301V2.5H21.8301H21.3301V4.16699H21.8301ZM21.8301 2.5V2H20.1641V2.5V3H21.8301V2.5Z" fill="white"/>
</svg>
