<svg width="27" height="27" viewBox="0 0 27 27" fill="none" xmlns="http://www.w3.org/2000/svg">
<path d="M22.834 0.5C24.8589 0.500086 26.5009 2.14202 26.501 4.16699V22.833C26.501 24.858 24.859 26.4999 22.834 26.5H4.16699C2.14196 26.5 0.5 24.8581 0.5 22.833V4.16699C0.500041 2.14198 2.14199 0.500021 4.16699 0.5H22.834ZM2.5 22.833C2.5 23.7534 3.24647 24.5 4.16699 24.5H8.5V18.5H2.5V22.833ZM18.499 24.5H22.834C23.7544 24.4999 24.501 23.7534 24.501 22.833V18.5H18.499V24.5ZM10.5 24.5H16.499V18.5H10.5V24.5ZM2.5 16.5H8.5V10.499H2.5V16.5ZM18.499 16.5H24.501V10.499H18.499V16.5ZM10.5 16.5H16.499V10.499H10.5V16.5ZM4.16699 2.5C3.2465 2.50002 2.50004 3.24661 2.5 4.16699V8.49902H24.501V4.16699C24.5009 3.24665 23.7544 2.50009 22.834 2.5H4.16699Z" fill="white"/>
<path d="M22.834 0.5L22.834 0H22.834V0.5ZM26.501 4.16699H27.001V4.16698L26.501 4.16699ZM22.834 26.5V27H22.834L22.834 26.5ZM4.16699 26.5L4.16699 27H4.16699V26.5ZM0.5 4.16699L0 4.16698V4.16699H0.5ZM4.16699 0.5V0H4.16699L4.16699 0.5ZM4.16699 24.5L4.16698 25H4.16699V24.5ZM8.5 24.5V25C8.77614 25 9 24.7761 9 24.5H8.5ZM8.5 18.5H9C9 18.2239 8.77614 18 8.5 18V18.5ZM2.5 18.5V18C2.22386 18 2 18.2239 2 18.5H2.5ZM18.499 24.5H17.999C17.999 24.7761 18.2229 25 18.499 25V24.5ZM22.834 24.5V25H22.834L22.834 24.5ZM24.501 18.5H25.001C25.001 18.2239 24.7771 18 24.501 18V18.5ZM18.499 18.5V18C18.2229 18 17.999 18.2239 17.999 18.5H18.499ZM10.5 24.5H10C10 24.7761 10.2239 25 10.5 25V24.5ZM16.499 24.5V25C16.7752 25 16.999 24.7761 16.999 24.5H16.499ZM16.499 18.5H16.999C16.999 18.2239 16.7752 18 16.499 18V18.5ZM10.5 18.5V18C10.2239 18 10 18.2239 10 18.5H10.5ZM2.5 16.5H2C2 16.7761 2.22386 17 2.5 17V16.5ZM8.5 16.5V17C8.77614 17 9 16.7761 9 16.5H8.5ZM8.5 10.499H9C9 10.2229 8.77614 9.99902 8.5 9.99902V10.499ZM2.5 10.499V9.99902C2.22386 9.99902 2 10.2229 2 10.499H2.5ZM18.499 16.5H17.999C17.999 16.7761 18.2229 17 18.499 17V16.5ZM24.501 16.5V17C24.7771 17 25.001 16.7761 25.001 16.5H24.501ZM24.501 10.499H25.001C25.001 10.2229 24.7771 9.99902 24.501 9.99902V10.499ZM18.499 10.499V9.99902C18.2229 9.99902 17.999 10.2229 17.999 10.499H18.499ZM10.5 16.5H10C10 16.7761 10.2239 17 10.5 17V16.5ZM16.499 16.5V17C16.7752 17 16.999 16.7761 16.999 16.5H16.499ZM16.499 10.499H16.999C16.999 10.2229 16.7752 9.99902 16.499 9.99902V10.499ZM10.5 10.499V9.99902C10.2239 9.99902 10 10.2229 10 10.499H10.5ZM4.16699 2.5V2H4.16698L4.16699 2.5ZM2.5 4.16699L2 4.16697V4.16699H2.5ZM2.5 8.49902H2C2 8.77517 2.22386 8.99902 2.5 8.99902V8.49902ZM24.501 8.49902V8.99902C24.7771 8.99902 25.001 8.77517 25.001 8.49902H24.501ZM24.501 4.16699H25.001V4.16697L24.501 4.16699ZM22.834 2.5L22.834 2H22.834V2.5ZM22.834 0.5L22.834 1C24.5828 1.00007 26.0009 2.41818 26.001 4.167L26.501 4.16699L27.001 4.16698C27.0009 1.86586 25.1351 9.72152e-05 22.834 0L22.834 0.5ZM26.501 4.16699H26.001V22.833H26.501H27.001V4.16699H26.501ZM26.501 22.833H26.001C26.001 24.5819 24.5828 25.9999 22.834 26L22.834 26.5L22.834 27C25.1351 26.9999 27.001 25.1342 27.001 22.833H26.501ZM22.834 26.5V26H4.16699V26.5V27H22.834V26.5ZM4.16699 26.5L4.167 26C2.4181 26 1 24.5819 1 22.833H0.5H0C0 25.1342 1.86582 27 4.16699 27L4.16699 26.5ZM0.5 22.833H1V4.16699H0.5H0V22.833H0.5ZM0.5 4.16699L1 4.167C1.00004 2.41812 2.41813 1.00002 4.167 1L4.16699 0.5L4.16699 0C1.86584 2.35736e-05 4.66406e-05 1.86584 0 4.16698L0.5 4.16699ZM4.16699 0.5V1H22.834V0.5V0H4.16699V0.5ZM2.5 22.833H2C2 24.0296 2.97032 25 4.16698 25L4.16699 24.5L4.167 24C3.52263 24 3 23.4773 3 22.833H2.5ZM4.16699 24.5V25H8.5V24.5V24H4.16699V24.5ZM8.5 24.5H9V18.5H8.5H8V24.5H8.5ZM8.5 18.5V18H2.5V18.5V19H8.5V18.5ZM2.5 18.5H2V22.833H2.5H3V18.5H2.5ZM18.499 24.5V25H22.834V24.5V24H18.499V24.5ZM22.834 24.5L22.834 25C24.0306 24.9999 25.001 24.0296 25.001 22.833H24.501H24.001C24.001 23.4772 23.4783 23.9999 22.8339 24L22.834 24.5ZM24.501 22.833H25.001V18.5H24.501H24.001V22.833H24.501ZM24.501 18.5V18H18.499V18.5V19H24.501V18.5ZM18.499 18.5H17.999V24.5H18.499H18.999V18.5H18.499ZM10.5 24.5V25H16.499V24.5V24H10.5V24.5ZM16.499 24.5H16.999V18.5H16.499H15.999V24.5H16.499ZM16.499 18.5V18H10.5V18.5V19H16.499V18.5ZM10.5 18.5H10V24.5H10.5H11V18.5H10.5ZM2.5 16.5V17H8.5V16.5V16H2.5V16.5ZM8.5 16.5H9V10.499H8.5H8V16.5H8.5ZM8.5 10.499V9.99902H2.5V10.499V10.999H8.5V10.499ZM2.5 10.499H2V16.5H2.5H3V10.499H2.5ZM18.499 16.5V17H24.501V16.5V16H18.499V16.5ZM24.501 16.5H25.001V10.499H24.501H24.001V16.5H24.501ZM24.501 10.499V9.99902H18.499V10.499V10.999H24.501V10.499ZM18.499 10.499H17.999V16.5H18.499H18.999V10.499H18.499ZM10.5 16.5V17H16.499V16.5V16H10.5V16.5ZM16.499 16.5H16.999V10.499H16.499H15.999V16.5H16.499ZM16.499 10.499V9.99902H10.5V10.499V10.999H16.499V10.499ZM10.5 10.499H10V16.5H10.5H11V10.499H10.5ZM4.16699 2.5L4.16698 2C2.97032 2.00003 2.00005 2.97049 2 4.16697L2.5 4.16699L3 4.16701C3.00003 3.52272 3.52267 3.00001 4.167 3L4.16699 2.5ZM2.5 4.16699H2V8.49902H2.5H3V4.16699H2.5ZM2.5 8.49902V8.99902H24.501V8.49902V7.99902H2.5V8.49902ZM24.501 8.49902H25.001V4.16699H24.501H24.001V8.49902H24.501ZM24.501 4.16699L25.001 4.16697C25.0009 2.9705 24.0306 2.00011 22.834 2L22.834 2.5L22.8339 3C23.4783 3.00006 24.0009 3.5228 24.001 4.16701L24.501 4.16699ZM22.834 2.5V2H4.16699V2.5V3H22.834V2.5Z" fill="white"/>
</svg>
