<svg width="27" height="25" viewBox="0 0 27 25" fill="none" xmlns="http://www.w3.org/2000/svg">
<path fill-rule="evenodd" clip-rule="evenodd" d="M18.0459 0.5C18.9378 0.500071 19.7931 0.854693 20.4238 1.48535C21.0545 2.11603 21.409 2.97138 21.4092 3.86328V5.22754H22.7725C23.6645 5.22754 24.5206 5.58211 25.1514 6.21289C25.782 6.84359 26.1366 7.69894 26.1367 8.59082V20.4092C26.1367 21.3012 25.7822 22.1573 25.1514 22.7881C24.5206 23.4188 23.6645 23.7734 22.7725 23.7734H3.86328C2.97149 23.7733 2.11601 23.4186 1.48535 22.7881C0.854596 22.1573 0.500023 21.3012 0.5 20.4092V12.1367C0.5 11.2447 0.854631 10.3886 1.48535 9.75781C2.116 9.1273 2.97151 8.77358 3.86328 8.77344H5.22754V3.86328C5.22768 2.97138 5.58221 2.11603 6.21289 1.48535C6.8436 0.854714 7.69892 0.500094 8.59082 0.5H18.0459ZM8.59082 2.5C8.22935 2.50009 7.88259 2.64385 7.62695 2.89941C7.37135 3.15502 7.22768 3.50181 7.22754 3.86328V21.7734H9.95508V19.2275C9.95517 18.3356 10.3097 17.4803 10.9404 16.8496C11.5711 16.2189 12.4264 15.8644 13.3184 15.8643C14.2103 15.8644 15.0665 16.2189 15.6973 16.8496C16.3277 17.4803 16.6825 18.3358 16.6826 19.2275V21.7734H19.4092V3.86328C19.409 3.50181 19.2654 3.15502 19.0098 2.89941C18.7541 2.64383 18.4074 2.50007 18.0459 2.5H8.59082ZM13.3184 17.8643C12.9568 17.8644 12.6101 18.008 12.3545 18.2637C12.0989 18.5193 11.9552 18.866 11.9551 19.2275V21.7734H14.6826V19.2275C14.6825 18.8663 14.5385 18.5193 14.2832 18.2637C14.0276 18.008 13.6799 17.8644 13.3184 17.8643ZM21.4092 21.7734H22.7725C23.134 21.7734 23.4816 21.6296 23.7373 21.374C23.993 21.1183 24.1367 20.7708 24.1367 20.4092V8.59082C24.1366 8.22937 23.9928 7.88258 23.7373 7.62695C23.4816 7.37125 23.1341 7.22754 22.7725 7.22754H21.4092V21.7734ZM3.86328 10.7734C3.50181 10.7736 3.15502 10.9172 2.89941 11.1729C2.6439 11.4285 2.5 11.7752 2.5 12.1367V20.4092C2.50002 20.7708 2.64373 21.1183 2.89941 21.374C3.155 21.6295 3.50192 21.7733 3.86328 21.7734H5.22754V10.7734H3.86328ZM15.6826 11.1367C16.2346 11.1371 16.6826 11.5846 16.6826 12.1367C16.6825 12.6887 16.2346 13.1364 15.6826 13.1367H10.9551C10.4029 13.1367 9.95517 12.6889 9.95508 12.1367C9.95508 11.5844 10.4028 11.1367 10.9551 11.1367H15.6826ZM15.6826 6.40918C16.2346 6.40952 16.6826 6.85714 16.6826 7.40918C16.6826 7.96126 16.2346 8.40884 15.6826 8.40918H10.9551C10.4028 8.40918 9.95508 7.96146 9.95508 7.40918C9.95513 6.85694 10.4028 6.40918 10.9551 6.40918H15.6826Z" fill="white"/>
<path d="M18.0459 0.5L18.0459 0H18.0459V0.5ZM20.4238 1.48535L20.7774 1.1318L20.7774 1.13178L20.4238 1.48535ZM21.4092 3.86328H21.9092V3.8632L21.4092 3.86328ZM21.4092 5.22754H20.9092C20.9092 5.50368 21.133 5.72754 21.4092 5.72754V5.22754ZM25.1514 6.21289L25.5049 5.85936L25.5049 5.85933L25.1514 6.21289ZM26.1367 8.59082H26.6367V8.59077L26.1367 8.59082ZM26.1367 20.4092L26.6367 20.4092V20.4092H26.1367ZM25.1514 22.7881L25.5049 23.1417L25.5049 23.1416L25.1514 22.7881ZM3.86328 23.7734L3.8632 24.2734H3.86328V23.7734ZM1.48535 22.7881L1.13179 23.1416L1.13183 23.1417L1.48535 22.7881ZM0.5 20.4092H0V20.4092L0.5 20.4092ZM1.48535 9.75781L1.13184 9.40422L1.13178 9.40428L1.48535 9.75781ZM3.86328 8.77344V8.27344H3.8632L3.86328 8.77344ZM5.22754 8.77344V9.27344C5.50368 9.27344 5.72754 9.04958 5.72754 8.77344H5.22754ZM5.22754 3.86328L4.72754 3.8632V3.86328H5.22754ZM6.21289 1.48535L5.85936 1.13178L5.85934 1.1318L6.21289 1.48535ZM8.59082 0.5V0H8.59077L8.59082 0.5ZM8.59082 2.5V2H8.59069L8.59082 2.5ZM7.62695 2.89941L7.27345 2.54581L7.2734 2.54586L7.62695 2.89941ZM7.22754 3.86328L6.72754 3.86309V3.86328H7.22754ZM7.22754 21.7734H6.72754C6.72754 22.0496 6.9514 22.2734 7.22754 22.2734V21.7734ZM9.95508 21.7734V22.2734C10.2312 22.2734 10.4551 22.0496 10.4551 21.7734H9.95508ZM9.95508 19.2275L9.45508 19.2275V19.2275H9.95508ZM10.9404 16.8496L10.5869 16.4961L10.5869 16.4961L10.9404 16.8496ZM13.3184 15.8643L13.3184 15.3643H13.3183L13.3184 15.8643ZM15.6973 16.8496L16.0509 16.4961L16.0508 16.4961L15.6973 16.8496ZM16.6826 19.2275H17.1826V19.2275L16.6826 19.2275ZM16.6826 21.7734H16.1826C16.1826 22.0496 16.4065 22.2734 16.6826 22.2734V21.7734ZM19.4092 21.7734V22.2734C19.6853 22.2734 19.9092 22.0496 19.9092 21.7734H19.4092ZM19.4092 3.86328H19.9092V3.86309L19.4092 3.86328ZM19.0098 2.89941L19.3633 2.54586L19.3633 2.54581L19.0098 2.89941ZM18.0459 2.5L18.046 2H18.0459V2.5ZM13.3184 17.8643L13.3185 17.3643H13.3182L13.3184 17.8643ZM12.3545 18.2637L12.0009 17.9101L12.0009 17.9101L12.3545 18.2637ZM11.9551 19.2275L11.4551 19.2274V19.2275H11.9551ZM11.9551 21.7734H11.4551C11.4551 22.0496 11.6789 22.2734 11.9551 22.2734V21.7734ZM14.6826 21.7734V22.2734C14.9588 22.2734 15.1826 22.0496 15.1826 21.7734H14.6826ZM14.6826 19.2275H15.1826V19.2274L14.6826 19.2275ZM14.2832 18.2637L14.637 17.9103L14.6368 17.9101L14.2832 18.2637ZM21.4092 21.7734H20.9092C20.9092 22.0496 21.133 22.2734 21.4092 22.2734V21.7734ZM23.7373 21.374L24.0908 21.7276L24.0909 21.7276L23.7373 21.374ZM24.1367 20.4092L24.6367 20.4092V20.4092H24.1367ZM24.1367 8.59082H24.6367V8.59069L24.1367 8.59082ZM23.7373 7.62695L24.0909 7.27346L24.0908 7.27338L23.7373 7.62695ZM21.4092 7.22754V6.72754C21.133 6.72754 20.9092 6.9514 20.9092 7.22754H21.4092ZM3.86328 10.7734V10.2734H3.86309L3.86328 10.7734ZM2.89941 11.1729L2.54586 10.8193L2.54573 10.8194L2.89941 11.1729ZM2.5 20.4092H2V20.4092L2.5 20.4092ZM2.89941 21.374L2.54584 21.7276L2.54594 21.7277L2.89941 21.374ZM3.86328 21.7734L3.86309 22.2734H3.86328V21.7734ZM5.22754 21.7734V22.2734C5.50368 22.2734 5.72754 22.0496 5.72754 21.7734H5.22754ZM5.22754 10.7734H5.72754C5.72754 10.4973 5.50368 10.2734 5.22754 10.2734V10.7734ZM15.6826 11.1367L15.6829 10.6367H15.6826V11.1367ZM16.6826 12.1367L17.1826 12.1368V12.1367H16.6826ZM15.6826 13.1367V13.6367H15.6829L15.6826 13.1367ZM9.95508 12.1367H9.45508V12.1368L9.95508 12.1367ZM15.6826 6.40918L15.6829 5.90918H15.6826V6.40918ZM16.6826 7.40918H17.1826V7.40914L16.6826 7.40918ZM15.6826 8.40918V8.90918H15.6829L15.6826 8.40918ZM9.95508 7.40918L9.45508 7.40914V7.40918H9.95508ZM18.0459 0.5L18.0459 1C18.8051 1.00006 19.5332 1.30192 20.0703 1.83892L20.4238 1.48535L20.7774 1.13178C20.053 0.407467 19.0706 8.12411e-05 18.0459 0L18.0459 0.5ZM20.4238 1.48535L20.0703 1.8389C20.6072 2.37588 20.9091 3.1041 20.9092 3.86336L21.4092 3.86328L21.9092 3.8632C21.909 2.83866 21.5018 1.85618 20.7774 1.1318L20.4238 1.48535ZM21.4092 3.86328H20.9092V5.22754H21.4092H21.9092V3.86328H21.4092ZM21.4092 5.22754V5.72754H22.7725V5.22754V4.72754H21.4092V5.22754ZM22.7725 5.22754V5.72754C23.5319 5.72754 24.2608 6.02944 24.7978 6.56645L25.1514 6.21289L25.5049 5.85933C24.7803 5.13479 23.7971 4.72754 22.7725 4.72754V5.22754ZM25.1514 6.21289L24.7978 6.56642C25.3347 7.10346 25.6366 7.8317 25.6367 8.59087L26.1367 8.59082L26.6367 8.59077C26.6366 7.56618 26.2292 6.58373 25.5049 5.85936L25.1514 6.21289ZM26.1367 8.59082H25.6367V20.4092H26.1367H26.6367V8.59082H26.1367ZM26.1367 20.4092L25.6367 20.4092C25.6367 21.1686 25.3348 21.8975 24.7978 22.4345L25.1514 22.7881L25.5049 23.1416C26.2295 22.4171 26.6367 21.4338 26.6367 20.4092L26.1367 20.4092ZM25.1514 22.7881L24.7978 22.4345C24.2608 22.9715 23.5318 23.2734 22.7725 23.2734V23.7734V24.2734C23.7971 24.2734 24.7804 23.8661 25.5049 23.1417L25.1514 22.7881ZM22.7725 23.7734V23.2734H3.86328V23.7734V24.2734H22.7725V23.7734ZM3.86328 23.7734L3.86336 23.2734C3.10424 23.2733 2.37586 22.9714 1.83887 22.4345L1.48535 22.7881L1.13183 23.1417C1.85616 23.8659 2.83873 24.2733 3.8632 24.2734L3.86328 23.7734ZM1.48535 22.7881L1.83891 22.4345C1.30193 21.8975 1.00002 21.1686 1 20.4092L0.5 20.4092L0 20.4092C2.70009e-05 21.4338 0.407266 22.4171 1.13179 23.1416L1.48535 22.7881ZM0.5 20.4092H1V12.1367H0.5H0V20.4092H0.5ZM0.5 12.1367H1C1 11.3773 1.30195 10.6484 1.83892 10.1113L1.48535 9.75781L1.13178 9.40428C0.407316 10.1288 0 11.1121 0 12.1367H0.5ZM1.48535 9.75781L1.83887 10.1114C2.37559 9.5748 3.1039 9.27356 3.86336 9.27344L3.86328 8.77344L3.8632 8.27344C2.83912 8.2736 1.85641 8.67981 1.13184 9.40422L1.48535 9.75781ZM3.86328 8.77344V9.27344H5.22754V8.77344V8.27344H3.86328V8.77344ZM5.22754 8.77344H5.72754V3.86328H5.22754H4.72754V8.77344H5.22754ZM5.22754 3.86328L5.72754 3.86336C5.72766 3.1041 6.02947 2.37588 6.56644 1.8389L6.21289 1.48535L5.85934 1.1318C5.13495 1.85618 4.7277 2.83866 4.72754 3.8632L5.22754 3.86328ZM6.21289 1.48535L6.56642 1.83892C7.10346 1.30195 7.83167 1.00008 8.59087 1L8.59082 0.5L8.59077 0C7.56617 0.000107974 6.58373 0.407482 5.85936 1.13178L6.21289 1.48535ZM8.59082 0.5V1H18.0459V0.5V0H8.59082V0.5ZM8.59082 2.5L8.59069 2C8.09659 2.00013 7.62275 2.19661 7.27345 2.54581L7.62695 2.89941L7.98046 3.25302C8.14243 3.09109 8.36211 3.00006 8.59095 3L8.59082 2.5ZM7.62695 2.89941L7.2734 2.54586C6.92404 2.89522 6.72773 3.36913 6.72754 3.86309L7.22754 3.86328L7.72754 3.86348C7.72763 3.6345 7.81866 3.41482 7.98051 3.25297L7.62695 2.89941ZM7.22754 3.86328H6.72754V21.7734H7.22754H7.72754V3.86328H7.22754ZM7.22754 21.7734V22.2734H9.95508V21.7734V21.2734H7.22754V21.7734ZM9.95508 21.7734H10.4551V19.2275H9.95508H9.45508V21.7734H9.95508ZM9.95508 19.2275L10.4551 19.2276C10.4552 18.4683 10.757 17.7402 11.294 17.2032L10.9404 16.8496L10.5869 16.4961C9.8625 17.2205 9.45519 18.2029 9.45508 19.2275L9.95508 19.2275ZM10.9404 16.8496L11.294 17.2032C11.831 16.6661 12.5591 16.3643 13.3184 16.3643L13.3184 15.8643L13.3183 15.3643C12.2937 15.3644 11.3113 15.7716 10.5869 16.4961L10.9404 16.8496ZM13.3184 15.8643L13.3183 16.3643C14.0777 16.3643 14.8068 16.6662 15.3437 17.2032L15.6973 16.8496L16.0508 16.4961C15.3263 15.7715 14.3429 15.3644 13.3184 15.3643L13.3184 15.8643ZM15.6973 16.8496L15.3436 17.2031C15.8805 17.7402 16.1825 18.4686 16.1826 19.2276L16.6826 19.2275L17.1826 19.2275C17.1825 18.203 16.7748 17.2204 16.0509 16.4961L15.6973 16.8496ZM16.6826 19.2275H16.1826V21.7734H16.6826H17.1826V19.2275H16.6826ZM16.6826 21.7734V22.2734H19.4092V21.7734V21.2734H16.6826V21.7734ZM19.4092 21.7734H19.9092V3.86328H19.4092H18.9092V21.7734H19.4092ZM19.4092 3.86328L19.9092 3.86309C19.909 3.36913 19.7127 2.89522 19.3633 2.54586L19.0098 2.89941L18.6562 3.25297C18.8181 3.41482 18.9091 3.6345 18.9092 3.86348L19.4092 3.86328ZM19.0098 2.89941L19.3633 2.54581C19.014 2.1966 18.5402 2.0001 18.046 2L18.0459 2.5L18.0458 3C18.2746 3.00004 18.4943 3.09106 18.6563 3.25302L19.0098 2.89941ZM18.0459 2.5V2H8.59082V2.5V3H18.0459V2.5ZM13.3184 17.8643L13.3182 17.3643C12.8241 17.3644 12.3503 17.5607 12.0009 17.9101L12.3545 18.2637L12.708 18.6172C12.87 18.4553 13.0895 18.3643 13.3185 18.3643L13.3184 17.8643ZM12.3545 18.2637L12.0009 17.9101C11.6516 18.2595 11.4552 18.7333 11.4551 19.2274L11.9551 19.2275L12.4551 19.2277C12.4551 18.9988 12.5461 18.7791 12.7081 18.6172L12.3545 18.2637ZM11.9551 19.2275H11.4551V21.7734H11.9551H12.4551V19.2275H11.9551ZM11.9551 21.7734V22.2734H14.6826V21.7734V21.2734H11.9551V21.7734ZM14.6826 21.7734H15.1826V19.2275H14.6826H14.1826V21.7734H14.6826ZM14.6826 19.2275L15.1826 19.2274C15.1825 18.7333 14.9857 18.2594 14.637 17.9103L14.2832 18.2637L13.9295 18.617C14.0914 18.7791 14.1826 18.9992 14.1826 19.2277L14.6826 19.2275ZM14.2832 18.2637L14.6368 17.9101C14.2871 17.5605 13.8122 17.3644 13.3185 17.3643L13.3184 17.8643L13.3182 18.3643C13.5476 18.3643 13.768 18.4556 13.9296 18.6172L14.2832 18.2637ZM21.4092 21.7734V22.2734H22.7725V21.7734V21.2734H21.4092V21.7734ZM22.7725 21.7734V22.2734C23.2665 22.2734 23.7412 22.0771 24.0908 21.7276L23.7373 21.374L23.3838 21.0204C23.222 21.1822 23.0016 21.2734 22.7725 21.2734V21.7734ZM23.7373 21.374L24.0909 21.7276C24.4405 21.3779 24.6367 20.9032 24.6367 20.4092L24.1367 20.4092L23.6367 20.4091C23.6367 20.6384 23.5455 20.8587 23.3838 21.0205L23.7373 21.374ZM24.1367 20.4092H24.6367V8.59082H24.1367H23.6367V20.4092H24.1367ZM24.1367 8.59082L24.6367 8.59069C24.6366 8.0966 24.4401 7.62274 24.0909 7.27346L23.7373 7.62695L23.3837 7.98044C23.5456 8.14242 23.6367 8.36215 23.6367 8.59095L24.1367 8.59082ZM23.7373 7.62695L24.0908 7.27338C23.7412 6.92378 23.2665 6.72754 22.7725 6.72754V7.22754V7.72754C23.0017 7.72754 23.2219 7.81872 23.3838 7.98052L23.7373 7.62695ZM22.7725 7.22754V6.72754H21.4092V7.22754V7.72754H22.7725V7.22754ZM21.4092 7.22754H20.9092V21.7734H21.4092H21.9092V7.22754H21.4092ZM3.86328 10.7734L3.86309 10.2734C3.36913 10.2736 2.89522 10.4699 2.54586 10.8193L2.89941 11.1729L3.25297 11.5264C3.41482 11.3646 3.6345 11.2735 3.86348 11.2734L3.86328 10.7734ZM2.89941 11.1729L2.54573 10.8194C2.19678 11.1686 2 11.6423 2 12.1367H2.5H3C3 11.9081 3.09103 11.6885 3.2531 11.5263L2.89941 11.1729ZM2.5 12.1367H2V20.4092H2.5H3V12.1367H2.5ZM2.5 20.4092L2 20.4092C2.00003 20.9032 2.19625 21.3779 2.54584 21.7276L2.89941 21.374L3.25298 21.0205C3.09122 20.8587 3.00001 20.6384 3 20.4091L2.5 20.4092ZM2.89941 21.374L2.54594 21.7277C2.89519 22.0767 3.36915 22.2732 3.86309 22.2734L3.86328 21.7734L3.86348 21.2734C3.63469 21.2733 3.41481 21.1822 3.25289 21.0204L2.89941 21.374ZM3.86328 21.7734V22.2734H5.22754V21.7734V21.2734H3.86328V21.7734ZM5.22754 21.7734H5.72754V10.7734H5.22754H4.72754V21.7734H5.22754ZM5.22754 10.7734V10.2734H3.86328V10.7734V11.2734H5.22754V10.7734ZM15.6826 11.1367L15.6823 11.6367C15.9587 11.6369 16.1826 11.8611 16.1826 12.1367H16.6826H17.1826C17.1826 11.3082 16.5105 10.6372 15.6829 10.6367L15.6826 11.1367ZM16.6826 12.1367L16.1826 12.1366C16.1826 12.4123 15.9586 12.6366 15.6823 12.6367L15.6826 13.1367L15.6829 13.6367C16.5105 13.6362 17.1825 12.9651 17.1826 12.1368L16.6826 12.1367ZM15.6826 13.1367V12.6367H10.9551V13.1367V13.6367H15.6826V13.1367ZM10.9551 13.1367V12.6367C10.6791 12.6367 10.4551 12.4128 10.4551 12.1366L9.95508 12.1367L9.45508 12.1368C9.45522 12.965 10.1266 13.6367 10.9551 13.6367V13.1367ZM9.95508 12.1367H10.4551C10.4551 11.8606 10.6789 11.6367 10.9551 11.6367V11.1367V10.6367C10.1267 10.6367 9.45508 11.3083 9.45508 12.1367H9.95508ZM10.9551 11.1367V11.6367H15.6826V11.1367V10.6367H10.9551V11.1367ZM15.6826 6.40918L15.6823 6.90918C15.9586 6.90935 16.1826 7.13355 16.1826 7.40922L16.6826 7.40918L17.1826 7.40914C17.1825 6.58073 16.5105 5.90968 15.6829 5.90918L15.6826 6.40918ZM16.6826 7.40918H16.1826C16.1826 7.68481 15.9587 7.90901 15.6823 7.90918L15.6826 8.40918L15.6829 8.90918C16.5105 8.90868 17.1826 8.2377 17.1826 7.40918H16.6826ZM15.6826 8.40918V7.90918H10.9551V8.40918V8.90918H15.6826V8.40918ZM10.9551 8.40918V7.90918C10.6789 7.90918 10.4551 7.68532 10.4551 7.40918H9.95508H9.45508C9.45508 8.23761 10.1267 8.90918 10.9551 8.90918V8.40918ZM9.95508 7.40918L10.4551 7.40922C10.4551 7.13304 10.679 6.90918 10.9551 6.90918V6.40918V5.90918C10.1266 5.90918 9.45515 6.58083 9.45508 7.40914L9.95508 7.40918ZM10.9551 6.40918V6.90918H15.6826V6.40918V5.90918H10.9551V6.40918Z" fill="white"/>
</svg>
