<svg width="45" height="45" viewBox="0 0 45 45" fill="none" xmlns="http://www.w3.org/2000/svg">
<path d="M41.0076 30.2593C39.7323 33.2759 37.7378 35.9342 35.1982 38.0017C32.6587 40.0691 29.6515 41.4828 26.4396 42.1191C23.2277 42.7555 19.9089 42.5951 16.7733 41.652C13.6376 40.7089 10.7807 39.0118 8.45226 36.7091C6.1238 34.4063 4.3947 31.5681 3.41614 28.4425C2.43758 25.3169 2.23934 21.9991 2.83877 18.7792C3.43819 15.5592 4.81702 12.5352 6.85471 9.97145C8.8924 7.40769 11.5269 5.38229 14.5279 4.0723M40.5866 22.4593C41.6931 22.4593 42.6012 21.559 42.4909 20.4582C42.0288 15.8548 39.9894 11.5528 36.7185 8.28171C33.4477 5.01059 29.1466 2.97156 24.5445 2.51031C23.442 2.40003 22.544 3.30835 22.544 4.41518V20.4562C22.544 20.988 22.7552 21.498 23.1311 21.874C23.507 22.2501 24.0169 22.4613 24.5485 22.4613L40.5866 22.4593Z" stroke="white" stroke-width="5" stroke-linecap="round" stroke-linejoin="round"/>
</svg>
