<svg width="49" height="45" viewBox="0 0 49 45" fill="none" xmlns="http://www.w3.org/2000/svg">
<path d="M20.1 22.5H28.9M20.1 13.6111H28.9M28.9 42.5V35.8333C28.9 34.6546 28.4364 33.5241 27.6113 32.6906C26.7861 31.8571 25.667 31.3889 24.5 31.3889C23.333 31.3889 22.2139 31.8571 21.3887 32.6906C20.5636 33.5241 20.1 34.6546 20.1 35.8333V42.5M11.3 18.0556H6.9C5.73305 18.0556 4.61389 18.5238 3.78873 19.3573C2.96357 20.1908 2.5 21.3213 2.5 22.5V38.0556C2.5 39.2343 2.96357 40.3648 3.78873 41.1983C4.61389 42.0317 5.73305 42.5 6.9 42.5H42.1C43.267 42.5 44.3861 42.0317 45.2113 41.1983C46.0364 40.3648 46.5 39.2343 46.5 38.0556V15.8333C46.5 14.6546 46.0364 13.5241 45.2113 12.6906C44.3861 11.8571 43.267 11.3889 42.1 11.3889H37.7M11.3 42.5V6.94444C11.3 5.7657 11.7636 4.63524 12.5887 3.80175C13.4139 2.96825 14.533 2.5 15.7 2.5H33.3C34.467 2.5 35.5861 2.96825 36.4113 3.80175C37.2364 4.63524 37.7 5.7657 37.7 6.94444V42.5" stroke="white" stroke-width="5" stroke-linecap="round" stroke-linejoin="round"/>
</svg>
