<svg width="20" height="20" viewBox="0 0 20 20" fill="none" xmlns="http://www.w3.org/2000/svg">
<path d="M5.12988 18H1.73438V7.13184H5.12988V18ZM14.4062 7.0293C16.8222 7.0293 18.7148 8.59505 18.7148 11.957V18H14.8623V12.3789C14.8623 10.9089 14.2635 9.90143 12.9365 9.90137C11.9225 9.90137 11.3572 10.582 11.0986 11.2354C11.0034 11.4667 11.0176 11.7936 11.0176 12.127V18H7.19922C7.1993 17.9838 7.24678 8.03876 7.19922 7.13184H11.0176V8.83984C11.2422 8.09124 12.4599 7.02935 14.4062 7.0293ZM3.36133 2C4.61314 2.0002 5.38178 2.80981 5.40918 3.88477C5.41598 4.93273 4.62006 5.77035 3.34082 5.77051H3.31348C2.08166 5.77051 1.28516 4.93964 1.28516 3.88477C1.28536 2.80967 2.10925 2 3.36133 2Z" fill="white"/>
</svg>
