<svg width="20" height="20" viewBox="0 0 20 20" fill="none" xmlns="http://www.w3.org/2000/svg">
<path d="M12.7451 2.8457C15.1803 2.84596 17.1543 4.8206 17.1543 7.25586V12.7451C17.154 15.1801 15.1801 17.154 12.7451 17.1543H7.25586C4.82062 17.1543 2.846 15.1802 2.8457 12.7451V7.25586C2.8457 4.82044 4.82044 2.8457 7.25586 2.8457H12.7451ZM7.25586 4.3457C5.64887 4.3457 4.3457 5.64887 4.3457 7.25586V12.7451C4.346 14.3518 5.64906 15.6543 7.25586 15.6543H12.7451C14.3517 15.654 15.654 14.3517 15.6543 12.7451V7.25586C15.6543 5.64903 14.3519 4.34596 12.7451 4.3457H7.25586ZM10 6.50488C11.9299 6.50506 13.494 8.07007 13.4941 10C13.4941 10.9267 13.126 11.8154 12.4707 12.4707C11.8154 13.126 10.9267 13.4941 10 13.4941C8.07004 13.494 6.50506 11.9299 6.50488 10C6.50501 8.07002 8.07001 6.50499 10 6.50488ZM10 8.00488C8.89844 8.00499 8.00501 8.89845 8.00488 10C8.00506 11.1015 8.89847 11.994 10 11.9941C10.5289 11.9941 11.0361 11.7842 11.4102 11.4102C11.7842 11.0361 11.9941 10.5289 11.9941 10C11.994 8.89849 11.1015 8.00506 10 8.00488ZM13.6592 5.13281C14.326 5.13283 14.8672 5.67397 14.8672 6.34082C14.8669 7.00739 14.3258 7.54783 13.6592 7.54785C12.9927 7.54762 12.4525 7.00726 12.4521 6.34082C12.4521 5.6741 12.9925 5.13305 13.6592 5.13281Z" fill="white"/>
</svg>
