<svg width="34" height="41" viewBox="0 0 34 41" fill="none" xmlns="http://www.w3.org/2000/svg">
<path d="M29.2725 1C30.0198 1.00008 30.7372 1.29678 31.2656 1.8252C31.794 2.35369 32.0908 3.07105 32.0908 3.81836V36.5459C32.0907 37.293 31.7939 38.0097 31.2656 38.5381C30.7372 39.0665 30.0198 39.3632 29.2725 39.3633H6.5459C5.07526 39.3633 3.66398 38.7791 2.62402 37.7393C1.64911 36.7643 1.07478 35.4634 1.00684 34.0928L1 33.8184V6.5459C1 5.07515 1.58405 3.664 2.62402 2.62402C3.66399 1.58409 5.07518 1 6.5459 1H29.2725ZM6.5459 30.2725C5.60561 30.2725 4.70298 30.6467 4.03809 31.3115C3.37341 31.9764 3 32.8782 3 33.8184L3.00391 33.9941C3.04745 34.8702 3.41492 35.7019 4.03809 36.3252C4.70297 36.9899 5.6057 37.3633 6.5459 37.3633H29.2725C29.4894 37.3632 29.6982 37.2774 29.8516 37.124C30.0047 36.9708 30.0907 36.7626 30.0908 36.5459V30.2725H6.5459ZM6.5459 3C5.60561 3 4.70298 3.37322 4.03809 4.03809C3.37318 4.70299 3 5.60559 3 6.5459V29.5547C3.99176 28.7299 5.24542 28.2725 6.5459 28.2725H30.0908V3.81836C30.0908 3.60147 30.0049 3.39267 29.8516 3.23926C29.6982 3.08592 29.4893 3.00008 29.2725 3H6.5459ZM16.5449 8.27246C18.7388 8.27247 20.8431 9.14407 22.3945 10.6953C23.9459 12.2467 24.8183 14.351 24.8184 16.5449V20.1816L24.8037 20.4697C24.6594 21.8908 23.459 22.9998 22 23C20.4436 23 19.1817 21.738 19.1816 20.1816C19.1817 18.6253 20.4436 17.3633 22 17.3633C22.2846 17.3633 22.5593 17.4059 22.8184 17.4844V16.5449C22.8183 14.8814 22.1567 13.2857 20.9805 12.1094C19.8041 10.9332 18.2084 10.2725 16.5449 10.2725C14.8814 10.2725 13.2857 10.9331 12.1094 12.1094C10.9331 13.2857 10.2726 14.8814 10.2725 16.5449V17.4844C10.5315 17.4059 10.8062 17.3633 11.0908 17.3633C12.6471 17.3634 13.9091 18.6254 13.9092 20.1816C13.9091 21.7379 12.6471 22.9999 11.0908 23C9.63164 23 8.43143 21.8909 8.28711 20.4697L8.27246 20.1816V16.5449C8.27255 14.351 9.14396 12.2467 10.6953 10.6953C12.2467 9.14398 14.351 8.27253 16.5449 8.27246ZM11.0908 19.3633C10.639 19.3633 10.2726 19.7299 10.2725 20.1816C10.2726 20.6334 10.639 21 11.0908 21C11.5425 20.9999 11.9091 20.6334 11.9092 20.1816C11.9091 19.7299 11.5425 19.3634 11.0908 19.3633ZM22 19.3633C21.5482 19.3633 21.1817 19.7299 21.1816 20.1816C21.1817 20.6334 21.5482 21 22 21C22.4517 20.9998 22.8183 20.6333 22.8184 20.1816C22.8183 19.73 22.4517 19.3634 22 19.3633Z" fill="white"/>
<path d="M29.2725 1L29.2726 0H29.2725V1ZM31.2656 1.8252L31.9728 1.11817L31.9727 1.11807L31.2656 1.8252ZM32.0908 36.5459L33.0908 36.5461V36.5459H32.0908ZM31.2656 38.5381L31.9727 39.2452L31.9728 39.2451L31.2656 38.5381ZM29.2725 39.3633V40.3633H29.2726L29.2725 39.3633ZM2.62402 37.7393L1.91688 38.4463L1.91696 38.4464L2.62402 37.7393ZM1.00684 34.0928L0.00714606 34.1177C0.0073505 34.1259 0.00765598 34.1341 0.00806248 34.1423L1.00684 34.0928ZM1 33.8184H0C0 33.8267 0.000103414 33.835 0.000310123 33.8433L1 33.8184ZM1 6.5459H0H1ZM2.62402 2.62402L1.91693 1.91691L1.91692 1.91692L2.62402 2.62402ZM6.5459 1V0V1ZM6.5459 30.2725V29.2725V30.2725ZM4.03809 31.3115L3.331 30.6044L3.33088 30.6045L4.03809 31.3115ZM3 33.8184H2C2 33.8258 2.00008 33.8332 2.00025 33.8406L3 33.8184ZM3.00391 33.9941L2.00415 34.0164C2.00436 34.0255 2.00468 34.0346 2.00514 34.0438L3.00391 33.9941ZM4.03809 36.3252L3.33093 37.0323L3.33105 37.0324L4.03809 36.3252ZM29.2725 37.3633V38.3633H29.2728L29.2725 37.3633ZM29.8516 37.124L30.5587 37.8311L30.5589 37.8309L29.8516 37.124ZM30.0908 36.5459L31.0908 36.5467V36.5459H30.0908ZM30.0908 30.2725H31.0908C31.0908 29.7202 30.6431 29.2725 30.0908 29.2725V30.2725ZM6.5459 3V2V3ZM4.03809 4.03809L3.331 3.33096L3.33098 3.33098L4.03809 4.03809ZM3 6.5459H2H3ZM3 29.5547H2C2 29.9425 2.22425 30.2954 2.57538 30.4601C2.92652 30.6247 3.34121 30.5715 3.6394 30.3236L3 29.5547ZM6.5459 28.2725V27.2725V28.2725ZM30.0908 28.2725V29.2725C30.6431 29.2725 31.0908 28.8247 31.0908 28.2725H30.0908ZM29.8516 3.23926L30.559 2.53244L30.5586 2.5321L29.8516 3.23926ZM29.2725 3L29.2728 2H29.2725V3ZM16.5449 8.27246L16.5449 7.27246H16.5449L16.5449 8.27246ZM22.3945 10.6953L23.1016 9.98821L23.1016 9.98817L22.3945 10.6953ZM24.8184 16.5449H25.8184V16.5449L24.8184 16.5449ZM24.8184 20.1816L25.8171 20.2324C25.8179 20.2155 25.8184 20.1986 25.8184 20.1816H24.8184ZM24.8037 20.4697L25.7986 20.5708C25.8003 20.554 25.8016 20.5373 25.8024 20.5205L24.8037 20.4697ZM22 23V24H22.0001L22 23ZM19.1816 20.1816L18.1816 20.1816V20.1817L19.1816 20.1816ZM22 17.3633L22.0001 16.3633H22V17.3633ZM22.8184 17.4844L22.5283 18.4414C22.8313 18.5332 23.1599 18.4762 23.4141 18.2875C23.6684 18.0989 23.8184 17.801 23.8184 17.4844H22.8184ZM22.8184 16.5449H23.8184V16.5449L22.8184 16.5449ZM20.9805 12.1094L21.6876 11.4023L21.6875 11.4022L20.9805 12.1094ZM16.5449 10.2725L16.5449 9.27246H16.5449L16.5449 10.2725ZM12.1094 12.1094L11.4023 11.4023L11.4023 11.4023L12.1094 12.1094ZM10.2725 16.5449L9.27246 16.5449V16.5449H10.2725ZM10.2725 17.4844H9.27246C9.27246 17.801 9.42238 18.0989 9.67664 18.2875C9.9309 18.4761 10.2595 18.5332 10.5625 18.4414L10.2725 17.4844ZM11.0908 17.3633L11.0909 16.3633H11.0908V17.3633ZM13.9092 20.1816L14.9092 20.1817V20.1816L13.9092 20.1816ZM11.0908 23V24H11.0909L11.0908 23ZM8.28711 20.4697L7.2884 20.5205C7.28925 20.5373 7.29053 20.554 7.29223 20.5708L8.28711 20.4697ZM8.27246 20.1816H7.27246C7.27246 20.1986 7.27289 20.2155 7.27375 20.2324L8.27246 20.1816ZM8.27246 16.5449L7.27246 16.5449V16.5449H8.27246ZM10.6953 10.6953L9.98821 9.9882L9.98821 9.98821L10.6953 10.6953ZM11.0908 19.3633L11.0911 18.3633H11.0908V19.3633ZM10.2725 20.1816L9.27246 20.1814V20.1819L10.2725 20.1816ZM11.0908 21V22H11.0911L11.0908 21ZM11.9092 20.1816L12.9092 20.1819V20.1814L11.9092 20.1816ZM22 19.3633L22.0004 18.3633H22V19.3633ZM21.1816 20.1816L20.1816 20.1814V20.1819L21.1816 20.1816ZM22 21V22H22.0004L22 21ZM22.8184 20.1816L23.8184 20.1819V20.1814L22.8184 20.1816ZM29.2725 1L29.2724 2C29.7549 2.00005 30.2179 2.19173 30.5585 2.53232L31.2656 1.8252L31.9727 1.11807C31.2564 0.401838 30.2846 0.000107348 29.2726 0L29.2725 1ZM31.2656 1.8252L30.5584 2.53222C30.8991 2.87301 31.0908 3.33598 31.0908 3.81836H32.0908H33.0908C33.0908 2.80611 32.6888 1.83436 31.9728 1.11817L31.2656 1.8252ZM32.0908 3.81836H31.0908V36.5459H32.0908H33.0908V3.81836H32.0908ZM32.0908 36.5459L31.0908 36.5457C31.0907 37.0278 30.8992 37.4903 30.5585 37.831L31.2656 38.5381L31.9728 39.2451C32.6886 38.5292 33.0906 37.5582 33.0908 36.5461L32.0908 36.5459ZM31.2656 38.5381L30.5585 37.831C30.2179 38.1716 29.755 38.3632 29.2724 38.3633L29.2725 39.3633L29.2726 40.3633C30.2846 40.3632 31.2564 39.9615 31.9727 39.2452L31.2656 38.5381ZM29.2725 39.3633V38.3633H6.5459V39.3633V40.3633H29.2725V39.3633ZM6.5459 39.3633V38.3633C5.34031 38.3633 4.1834 37.8843 3.33109 37.0321L2.62402 37.7393L1.91696 38.4464C3.14455 39.6739 4.81022 40.3633 6.5459 40.3633V39.3633ZM2.62402 37.7393L3.33116 37.0322C2.53211 36.2331 2.06131 35.1668 2.00561 34.0433L1.00684 34.0928L0.00806248 34.1423C0.0882605 35.76 0.766102 37.2954 1.91688 38.4463L2.62402 37.7393ZM1.00684 34.0928L2.00653 34.0679L1.99969 33.7935L1 33.8184L0.000310123 33.8433L0.00714606 34.1177L1.00684 34.0928ZM1 33.8184H2V6.5459H1H0V33.8184H1ZM1 6.5459H2C2 5.34015 2.47885 4.18341 3.33113 3.33113L2.62402 2.62402L1.91692 1.91692C0.689252 3.14458 0 4.81015 0 6.5459H1ZM2.62402 2.62402L3.33112 3.33114C4.18341 2.47888 5.34019 2 6.5459 2V1V0C4.81017 0 3.14457 0.689298 1.91693 1.91691L2.62402 2.62402ZM6.5459 1V2H29.2725V1V0H6.5459V1ZM6.5459 30.2725V29.2725C5.34017 29.2725 4.18326 29.7522 3.331 30.6044L4.03809 31.3115L4.74518 32.0186C5.2227 31.5411 5.87106 31.2725 6.5459 31.2725V30.2725ZM4.03809 31.3115L3.33088 30.6045C2.47869 31.4569 2 32.6131 2 33.8184H3H4C4 33.1433 4.26812 32.4958 4.74529 32.0185L4.03809 31.3115ZM3 33.8184L2.00025 33.8406L2.00415 34.0164L3.00391 33.9941L4.00366 33.9719L3.99975 33.7961L3 33.8184ZM3.00391 33.9941L2.00514 34.0438C2.06097 35.1671 2.53207 36.2333 3.33093 37.0323L4.03809 36.3252L4.74524 35.6181C4.29778 35.1706 4.03393 34.5734 4.00267 33.9445L3.00391 33.9941ZM4.03809 36.3252L3.33105 37.0324C4.18373 37.8849 5.34091 38.3633 6.5459 38.3633V37.3633V36.3633C5.87049 36.3633 5.2222 36.095 4.74513 35.618L4.03809 36.3252ZM6.5459 37.3633V38.3633H29.2725V37.3633V36.3633H6.5459V37.3633ZM29.2725 37.3633L29.2728 38.3633C29.7525 38.3631 30.2162 38.1736 30.5587 37.8311L29.8516 37.124L29.1445 36.4169C29.1802 36.3812 29.2262 36.3633 29.2721 36.3633L29.2725 37.3633ZM29.8516 37.124L30.5589 37.8309C30.9001 37.4895 31.0905 37.0271 31.0908 36.5467L30.0908 36.5459L29.0908 36.5451C29.0909 36.4981 29.1094 36.452 29.1442 36.4172L29.8516 37.124ZM30.0908 36.5459H31.0908V30.2725H30.0908H29.0908V36.5459H30.0908ZM30.0908 30.2725V29.2725H6.5459V30.2725V31.2725H30.0908V30.2725ZM6.5459 3V2C5.34087 2 4.18376 2.47824 3.331 3.33096L4.03809 4.03809L4.74518 4.74521C5.22221 4.2682 5.87035 4 6.5459 4V3ZM4.03809 4.03809L3.33098 3.33098C2.47819 4.18377 2 5.34086 2 6.5459H3H4C4 5.87031 4.26818 5.22221 4.74519 4.74519L4.03809 4.03809ZM3 6.5459H2V29.5547H3H4V6.5459H3ZM3 29.5547L3.6394 30.3236C4.45253 29.6474 5.48025 29.2725 6.5459 29.2725V28.2725V27.2725C5.01058 27.2725 3.531 27.8125 2.3606 28.7858L3 29.5547ZM6.5459 28.2725V29.2725H30.0908V28.2725V27.2725H6.5459V28.2725ZM30.0908 28.2725H31.0908V3.81836H30.0908H29.0908V28.2725H30.0908ZM30.0908 3.81836H31.0908C31.0908 3.33788 30.9006 2.87441 30.559 2.53244L29.8516 3.23926L29.1442 3.94607C29.1091 3.91093 29.0908 3.86507 29.0908 3.81836H30.0908ZM29.8516 3.23926L30.5586 2.5321C30.2162 2.18977 29.7525 2.00017 29.2728 2L29.2725 3L29.2721 4C29.2261 3.99998 29.1802 3.98207 29.1445 3.94642L29.8516 3.23926ZM29.2725 3V2H6.5459V3V4H29.2725V3ZM16.5449 8.27246L16.5449 9.27246C18.4736 9.27247 20.3236 10.0387 21.6875 11.4025L22.3945 10.6953L23.1016 9.98817C21.3627 8.24942 19.004 7.27247 16.5449 7.27246L16.5449 8.27246ZM22.3945 10.6953L21.6874 11.4024C23.0514 12.7664 23.8183 14.6164 23.8184 16.545L24.8184 16.5449L25.8184 16.5449C25.8183 14.0855 24.8404 11.7269 23.1016 9.98821L22.3945 10.6953ZM24.8184 16.5449H23.8184V20.1816H24.8184H25.8184V16.5449H24.8184ZM24.8184 20.1816L23.8196 20.1309L23.805 20.4189L24.8037 20.4697L25.8024 20.5205L25.8171 20.2324L24.8184 20.1816ZM24.8037 20.4697L23.8088 20.3687C23.7158 21.2844 22.9407 21.9999 21.9999 22L22 23L22.0001 24C23.9774 23.9998 25.603 22.4972 25.7986 20.5708L24.8037 20.4697ZM22 23V22C20.996 22 20.1817 21.1858 20.1816 20.1816L19.1816 20.1816L18.1816 20.1817C18.1818 22.2902 19.8913 24 22 24V23ZM19.1816 20.1816L20.1816 20.1817C20.1817 19.1775 20.996 18.3633 22 18.3633V17.3633V16.3633C19.8913 16.3633 18.1818 18.073 18.1816 20.1816L19.1816 20.1816ZM22 17.3633L21.9999 18.3633C22.1844 18.3633 22.3615 18.3908 22.5283 18.4414L22.8184 17.4844L23.1084 16.5274C22.7572 16.4209 22.3848 16.3633 22.0001 16.3633L22 17.3633ZM22.8184 17.4844H23.8184V16.5449H22.8184H21.8184V17.4844H22.8184ZM22.8184 16.5449L23.8184 16.5449C23.8183 14.616 23.0512 12.7659 21.6876 11.4023L20.9805 12.1094L20.2734 12.8165C21.2623 13.8054 21.8183 15.1469 21.8184 16.545L22.8184 16.5449ZM20.9805 12.1094L21.6875 11.4022C20.3236 10.0385 18.4735 9.27247 16.5449 9.27246L16.5449 10.2725L16.5449 11.2725C17.9433 11.2725 19.2847 11.8279 20.2734 12.8165L20.9805 12.1094ZM16.5449 10.2725L16.5449 9.27246C14.6164 9.27254 12.7662 10.0384 11.4023 11.4023L12.1094 12.1094L12.8165 12.8165C13.8051 11.8279 15.1465 11.2725 16.545 11.2725L16.5449 10.2725ZM12.1094 12.1094L11.4023 11.4023C10.0383 12.7662 9.27257 14.6164 9.27246 16.5449L10.2725 16.5449L11.2725 16.545C11.2725 15.1465 11.8279 13.8051 12.8165 12.8165L12.1094 12.1094ZM10.2725 16.5449H9.27246V17.4844H10.2725H11.2725V16.5449H10.2725ZM10.2725 17.4844L10.5625 18.4414C10.7294 18.3908 10.9065 18.3633 11.0908 18.3633V17.3633V16.3633C10.7059 16.3633 10.3335 16.421 9.98247 16.5273L10.2725 17.4844ZM11.0908 17.3633L11.0907 18.3633C12.0948 18.3634 12.9091 19.1777 12.9092 20.1817L13.9092 20.1816L14.9092 20.1816C14.909 18.073 13.1994 16.3634 11.0909 16.3633L11.0908 17.3633ZM13.9092 20.1816L12.9092 20.1816C12.9091 21.1856 12.0948 21.9999 11.0907 22L11.0908 23L11.0909 24C13.1994 23.9998 14.909 22.2902 14.9092 20.1817L13.9092 20.1816ZM11.0908 23V22C10.1501 22 9.375 21.2846 9.28199 20.3687L8.28711 20.4697L7.29223 20.5708C7.48785 22.4972 9.11319 24 11.0908 24V23ZM8.28711 20.4697L9.28582 20.4189L9.27117 20.1309L8.27246 20.1816L7.27375 20.2324L7.2884 20.5205L8.28711 20.4697ZM8.27246 20.1816H9.27246V16.5449H8.27246H7.27246V20.1816H8.27246ZM8.27246 16.5449L9.27246 16.545C9.27254 14.6161 10.0387 12.7662 11.4024 11.4024L10.6953 10.6953L9.98821 9.98821C8.24926 11.7271 7.27257 14.0858 7.27246 16.5449L8.27246 16.5449ZM10.6953 10.6953L11.4024 11.4024C12.7662 10.0387 14.6162 9.27252 16.545 9.27246L16.5449 8.27246L16.5449 7.27246C14.0858 7.27254 11.7272 8.24929 9.98821 9.9882L10.6953 10.6953ZM11.0908 19.3633V18.3633C10.0865 18.3633 9.27267 19.1777 9.27246 20.1814L10.2725 20.1816L11.2725 20.1819C11.2724 20.282 11.1915 20.3633 11.0908 20.3633V19.3633ZM10.2725 20.1816L9.27246 20.1819C9.27267 21.1855 10.0865 22 11.0908 22V21V20C11.1915 20 11.2724 20.0813 11.2725 20.1814L10.2725 20.1816ZM11.0908 21L11.0911 22C12.0948 21.9997 12.909 21.1857 12.9092 20.1819L11.9092 20.1816L10.9092 20.1814C10.9092 20.081 10.9902 20 11.0906 20L11.0908 21ZM11.9092 20.1816L12.9092 20.1814C12.909 19.1776 12.0948 18.3635 11.0911 18.3633L11.0908 19.3633L11.0906 20.3633C10.9902 20.3633 10.9092 20.2823 10.9092 20.1819L11.9092 20.1816ZM22 19.3633V18.3633C20.9957 18.3633 20.1819 19.1777 20.1816 20.1814L21.1816 20.1816L22.1816 20.1819C22.1816 20.282 22.1007 20.3633 22 20.3633V19.3633ZM21.1816 20.1816L20.1816 20.1819C20.1819 21.1855 20.9957 22 22 22V21V20C22.1007 20 22.1816 20.0813 22.1816 20.1814L21.1816 20.1816ZM22 21L22.0004 22C23.0039 21.9996 23.8181 21.1858 23.8184 20.1819L22.8184 20.1816L21.8184 20.1814C21.8184 20.0809 21.8995 20 21.9996 20L22 21ZM22.8184 20.1816L23.8184 20.1814C23.8181 19.1775 23.0039 18.3636 22.0004 18.3633L22 19.3633L21.9996 20.3633C21.8995 20.3632 21.8184 20.2824 21.8184 20.1819L22.8184 20.1816Z" fill="white"/>
</svg>
