<svg width="34" height="34" viewBox="0 0 34 34" fill="none" xmlns="http://www.w3.org/2000/svg">
<path d="M16.7305 0.5C25.694 0.500132 32.9598 7.76697 32.96 16.7305C32.9598 25.694 25.694 32.9598 16.7305 32.96C7.76697 32.9598 0.500132 25.694 0.5 16.7305C0.500142 7.76697 7.76697 0.500142 16.7305 0.5ZM16.7305 2.5C8.87154 2.50014 2.50014 8.87154 2.5 16.7305C2.50013 24.5894 8.87154 30.9598 16.7305 30.96C24.5894 30.9598 30.9598 24.5894 30.96 16.7305C30.9598 8.87154 24.5894 2.50013 16.7305 2.5ZM16.7305 6.59277C22.3293 6.59299 26.8689 11.1317 26.8691 16.7305C26.8689 22.3293 22.3293 26.8689 16.7305 26.8691C11.1317 26.8689 6.59299 22.3293 6.59277 16.7305C6.59301 11.1317 11.1317 6.59301 16.7305 6.59277ZM16.7305 8.59277C12.2362 8.59301 8.59301 12.2362 8.59277 16.7305C8.59299 21.2247 12.2362 24.8689 16.7305 24.8691C21.2247 24.8689 24.8689 21.2247 24.8691 16.7305C24.8689 12.2362 21.2247 8.59299 16.7305 8.59277ZM16.7305 12.6846C18.9649 12.6846 20.7763 14.496 20.7764 16.7305C20.7763 18.965 18.965 20.7763 16.7305 20.7764C14.496 20.7763 12.6846 18.9649 12.6846 16.7305C12.6846 14.496 14.496 12.6846 16.7305 12.6846ZM16.7305 14.6846C15.6006 14.6846 14.6846 15.6006 14.6846 16.7305C14.6846 17.8604 15.6006 18.7763 16.7305 18.7764C17.8604 18.7763 18.7763 17.8604 18.7764 16.7305C18.7763 15.6006 17.8604 14.6846 16.7305 14.6846Z" fill="white"/>
<path d="M16.7305 0.5L16.7305 0H16.7305L16.7305 0.5ZM32.96 16.7305L33.46 16.7305V16.7305L32.96 16.7305ZM16.7305 32.96L16.7305 33.46H16.7305L16.7305 32.96ZM0.5 16.7305L0 16.7305V16.7305L0.5 16.7305ZM16.7305 2.5L16.7305 2H16.7305L16.7305 2.5ZM2.5 16.7305L2 16.7305V16.7305L2.5 16.7305ZM16.7305 30.96L16.7305 31.46H16.7305L16.7305 30.96ZM30.96 16.7305L31.46 16.7305V16.7305L30.96 16.7305ZM16.7305 6.59277L16.7305 6.09277H16.7304L16.7305 6.59277ZM26.8691 16.7305L27.3691 16.7305V16.7304L26.8691 16.7305ZM16.7305 26.8691L16.7304 27.3691H16.7305L16.7305 26.8691ZM6.59277 16.7305L6.09277 16.7304V16.7305L6.59277 16.7305ZM16.7305 8.59277L16.7305 8.09277H16.7304L16.7305 8.59277ZM8.59277 16.7305L8.09277 16.7304V16.7305L8.59277 16.7305ZM16.7305 24.8691L16.7304 25.3691H16.7305L16.7305 24.8691ZM24.8691 16.7305L25.3691 16.7305V16.7304L24.8691 16.7305ZM16.7305 12.6846L16.7305 12.1846H16.7305L16.7305 12.6846ZM20.7764 16.7305L21.2764 16.7305V16.7305L20.7764 16.7305ZM16.7305 20.7764L16.7305 21.2764H16.7305L16.7305 20.7764ZM12.6846 16.7305L12.1846 16.7305V16.7305L12.6846 16.7305ZM16.7305 14.6846L16.7305 14.1846H16.7304L16.7305 14.6846ZM14.6846 16.7305L14.1846 16.7304V16.7305L14.6846 16.7305ZM16.7305 18.7764L16.7304 19.2764H16.7305L16.7305 18.7764ZM18.7764 16.7305L19.2764 16.7305V16.7304L18.7764 16.7305ZM16.7305 0.5L16.7305 1C25.4178 1.00013 32.4598 8.04307 32.46 16.7305L32.96 16.7305L33.46 16.7305C33.4598 7.49086 25.9702 0.000136286 16.7305 0L16.7305 0.5ZM32.96 16.7305L32.46 16.7305C32.4598 25.4178 25.4178 32.4598 16.7305 32.46L16.7305 32.96L16.7305 33.46C25.9701 33.4598 33.4598 25.9701 33.46 16.7305L32.96 16.7305ZM16.7305 32.96L16.7305 32.46C8.04307 32.4598 1.00013 25.4178 1 16.7305L0.5 16.7305L0 16.7305C0.000136286 25.9702 7.49086 33.4598 16.7305 33.46L16.7305 32.96ZM0.5 16.7305L1 16.7305C1.00014 8.04312 8.04312 1.00014 16.7305 1L16.7305 0.5L16.7305 0C7.49083 0.000146776 0.000146776 7.49083 0 16.7305L0.5 16.7305ZM16.7305 2.5L16.7305 2C8.5954 2.00015 2.00015 8.5954 2 16.7305L2.5 16.7305L3 16.7305C3.00014 9.14769 9.14769 3.00014 16.7305 3L16.7305 2.5ZM2.5 16.7305L2 16.7305C2.00014 24.8656 8.59544 31.4598 16.7305 31.46L16.7305 30.96L16.7305 30.46C9.14763 30.4598 3.00013 24.3132 3 16.7305L2.5 16.7305ZM16.7305 30.96L16.7305 31.46C24.8656 31.4598 31.4598 24.8656 31.46 16.7305L30.96 16.7305L30.46 16.7305C30.4598 24.3133 24.3133 30.4598 16.7305 30.46L16.7305 30.96ZM30.96 16.7305L31.46 16.7305C31.4598 8.59544 24.8656 2.00014 16.7305 2L16.7305 2.5L16.7305 3C24.3132 3.00013 30.4598 9.14763 30.46 16.7305L30.96 16.7305ZM16.7305 6.59277L16.7304 7.09277C22.0532 7.09298 26.3689 11.4079 26.3691 16.7305L26.8691 16.7305L27.3691 16.7304C27.3689 10.8555 22.6054 6.09301 16.7305 6.09277L16.7305 6.59277ZM26.8691 16.7305L26.3691 16.7304C26.3689 22.0531 22.0531 26.3689 16.7304 26.3691L16.7305 26.8691L16.7305 27.3691C22.6054 27.3689 27.3689 22.6054 27.3691 16.7305L26.8691 16.7305ZM16.7305 26.8691L16.7305 26.3691C11.4079 26.3689 7.09298 22.0532 7.09277 16.7304L6.59277 16.7305L6.09277 16.7305C6.09301 22.6054 10.8555 27.3689 16.7304 27.3691L16.7305 26.8691ZM6.59277 16.7305L7.09277 16.7305C7.093 11.4078 11.4078 7.093 16.7305 7.09277L16.7305 6.59277L16.7304 6.09277C10.8555 6.09302 6.09302 10.8555 6.09277 16.7304L6.59277 16.7305ZM16.7305 8.59277L16.7304 8.09277C11.9601 8.09303 8.09303 11.9601 8.09277 16.7304L8.59277 16.7305L9.09277 16.7305C9.093 12.5124 12.5124 9.093 16.7305 9.09277L16.7305 8.59277ZM8.59277 16.7305L8.09277 16.7305C8.09301 21.5008 11.96 25.3689 16.7304 25.3691L16.7305 24.8691L16.7305 24.3691C12.5125 24.3689 9.09298 20.9486 9.09277 16.7304L8.59277 16.7305ZM16.7305 24.8691L16.7305 25.3691C21.5009 25.3689 25.3689 21.5009 25.3691 16.7305L24.8691 16.7305L24.3691 16.7304C24.3689 20.9486 20.9486 24.3689 16.7304 24.3691L16.7305 24.8691ZM24.8691 16.7305L25.3691 16.7304C25.3689 11.96 21.5008 8.09301 16.7305 8.09277L16.7305 8.59277L16.7304 9.09277C20.9486 9.09298 24.3689 12.5125 24.3691 16.7305L24.8691 16.7305ZM16.7305 12.6846L16.7305 13.1846C18.6888 13.1846 20.2763 14.7721 20.2764 16.7305L20.7764 16.7305L21.2764 16.7305C21.2763 14.2199 19.2411 12.1846 16.7305 12.1846L16.7305 12.6846ZM20.7764 16.7305L20.2764 16.7305C20.2763 18.6888 18.6888 20.2763 16.7305 20.2764L16.7305 20.7764L16.7305 21.2764C19.2411 21.2763 21.2763 19.2411 21.2764 16.7305L20.7764 16.7305ZM16.7305 20.7764L16.7305 20.2764C14.7721 20.2763 13.1846 18.6888 13.1846 16.7305L12.6846 16.7305L12.1846 16.7305C12.1846 19.2411 14.2199 21.2763 16.7305 21.2764L16.7305 20.7764ZM12.6846 16.7305L13.1846 16.7305C13.1846 14.7722 14.7722 13.1846 16.7305 13.1846L16.7305 12.6846L16.7305 12.1846C14.2199 12.1847 12.1847 14.2199 12.1846 16.7305L12.6846 16.7305ZM16.7305 14.6846L16.7304 14.1846C15.3244 14.1847 14.1847 15.3244 14.1846 16.7304L14.6846 16.7305L15.1846 16.7305C15.1846 15.8767 15.8767 15.1846 16.7305 15.1846L16.7305 14.6846ZM14.6846 16.7305L14.1846 16.7305C14.1846 18.1365 15.3244 19.2763 16.7304 19.2764L16.7305 18.7764L16.7305 18.2764C15.8767 18.2763 15.1846 17.5842 15.1846 16.7304L14.6846 16.7305ZM16.7305 18.7764L16.7305 19.2764C18.1365 19.2763 19.2763 18.1365 19.2764 16.7305L18.7764 16.7305L18.2764 16.7304C18.2763 17.5842 17.5842 18.2763 16.7304 18.2764L16.7305 18.7764ZM18.7764 16.7305L19.2764 16.7304C19.2763 15.3244 18.1365 14.1846 16.7305 14.1846L16.7305 14.6846L16.7304 15.1846C17.5842 15.1846 18.2763 15.8767 18.2764 16.7305L18.7764 16.7305Z" fill="white"/>
</svg>
