<svg width="30" height="27" viewBox="0 0 30 27" fill="none" xmlns="http://www.w3.org/2000/svg">
<path d="M12.167 0.5C16.4014 0.5 19.8349 3.93271 19.835 8.16699C19.8349 10.8666 18.4382 13.2384 16.3291 14.6045C17.8484 15.1847 19.2458 16.078 20.418 17.25C22.606 19.4379 23.8349 22.4059 23.835 25.5C23.8349 26.0522 23.3872 26.5 22.835 26.5C22.2828 26.4999 21.835 26.0522 21.835 25.5C21.8349 22.9363 20.8168 20.4769 19.0039 18.6641C17.1954 16.8558 14.7436 15.838 12.1865 15.833C12.1801 15.833 12.1734 15.834 12.167 15.834C12.1605 15.834 12.154 15.833 12.1475 15.833C9.59111 15.8384 7.14017 16.8564 5.33203 18.6641C3.5191 20.4769 2.5001 22.9363 2.5 25.5C2.49996 26.0522 2.05223 26.5 1.5 26.5C0.94774 26.5 0.50004 26.0523 0.5 25.5C0.500103 22.4059 1.72905 19.4379 3.91699 17.25C5.08888 16.0782 6.48588 15.1847 8.00488 14.6045C5.89646 13.2383 4.50006 10.8663 4.5 8.16699C4.50006 3.93291 7.93286 0.500322 12.167 0.5ZM21.374 1.92383C21.6557 1.44893 22.2692 1.29182 22.7441 1.57324C23.8281 2.21612 24.7375 3.11655 25.3906 4.19434C26.0437 5.27208 26.421 6.49461 26.4893 7.75293C26.5574 9.01118 26.314 10.2672 25.7812 11.4092C25.4239 12.175 24.941 12.8712 24.3594 13.4766C26.8955 15.8254 29.1678 19.8369 29.168 24.167C29.1679 24.7192 28.7202 25.167 28.168 25.167C27.6159 25.1668 27.168 24.7191 27.168 24.167C27.1678 20.033 24.6872 16.1403 22.2344 14.3008C21.9827 14.112 21.8342 13.8155 21.834 13.501C21.834 13.1863 21.9827 12.8891 22.2344 12.7002C22.9793 12.1413 23.575 11.4074 23.9688 10.5635C24.3625 9.71949 24.5425 8.79125 24.4922 7.86133C24.4418 6.93125 24.1624 6.02708 23.6797 5.23047C23.197 4.43415 22.5255 3.76903 21.7246 3.29395C21.2498 3.01232 21.0927 2.39878 21.374 1.92383ZM12.167 2.5C9.03731 2.50032 6.50006 5.0376 6.5 8.16699C6.50009 11.2898 9.02678 13.8222 12.1475 13.833H12.1875C15.3082 13.8221 17.8349 11.2898 17.835 8.16699C17.8349 5.03741 15.297 2.5 12.167 2.5Z" fill="white"/>
<path d="M12.167 0.5V0H12.167L12.167 0.5ZM19.835 8.16699L20.335 8.167V8.16699L19.835 8.16699ZM16.3291 14.6045L16.0573 14.1848C15.8993 14.2872 15.8121 14.4696 15.8319 14.6569C15.8516 14.8441 15.9748 15.0044 16.1507 15.0716L16.3291 14.6045ZM20.418 17.25L20.7715 16.8964L20.7715 16.8964L20.418 17.25ZM23.835 25.5L24.335 25.5V25.5L23.835 25.5ZM22.835 26.5L22.8348 27H22.835L22.835 26.5ZM21.835 25.5L21.335 25.5V25.5L21.835 25.5ZM19.0039 18.6641L19.3574 18.3105L19.3574 18.3105L19.0039 18.6641ZM12.1865 15.833L12.1875 15.333L12.1853 15.333L12.1865 15.833ZM12.167 15.834L12.167 16.334H12.167V15.834ZM12.1475 15.833L12.1487 15.333L12.1464 15.333L12.1475 15.833ZM5.33203 18.6641L4.97852 18.3105L4.97849 18.3105L5.33203 18.6641ZM2.5 25.5L3 25.5V25.5L2.5 25.5ZM1.5 26.5V27H1.50003L1.5 26.5ZM0.5 25.5L0 25.5V25.5L0.5 25.5ZM3.91699 17.25L3.56346 16.8964L3.56344 16.8964L3.91699 17.25ZM8.00488 14.6045L8.18328 15.0716C8.35915 15.0044 8.48239 14.8441 8.50213 14.6569C8.52187 14.4697 8.43477 14.2873 8.27677 14.1849L8.00488 14.6045ZM4.5 8.16699L4 8.16699V8.167L4.5 8.16699ZM21.374 1.92383L20.944 1.66878L20.9438 1.66903L21.374 1.92383ZM22.7441 1.57324L22.9992 1.14319L22.999 1.14308L22.7441 1.57324ZM25.3906 4.19434L25.8182 3.93521L25.8182 3.93519L25.3906 4.19434ZM26.4893 7.75293L26.9885 7.72589V7.72586L26.4893 7.75293ZM25.7812 11.4092L26.2344 11.6206L26.2344 11.6206L25.7812 11.4092ZM24.3594 13.4766L23.9988 13.1302C23.9058 13.2269 23.8557 13.357 23.8596 13.4911C23.8635 13.6253 23.9212 13.7522 24.0196 13.8434L24.3594 13.4766ZM29.168 24.167L29.668 24.1671V24.167L29.168 24.167ZM28.168 25.167L28.1678 25.667H28.168V25.167ZM27.168 24.167L26.668 24.167V24.1671L27.168 24.167ZM22.2344 14.3008L22.5344 13.9008L22.5344 13.9008L22.2344 14.3008ZM21.834 13.501L21.334 13.501V13.5013L21.834 13.501ZM22.2344 12.7002L21.9343 12.3003L21.9343 12.3003L22.2344 12.7002ZM23.9688 10.5635L24.4219 10.7749L24.4219 10.7749L23.9688 10.5635ZM24.4922 7.86133L24.9915 7.83431L24.9915 7.83426L24.4922 7.86133ZM23.6797 5.23047L24.1073 4.97133L24.1073 4.97129L23.6797 5.23047ZM21.7246 3.29395L21.9797 2.86391L21.9797 2.86389L21.7246 3.29395ZM12.167 2.5V2H12.1669L12.167 2.5ZM6.5 8.16699L6 8.16698V8.16701L6.5 8.16699ZM12.1475 13.833L12.1457 14.333H12.1475V13.833ZM12.1875 13.833V14.333L12.1892 14.333L12.1875 13.833ZM17.835 8.16699L18.335 8.16701V8.16698L17.835 8.16699ZM12.167 0.5V1C16.1253 1 19.3349 4.20893 19.335 8.167L19.835 8.16699L20.335 8.16699C20.3349 3.6565 16.6775 0 12.167 0V0.5ZM19.835 8.16699L19.335 8.16698C19.3349 10.6897 18.0304 12.9068 16.0573 14.1848L16.3291 14.6045L16.6009 15.0242C18.846 13.57 20.3349 11.0435 20.335 8.167L19.835 8.16699ZM16.3291 14.6045L16.1507 15.0716C17.6057 15.6272 18.9431 16.4823 20.0644 17.6036L20.418 17.25L20.7715 16.8964C19.5485 15.6736 18.0911 14.7421 16.5075 14.1374L16.3291 14.6045ZM20.418 17.25L20.0644 17.6036C22.1586 19.6976 23.3349 22.5384 23.335 25.5L23.835 25.5L24.335 25.5C24.3349 22.2733 23.0533 19.1781 20.7715 16.8964L20.418 17.25ZM23.835 25.5L23.335 25.5C23.3349 25.7761 23.111 26 22.8349 26L22.835 26.5L22.835 27C23.6633 26.9999 24.3349 26.3284 24.335 25.5L23.835 25.5ZM22.835 26.5L22.8351 26C22.5589 25.9999 22.335 25.7759 22.335 25.5L21.835 25.5L21.335 25.5C21.335 26.3284 22.0067 26.9998 22.8348 27L22.835 26.5ZM21.835 25.5L22.335 25.5C22.3349 22.8038 21.2642 20.2171 19.3574 18.3105L19.0039 18.6641L18.6504 19.0176C20.3694 20.7366 21.3349 23.0689 21.335 25.5L21.835 25.5ZM19.0039 18.6641L19.3574 18.3105C17.4553 16.4086 14.8768 15.3383 12.1875 15.333L12.1865 15.833L12.1855 16.333C14.6104 16.3378 16.9354 17.3029 18.6504 19.0176L19.0039 18.6641ZM12.1865 15.833L12.1853 15.333C12.1717 15.333 12.1605 15.3336 12.1534 15.334C12.1468 15.3343 12.1407 15.3348 12.14 15.3349C12.1377 15.335 12.1405 15.3348 12.1442 15.3346C12.1483 15.3344 12.1564 15.334 12.167 15.334V15.834V16.334C12.1808 16.334 12.1922 16.3335 12.1995 16.3331C12.2064 16.3327 12.2125 16.3322 12.2135 16.3321C12.2161 16.332 12.2133 16.3322 12.2099 16.3324C12.2061 16.3326 12.1981 16.333 12.1877 16.333L12.1865 15.833ZM12.167 15.834L12.167 15.334C12.1774 15.334 12.1855 15.3344 12.1898 15.3346C12.1936 15.3348 12.1966 15.335 12.1943 15.3349C12.1936 15.3348 12.1874 15.3344 12.1807 15.334C12.1733 15.3336 12.1622 15.333 12.1487 15.333L12.1475 15.833L12.1462 16.333C12.136 16.333 12.1281 16.3326 12.124 16.3324C12.1205 16.3322 12.1176 16.3319 12.1202 16.3321C12.1212 16.3322 12.1274 16.3327 12.1344 16.3331C12.142 16.3335 12.1533 16.334 12.167 16.334L12.167 15.834ZM12.1475 15.833L12.1464 15.333C9.45783 15.3387 6.88017 16.4093 4.97852 18.3105L5.33203 18.6641L5.68554 19.0177C7.40018 17.3035 9.72438 16.3381 12.1485 16.333L12.1475 15.833ZM5.33203 18.6641L4.97849 18.3105C3.07181 20.2171 2.00011 22.8037 2 25.5L2.5 25.5L3 25.5C3.0001 23.069 3.9664 20.7367 5.68557 19.0176L5.33203 18.6641ZM2.5 25.5L2 25.5C1.99998 25.7761 1.77608 26 1.49997 26L1.5 26.5L1.50003 27C2.32839 26.9999 2.99994 26.3284 3 25.5L2.5 25.5ZM1.5 26.5V26C1.22392 26 1.00002 25.7761 1 25.5L0.5 25.5L0 25.5C5.95152e-05 26.3284 0.671562 27 1.5 27V26.5ZM0.5 25.5L1 25.5C1.0001 22.5385 2.17641 19.6976 4.27054 17.6036L3.91699 17.25L3.56344 16.8964C1.2817 19.1781 0.000107169 22.2734 0 25.5L0.5 25.5ZM3.91699 17.25L4.27052 17.6036C5.39168 16.4825 6.72867 15.6272 8.18328 15.0716L8.00488 14.6045L7.82648 14.1374C6.24309 14.7422 4.78608 15.6739 3.56346 16.8964L3.91699 17.25ZM8.00488 14.6045L8.27677 14.1849C6.30431 12.9068 5.00005 10.6894 5 8.16698L4.5 8.16699L4 8.167C4.00006 11.0431 5.48861 13.5698 7.73299 15.0241L8.00488 14.6045ZM4.5 8.16699L5 8.167C5.00006 4.20908 8.20898 1.0003 12.167 1L12.167 0.5L12.167 0C7.65673 0.000342816 4.00007 3.65674 4 8.16699L4.5 8.16699ZM21.374 1.92383L21.8041 2.17888C21.945 1.94121 22.252 1.86283 22.4893 2.00341L22.7441 1.57324L22.999 1.14308C22.2863 0.720811 21.3663 0.956643 20.944 1.66878L21.374 1.92383ZM22.7441 1.57324L22.4891 2.0033C23.5024 2.60428 24.3525 3.44603 24.963 4.45348L25.3906 4.19434L25.8182 3.93519C25.1224 2.78708 24.1538 1.82796 22.9992 1.14319L22.7441 1.57324ZM25.3906 4.19434L24.963 4.45347C25.5735 5.46088 25.9262 6.60369 25.99 7.78L26.4893 7.75293L26.9885 7.72586C26.9158 6.38552 26.514 5.08328 25.8182 3.93521L25.3906 4.19434ZM26.4893 7.75293L25.99 7.77997C26.0537 8.95609 25.8262 10.1302 25.3281 11.1978L25.7812 11.4092L26.2344 11.6206C26.8018 10.4042 27.0611 9.06628 26.9885 7.72589L26.4893 7.75293ZM25.7812 11.4092L25.3281 11.1978C24.9948 11.9122 24.5435 12.5632 23.9988 13.1302L24.3594 13.4766L24.7199 13.823C25.3384 13.1793 25.8531 12.4377 26.2344 11.6206L25.7812 11.4092ZM24.3594 13.4766L24.0196 13.8434C26.4741 16.1167 28.6678 20.0019 28.668 24.167L29.168 24.167L29.668 24.167C29.6678 19.6718 27.3168 15.5342 24.6991 13.1097L24.3594 13.4766ZM29.168 24.167L28.668 24.1669C28.6679 24.4431 28.444 24.667 28.168 24.667V25.167V25.667C28.9964 25.667 29.6679 24.9953 29.668 24.1671L29.168 24.167ZM28.168 25.167L28.1681 24.667C27.892 24.6669 27.668 24.4428 27.668 24.1669L27.168 24.167L26.668 24.1671C26.6681 24.9954 27.3398 25.6667 28.1678 25.667L28.168 25.167ZM27.168 24.167L27.668 24.167C27.6678 19.8535 25.0943 15.8206 22.5344 13.9008L22.2344 14.3008L21.9344 14.7008C24.2801 16.46 26.6678 20.2125 26.668 24.167L27.168 24.167ZM22.2344 14.3008L22.5344 13.9008C22.4084 13.8063 22.3341 13.6578 22.334 13.5007L21.834 13.501L21.334 13.5013C21.3343 13.9733 21.557 14.4178 21.9344 14.7008L22.2344 14.3008ZM21.834 13.501L22.334 13.5009C22.334 13.3438 22.4085 13.1947 22.5345 13.1001L22.2344 12.7002L21.9343 12.3003C21.5569 12.5835 21.3339 13.0288 21.334 13.501L21.834 13.501ZM22.2344 12.7002L22.5344 13.1001C23.3451 12.4919 23.9933 11.6932 24.4219 10.7749L23.9688 10.5635L23.5156 10.3521C23.1566 11.1215 22.6135 11.7907 21.9343 12.3003L22.2344 12.7002ZM23.9688 10.5635L24.4219 10.7749C24.8503 9.85653 25.0462 8.84641 24.9915 7.83431L24.4922 7.86133L23.9929 7.88835C24.0388 8.73609 23.8747 9.58246 23.5156 10.3521L23.9688 10.5635ZM24.4922 7.86133L24.9915 7.83426C24.9366 6.82206 24.6326 5.83819 24.1073 4.97133L23.6797 5.23047L23.2521 5.4896C23.6923 6.21596 23.9469 7.04043 23.9929 7.8884L24.4922 7.86133ZM23.6797 5.23047L24.1073 4.97129C23.582 4.10472 22.8513 3.38091 21.9797 2.86391L21.7246 3.29395L21.4695 3.72398C22.1998 4.15715 22.812 4.76358 23.2521 5.48965L23.6797 5.23047ZM21.7246 3.29395L21.9797 2.86389C21.7421 2.723 21.6637 2.41596 21.8042 2.17863L21.374 1.92383L20.9438 1.66903C20.5218 2.3816 20.7574 3.30164 21.4695 3.724L21.7246 3.29395ZM12.167 2.5L12.1669 2C8.76117 2.00035 6.00007 4.76144 6 8.16698L6.5 8.16699L7 8.167C7.00006 5.31377 9.31344 3.00029 12.167 3L12.167 2.5ZM6.5 8.16699L6 8.16701C6.0001 11.5655 8.74982 14.3212 12.1457 14.333L12.1475 13.833L12.1492 13.333C9.30374 13.3231 7.00008 11.0141 7 8.16698L6.5 8.16699ZM12.1475 13.833V14.333H12.1875V13.833V13.333H12.1475V13.833ZM12.1875 13.833L12.1892 14.333C15.5851 14.3212 18.3349 11.5655 18.335 8.16701L17.835 8.16699L17.335 8.16698C17.3349 11.0141 15.0312 13.3231 12.1858 13.333L12.1875 13.833ZM17.835 8.16699L18.335 8.16698C18.3349 4.76118 15.573 2 12.167 2V2.5V3C15.0209 3 17.3349 5.31363 17.335 8.167L17.835 8.16699Z" fill="white"/>
</svg>
