<svg width="35" height="33" viewBox="0 0 35 33" fill="none" xmlns="http://www.w3.org/2000/svg">
<g filter="url(#filter0_d_672_2450)">
<path d="M15.0869 14.8799C15.639 14.8799 16.0867 15.3278 16.0869 15.8799C16.0869 16.4321 15.6392 16.8798 15.0869 16.8799H10.293C9.28717 16.88 8.32259 17.28 7.61133 17.9912C6.90013 18.7024 6.50023 19.6671 6.5 20.6729V23.0703C6.49983 23.6224 6.05218 24.0703 5.5 24.0703C4.94787 24.0703 4.50017 23.6224 4.5 23.0703V20.6729C4.50023 19.1367 5.111 17.6634 6.19727 16.5771C7.28359 15.4909 8.75674 14.88 10.293 14.8799H15.0869ZM25.585 11.0693C25.7967 10.5597 26.3818 10.3172 26.8916 10.5283C27.4014 10.7399 27.6437 11.325 27.4326 11.835L27.3135 12.1211C27.7483 12.4269 28.1277 12.8055 28.4336 13.2402L28.7207 13.1221C29.2308 12.9108 29.8159 13.153 30.0273 13.6631C30.2387 14.1732 29.9965 14.7583 29.4863 14.9697L29.1992 15.0879C29.244 15.3453 29.2695 15.6097 29.2695 15.8799C29.2695 16.15 29.244 16.4145 29.1992 16.6719L29.4863 16.791C29.9964 17.0025 30.2387 17.5875 30.0273 18.0977C29.8159 18.6078 29.2308 18.85 28.7207 18.6387L28.4336 18.5195C28.1274 18.9549 27.7479 19.3344 27.3125 19.6406L27.4316 19.9277C27.6424 20.438 27.3999 21.0224 26.8896 21.2334C26.3793 21.4443 25.794 21.2017 25.583 20.6914L25.4648 20.4053C25.2077 20.4499 24.9437 20.4756 24.6738 20.4756C24.4034 20.4756 24.1384 20.4501 23.8809 20.4053L23.7627 20.6924C23.5512 21.2025 22.9662 21.4447 22.4561 21.2334C21.9459 21.022 21.7037 20.4369 21.915 19.9268L22.0332 19.6396C21.5982 19.3335 21.218 18.9548 20.9121 18.5195L20.6279 18.6377C20.1177 18.8487 19.5325 18.6059 19.3213 18.0957C19.1105 17.5857 19.3526 17.0014 19.8623 16.79L20.1475 16.6709C20.1029 16.4139 20.0791 16.1496 20.0791 15.8799C20.0791 15.6098 20.1027 15.3452 20.1475 15.0879L19.8623 14.9697C19.3526 14.758 19.1101 14.173 19.3213 13.6631C19.5329 13.1532 20.118 12.9109 20.6279 13.1221L20.9131 13.2402C21.219 12.8053 21.5983 12.4261 22.0332 12.1201L21.915 11.835C21.704 11.325 21.9462 10.7399 22.4561 10.5283C22.9659 10.3172 23.551 10.5597 23.7627 11.0693L23.8809 11.3545C24.1384 11.3097 24.4035 11.2852 24.6738 11.2852C24.944 11.2852 25.2085 11.3097 25.4658 11.3545L25.585 11.0693ZM24.6738 13.2852C23.2409 13.2853 22.0793 14.447 22.0791 15.8799C22.0791 17.313 23.2408 18.4754 24.6738 18.4756C26.1068 18.4754 27.2695 17.313 27.2695 15.8799C27.2693 14.447 26.1067 13.2854 24.6738 13.2852ZM13.8877 0.5C17.0871 0.5 19.6813 3.09361 19.6816 6.29297C19.6816 9.49258 17.0873 12.0869 13.8877 12.0869C10.6885 12.0864 8.09473 9.49229 8.09473 6.29297C8.09502 3.0939 10.6887 0.500472 13.8877 0.5ZM13.8877 2.5C11.7932 2.50047 10.095 4.19847 10.0947 6.29297C10.0947 8.38772 11.7931 10.0864 13.8877 10.0869C15.9827 10.0869 17.6816 8.38801 17.6816 6.29297C17.6813 4.19818 15.9826 2.5 13.8877 2.5Z" fill="white"/>
<path d="M15.0869 14.8799L15.087 14.3799H15.0869V14.8799ZM16.0869 15.8799H16.5869V15.8797L16.0869 15.8799ZM15.0869 16.8799V17.3799H15.087L15.0869 16.8799ZM10.293 16.8799V16.3799H10.2929L10.293 16.8799ZM7.61133 17.9912L7.2578 17.6376L7.25777 17.6377L7.61133 17.9912ZM6.5 20.6729L6 20.6727V20.6729H6.5ZM6.5 23.0703L7 23.0705V23.0703H6.5ZM5.5 24.0703L5.49995 24.5703H5.5V24.0703ZM4.5 23.0703H4L4 23.0705L4.5 23.0703ZM4.5 20.6729L4 20.6728V20.6729H4.5ZM6.19727 16.5771L5.84373 16.2236L5.84371 16.2236L6.19727 16.5771ZM10.293 14.8799V14.3799H10.2929L10.293 14.8799ZM25.585 11.0693L26.0463 11.2621L26.0467 11.2611L25.585 11.0693ZM26.8916 10.5283L27.0832 10.0665L27.0829 10.0664L26.8916 10.5283ZM27.4326 11.835L27.8942 12.0272L27.8946 12.0262L27.4326 11.835ZM27.3135 12.1211L26.8519 11.9289C26.7618 12.1453 26.8341 12.3952 27.0258 12.5301L27.3135 12.1211ZM28.4336 13.2402L28.0247 13.528C28.1591 13.719 28.4079 13.7915 28.6239 13.7026L28.4336 13.2402ZM28.7207 13.1221L28.911 13.5844L28.912 13.584L28.7207 13.1221ZM30.0273 13.6631L30.4893 13.4717L30.4892 13.4716L30.0273 13.6631ZM29.4863 14.9697L29.6766 15.4321L29.6778 15.4316L29.4863 14.9697ZM29.1992 15.0879L29.0089 14.6255C28.7921 14.7147 28.6664 14.9426 28.7066 15.1736L29.1992 15.0879ZM29.2695 15.8799H29.7695V15.8798L29.2695 15.8799ZM29.1992 16.6719L28.7066 16.5863C28.6666 16.8167 28.7916 17.0441 29.0076 17.1337L29.1992 16.6719ZM29.4863 16.791L29.2947 17.2528L29.2949 17.2529L29.4863 16.791ZM30.0273 18.0977L30.4892 18.2891L30.4893 18.289L30.0273 18.0977ZM28.7207 18.6387L28.5291 19.1005L28.5294 19.1006L28.7207 18.6387ZM28.4336 18.5195L28.6252 18.0577C28.4089 17.968 28.1593 18.0403 28.0246 18.2319L28.4336 18.5195ZM27.3125 19.6406L27.0249 19.2316C26.8333 19.3663 26.7609 19.616 26.8507 19.8323L27.3125 19.6406ZM27.4316 19.9277L27.8938 19.7368L27.8935 19.7361L27.4316 19.9277ZM26.8896 21.2334L27.0806 21.6955L27.0807 21.6955L26.8896 21.2334ZM25.583 20.6914L25.1209 20.8823L25.1209 20.8824L25.583 20.6914ZM25.4648 20.4053L25.927 20.2144C25.8376 19.998 25.61 19.8726 25.3793 19.9127L25.4648 20.4053ZM24.6738 20.4756L24.6738 20.9756H24.6739L24.6738 20.4756ZM23.8809 20.4053L23.9666 19.9127C23.7356 19.8725 23.5077 19.9982 23.4185 20.215L23.8809 20.4053ZM23.7627 20.6924L24.2246 20.8839L24.2251 20.8827L23.7627 20.6924ZM22.4561 21.2334L22.2646 21.6953L22.2647 21.6953L22.4561 21.2334ZM21.915 19.9268L22.377 20.1181L22.3774 20.1171L21.915 19.9268ZM22.0332 19.6396L22.4956 19.8299C22.5845 19.614 22.512 19.3652 22.321 19.2308L22.0332 19.6396ZM20.9121 18.5195L21.3212 18.232C21.1864 18.0403 20.9365 17.9679 20.7201 18.0579L20.9121 18.5195ZM20.6279 18.6377L20.819 19.0997L20.8199 19.0994L20.6279 18.6377ZM19.3213 18.0957L18.8592 18.2867L18.8593 18.2869L19.3213 18.0957ZM19.8623 16.79L20.0539 17.2519L20.0551 17.2514L19.8623 16.79ZM20.1475 16.6709L20.3402 17.1322C20.5555 17.0423 20.68 16.8153 20.6401 16.5854L20.1475 16.6709ZM20.0791 15.8799L19.5791 15.8798V15.8799H20.0791ZM20.1475 15.0879L20.6401 15.1735C20.6801 14.943 20.555 14.7155 20.3389 14.626L20.1475 15.0879ZM19.8623 14.9697L19.6705 15.4315L19.6709 15.4316L19.8623 14.9697ZM19.3213 13.6631L18.8595 13.4715L18.8594 13.4717L19.3213 13.6631ZM20.6279 13.1221L20.8193 12.6602L20.8192 12.6601L20.6279 13.1221ZM20.9131 13.2402L20.7217 13.7021C20.9379 13.7918 21.1874 13.7193 21.3221 13.5279L20.9131 13.2402ZM22.0332 12.1201L22.3209 12.5291C22.5123 12.3944 22.5847 12.1449 22.4951 11.9287L22.0332 12.1201ZM21.915 11.835L21.4531 12.0262L21.4531 12.0264L21.915 11.835ZM22.4561 10.5283L22.2648 10.0664L22.2644 10.0665L22.4561 10.5283ZM23.7627 11.0693L24.2246 10.8779L24.2244 10.8775L23.7627 11.0693ZM23.8809 11.3545L23.4189 11.5459C23.5085 11.7621 23.736 11.8872 23.9666 11.8471L23.8809 11.3545ZM24.6738 11.2852L24.6739 10.7852H24.6738L24.6738 11.2852ZM25.4658 11.3545L25.3802 11.8471C25.6101 11.8871 25.8372 11.7626 25.9272 11.5472L25.4658 11.3545ZM24.6738 13.2852L24.6739 12.7852H24.6738L24.6738 13.2852ZM22.0791 15.8799L21.5791 15.8798V15.8799H22.0791ZM24.6738 18.4756L24.6738 18.9756H24.6739L24.6738 18.4756ZM27.2695 15.8799H27.7695V15.8798L27.2695 15.8799ZM13.8877 0.5V0H13.8876L13.8877 0.5ZM19.6816 6.29297H20.1816V6.29292L19.6816 6.29297ZM13.8877 12.0869L13.8876 12.5869H13.8877V12.0869ZM8.09473 6.29297L7.59473 6.29292V6.29297H8.09473ZM13.8877 2.5V2H13.8876L13.8877 2.5ZM10.0947 6.29297L9.59473 6.2929V6.29297H10.0947ZM13.8877 10.0869L13.8876 10.5869H13.8877V10.0869ZM17.6816 6.29297H18.1816V6.2929L17.6816 6.29297ZM15.0869 14.8799L15.0869 15.3799C15.3627 15.3799 15.5868 15.6039 15.5869 15.8801L16.0869 15.8799L16.5869 15.8797C16.5866 15.0518 15.9153 14.38 15.087 14.3799L15.0869 14.8799ZM16.0869 15.8799H15.5869C15.5869 16.1559 15.363 16.3799 15.0869 16.3799L15.0869 16.8799L15.087 17.3799C15.9153 17.3798 16.5869 16.7083 16.5869 15.8799H16.0869ZM15.0869 16.8799V16.3799H10.293V16.8799V17.3799H15.0869V16.8799ZM10.293 16.8799L10.2929 16.3799C9.15438 16.38 8.0627 16.8328 7.2578 17.6376L7.61133 17.9912L7.96486 18.3448C8.58247 17.7273 9.41996 17.38 10.293 17.3799L10.293 16.8799ZM7.61133 17.9912L7.25777 17.6377C6.45289 18.4425 6.00026 19.5343 6 20.6727L6.5 20.6729L7 20.673C7.0002 19.7998 7.34738 18.9623 7.96488 18.3448L7.61133 17.9912ZM6.5 20.6729H6V23.0703H6.5H7V20.6729H6.5ZM6.5 23.0703L6 23.0702C5.99991 23.3464 5.77588 23.5703 5.5 23.5703V24.0703V24.5703C6.32848 24.5703 6.99974 23.8985 7 23.0705L6.5 23.0703ZM5.5 24.0703L5.50005 23.5703C5.22413 23.5703 5.00009 23.3463 5 23.0702L4.5 23.0703L4 23.0705C4.00026 23.8985 4.67162 24.5702 5.49995 24.5703L5.5 24.0703ZM4.5 23.0703H5V20.6729H4.5H4V23.0703H4.5ZM4.5 20.6729L5 20.6729C5.00021 19.2694 5.55824 17.9233 6.55082 16.9307L6.19727 16.5771L5.84371 16.2236C4.66376 17.4035 4.00025 19.0039 4 20.6728L4.5 20.6729ZM6.19727 16.5771L6.5508 16.9307C7.54348 15.9381 8.88951 15.38 10.293 15.3799L10.293 14.8799L10.2929 14.3799C8.62396 14.38 7.02371 15.0437 5.84373 16.2236L6.19727 16.5771ZM10.293 14.8799V15.3799H15.0869V14.8799V14.3799H10.293V14.8799ZM25.585 11.0693L26.0467 11.2611C26.1527 11.006 26.4458 10.8849 26.7003 10.9903L26.8916 10.5283L27.0829 10.0664C26.3178 9.74959 25.4406 10.1134 25.1232 10.8775L25.585 11.0693ZM26.8916 10.5283L26.7 10.9901C26.9549 11.0959 27.0761 11.3888 26.9706 11.6437L27.4326 11.835L27.8946 12.0262C28.2112 11.2612 27.8479 10.3838 27.0832 10.0665L26.8916 10.5283ZM27.4326 11.835L26.971 11.6428L26.8519 11.9289L27.3135 12.1211L27.7751 12.3133L27.8942 12.0272L27.4326 11.835ZM27.3135 12.1211L27.0258 12.5301C27.4138 12.803 27.7521 13.1406 28.0247 13.528L28.4336 13.2402L28.8425 12.9525C28.5033 12.4704 28.0828 12.0509 27.6011 11.7121L27.3135 12.1211ZM28.4336 13.2402L28.6239 13.7026L28.911 13.5844L28.7207 13.1221L28.5304 12.6597L28.2433 12.7779L28.4336 13.2402ZM28.7207 13.1221L28.912 13.584C29.1671 13.4784 29.4597 13.5995 29.5655 13.8546L30.0273 13.6631L30.4892 13.4716C30.172 12.7065 29.2946 12.3432 28.5294 12.6601L28.7207 13.1221ZM30.0273 13.6631L29.5654 13.8545C29.6711 14.1095 29.55 14.4021 29.2949 14.5078L29.4863 14.9697L29.6778 15.4316C30.4429 15.1144 30.8063 14.237 30.4893 13.4717L30.0273 13.6631ZM29.4863 14.9697L29.296 14.5074L29.0089 14.6255L29.1992 15.0879L29.3895 15.5503L29.6766 15.4321L29.4863 14.9697ZM29.1992 15.0879L28.7066 15.1736C28.747 15.4056 28.7695 15.6413 28.7695 15.8799L29.2695 15.8799L29.7695 15.8798C29.7695 15.5781 29.741 15.285 29.6918 15.0022L29.1992 15.0879ZM29.2695 15.8799H28.7695C28.7695 16.1184 28.7469 16.3541 28.7066 16.5863L29.1992 16.6719L29.6918 16.7575C29.741 16.4749 29.7695 16.1816 29.7695 15.8799H29.2695ZM29.1992 16.6719L29.0076 17.1337L29.2947 17.2528L29.4863 16.791L29.678 16.3292L29.3909 16.2101L29.1992 16.6719ZM29.4863 16.791L29.2949 17.2529C29.5499 17.3586 29.6711 17.6513 29.5654 17.9063L30.0273 18.0977L30.4893 18.289C30.8062 17.5238 30.4429 16.6463 29.6778 16.3291L29.4863 16.791ZM30.0273 18.0977L29.5655 17.9062C29.4597 18.1612 29.1671 18.2824 28.912 18.1767L28.7207 18.6387L28.5294 19.1006C29.2945 19.4176 30.1721 19.0543 30.4892 18.2891L30.0273 18.0977ZM28.7207 18.6387L28.9123 18.1769L28.6252 18.0577L28.4336 18.5195L28.242 18.9813L28.5291 19.1005L28.7207 18.6387ZM28.4336 18.5195L28.0246 18.2319C27.7515 18.6202 27.4131 18.9586 27.0249 19.2316L27.3125 19.6406L27.6001 20.0496C28.0827 19.7103 28.5032 19.2897 28.8426 18.8072L28.4336 18.5195ZM27.3125 19.6406L26.8507 19.8323L26.9698 20.1194L27.4316 19.9277L27.8935 19.7361L27.7743 19.449L27.3125 19.6406ZM27.4316 19.9277L26.9695 20.1186C27.0749 20.3738 26.9537 20.6659 26.6986 20.7713L26.8896 21.2334L27.0807 21.6955C27.8461 21.379 28.2099 20.5023 27.8938 19.7368L27.4316 19.9277ZM26.8896 21.2334L26.6987 20.7713C26.4432 20.8769 26.1504 20.7552 26.0451 20.5004L25.583 20.6914L25.1209 20.8824C25.4375 21.6483 26.3154 22.0117 27.0806 21.6955L26.8896 21.2334ZM25.583 20.6914L26.0452 20.5006L25.927 20.2144L25.4648 20.4053L25.0027 20.5961L25.1209 20.8823L25.583 20.6914ZM25.4648 20.4053L25.3793 19.9127C25.1473 19.953 24.912 19.9756 24.6738 19.9756L24.6738 20.4756L24.6739 20.9756C24.9754 20.9756 25.2682 20.9469 25.5504 20.8979L25.4648 20.4053ZM24.6738 20.4756L24.6739 19.9756C24.4349 19.9756 24.1986 19.9531 23.9666 19.9127L23.8809 20.4053L23.7951 20.8979C24.0783 20.9472 24.372 20.9756 24.6738 20.9756L24.6738 20.4756ZM23.8809 20.4053L23.4185 20.215L23.3003 20.5021L23.7627 20.6924L24.2251 20.8827L24.3432 20.5956L23.8809 20.4053ZM23.7627 20.6924L23.3008 20.5009C23.1951 20.7559 22.9025 20.8771 22.6474 20.7715L22.4561 21.2334L22.2647 21.6953C23.0299 22.0123 23.9074 21.649 24.2246 20.8839L23.7627 20.6924ZM22.4561 21.2334L22.6475 20.7715C22.3925 20.6658 22.2713 20.3732 22.377 20.1181L21.915 19.9268L21.4531 19.7354C21.1361 20.5006 21.4994 21.3781 22.2646 21.6953L22.4561 21.2334ZM21.915 19.9268L22.3774 20.1171L22.4956 19.8299L22.0332 19.6396L21.5708 19.4494L21.4527 19.7365L21.915 19.9268ZM22.0332 19.6396L22.321 19.2308C21.9324 18.9573 21.5935 18.6195 21.3212 18.232L20.9121 18.5195L20.503 18.807C20.8425 19.2901 21.2639 19.7096 21.7454 20.0485L22.0332 19.6396ZM20.9121 18.5195L20.7201 18.0579L20.436 18.176L20.6279 18.6377L20.8199 19.0994L21.1041 18.9812L20.9121 18.5195ZM20.6279 18.6377L20.4368 18.1756C20.1818 18.2811 19.8889 18.1597 19.7833 17.9045L19.3213 18.0957L18.8593 18.2869C19.176 19.0522 20.0536 19.4163 20.819 19.0997L20.6279 18.6377ZM19.3213 18.0957L19.7834 17.9047C19.678 17.6497 19.7991 17.3576 20.0539 17.2519L19.8623 16.79L19.6707 16.3282C18.9062 16.6453 18.543 17.5218 18.8592 18.2867L19.3213 18.0957ZM19.8623 16.79L20.0551 17.2514L20.3402 17.1322L20.1475 16.6709L19.9547 16.2095L19.6695 16.3287L19.8623 16.79ZM20.1475 16.6709L20.6401 16.5854C20.6003 16.3559 20.5791 16.1202 20.5791 15.8799H20.0791H19.5791C19.5791 16.1791 19.6055 16.4719 19.6548 16.7564L20.1475 16.6709ZM20.0791 15.8799L20.5791 15.8799C20.5791 15.639 20.6002 15.4031 20.6401 15.1735L20.1475 15.0879L19.6549 15.0022C19.6053 15.2874 19.5791 15.5806 19.5791 15.8798L20.0791 15.8799ZM20.1475 15.0879L20.3389 14.626L20.0537 14.5078L19.8623 14.9697L19.6709 15.4316L19.9561 15.5498L20.1475 15.0879ZM19.8623 14.9697L20.0541 14.508C19.7988 14.4019 19.6778 14.109 19.7832 13.8545L19.3213 13.6631L18.8594 13.4717C18.5423 14.237 18.9064 15.1141 19.6705 15.4315L19.8623 14.9697ZM19.3213 13.6631L19.7831 13.8547C19.8889 13.5997 20.1818 13.4785 20.4367 13.584L20.6279 13.1221L20.8192 12.6601C20.0542 12.3434 19.1768 12.7068 18.8595 13.4715L19.3213 13.6631ZM20.6279 13.1221L20.4365 13.584L20.7217 13.7021L20.9131 13.2402L21.1045 12.7783L20.8193 12.6602L20.6279 13.1221ZM20.9131 13.2402L21.3221 13.5279C21.5948 13.1401 21.9331 12.8019 22.3209 12.5291L22.0332 12.1201L21.7455 11.7112C21.2636 12.0502 20.8432 12.4705 20.5041 12.9526L20.9131 13.2402ZM22.0332 12.1201L22.4951 11.9287L22.377 11.6436L21.915 11.835L21.4531 12.0264L21.5713 12.3115L22.0332 12.1201ZM21.915 11.835L22.377 11.6437C22.2715 11.3888 22.3927 11.0959 22.6477 10.9901L22.4561 10.5283L22.2644 10.0665C21.4997 10.3838 21.1364 11.2612 21.4531 12.0262L21.915 11.835ZM22.4561 10.5283L22.6473 10.9903C22.9019 10.8849 23.195 11.006 23.301 11.2611L23.7627 11.0693L24.2244 10.8775C23.907 10.1134 23.0299 9.74956 22.2648 10.0664L22.4561 10.5283ZM23.7627 11.0693L23.3008 11.2607L23.4189 11.5459L23.8809 11.3545L24.3428 11.1631L24.2246 10.8779L23.7627 11.0693ZM23.8809 11.3545L23.9666 11.8471C24.1973 11.8069 24.4338 11.7852 24.6739 11.7852L24.6738 11.2852L24.6738 10.7852C24.3732 10.7852 24.0794 10.8124 23.7952 10.8619L23.8809 11.3545ZM24.6738 11.2852L24.6738 11.7852C24.9136 11.7852 25.1494 11.807 25.3802 11.8471L25.4658 11.3545L25.5515 10.8619C25.2675 10.8125 24.9744 10.7852 24.6739 10.7852L24.6738 11.2852ZM25.4658 11.3545L25.9272 11.5472L26.0463 11.2621L25.585 11.0693L25.1236 10.8766L25.0045 11.1617L25.4658 11.3545ZM24.6738 13.2852L24.6738 12.7852C22.9647 12.7854 21.5794 14.1708 21.5791 15.8798L22.0791 15.8799L22.5791 15.88C22.5793 14.7231 23.5171 13.7853 24.6739 13.7852L24.6738 13.2852ZM22.0791 15.8799H21.5791C21.5791 17.5889 22.9644 18.9754 24.6738 18.9756L24.6738 18.4756L24.6739 17.9756C23.5171 17.9754 22.5791 17.037 22.5791 15.8799H22.0791ZM24.6738 18.4756L24.6739 18.9756C26.3829 18.9753 27.7695 17.5892 27.7695 15.8799H27.2695H26.7695C26.7695 17.0367 25.8308 17.9754 24.6737 17.9756L24.6738 18.4756ZM27.2695 15.8799L27.7695 15.8798C27.7692 14.1706 26.3826 12.7854 24.6739 12.7852L24.6738 13.2852L24.6737 13.7852C25.8308 13.7853 26.7693 14.7234 26.7695 15.88L27.2695 15.8799ZM13.8877 0.5V1C16.811 1 19.1814 3.36983 19.1816 6.29302L19.6816 6.29297L20.1816 6.29292C20.1813 2.81739 17.3632 0 13.8877 0V0.5ZM19.6816 6.29297H19.1816C19.1816 9.21644 16.8112 11.5869 13.8877 11.5869V12.0869V12.5869C17.3634 12.5869 20.1816 9.76872 20.1816 6.29297H19.6816ZM13.8877 12.0869L13.8878 11.5869C10.9647 11.5865 8.59473 9.21618 8.59473 6.29297H8.09473H7.59473C7.59473 9.76839 10.4123 12.5864 13.8876 12.5869L13.8877 12.0869ZM8.09473 6.29297L8.59473 6.29302C8.595 3.37008 10.9648 1.00043 13.8878 1L13.8877 0.5L13.8876 0C10.4125 0.000512213 7.59505 2.81772 7.59473 6.29292L8.09473 6.29297ZM13.8877 2.5L13.8876 2C11.5171 2.00053 9.59506 3.92227 9.59473 6.2929L10.0947 6.29297L10.5947 6.29304C10.595 4.47467 12.0694 3.00041 13.8878 3L13.8877 2.5ZM10.0947 6.29297H9.59473C9.59473 8.66381 11.5168 10.5864 13.8876 10.5869L13.8877 10.0869L13.8878 9.58691C12.0693 9.5865 10.5947 8.11163 10.5947 6.29297H10.0947ZM13.8877 10.0869V10.5869C16.2589 10.5869 18.1816 8.66415 18.1816 6.29297H17.6816H17.1816C17.1816 8.11187 15.7066 9.58691 13.8877 9.58691V10.0869ZM17.6816 6.29297L18.1816 6.2929C18.1813 3.92192 16.2586 2 13.8877 2V2.5V3C15.7065 3 17.1814 4.47443 17.1816 6.29304L17.6816 6.29297Z" fill="white"/>
</g>
<defs>
<filter id="filter0_d_672_2450" x="0" y="0" width="34.6035" height="32.5703" filterUnits="userSpaceOnUse" color-interpolation-filters="sRGB">
<feFlood flood-opacity="0" result="BackgroundImageFix"/>
<feColorMatrix in="SourceAlpha" type="matrix" values="0 0 0 0 0 0 0 0 0 0 0 0 0 0 0 0 0 0 127 0" result="hardAlpha"/>
<feOffset dy="4"/>
<feGaussianBlur stdDeviation="2"/>
<feComposite in2="hardAlpha" operator="out"/>
<feColorMatrix type="matrix" values="0 0 0 0 0 0 0 0 0 0 0 0 0 0 0 0 0 0 0.25 0"/>
<feBlend mode="normal" in2="BackgroundImageFix" result="effect1_dropShadow_672_2450"/>
<feBlend mode="normal" in="SourceGraphic" in2="effect1_dropShadow_672_2450" result="shape"/>
</filter>
</defs>
</svg>
