<svg width="18" height="13" viewBox="0 0 18 13" fill="none" xmlns="http://www.w3.org/2000/svg">
<path d="M7.69922 2.86523C6.80859 2.88867 6.09961 3.03516 5.57227 3.30469C5.04492 3.5625 4.62891 3.97266 4.32422 4.53516C5.54297 4.53516 6.55078 4.83398 7.34766 5.43164C8.15625 6.0293 8.56055 7.00195 8.56055 8.34961C8.56055 8.85352 8.47266 9.3457 8.29688 9.82617C8.12109 10.3066 7.85156 10.7344 7.48828 11.1094C7.125 11.4727 6.68555 11.7773 6.16992 12.0234C5.6543 12.2578 5.0625 12.375 4.39453 12.375C3.07031 12.375 2.00391 11.9473 1.19531 11.0918C0.398437 10.2246 0 9.07031 0 7.62891C0 6.83203 0.111328 6.0293 0.333984 5.2207C0.568359 4.40039 0.978516 3.64453 1.56445 2.95312C2.15039 2.25 2.94141 1.63477 3.9375 1.10742C4.93359 0.580078 6.1875 0.210938 7.69922 0V2.86523ZM17.0684 2.86523C16.1777 2.88867 15.4688 3.03516 14.9414 3.30469C14.4141 3.5625 13.9922 3.97266 13.6758 4.53516C14.9062 4.53516 15.9199 4.83398 16.7168 5.43164C17.5254 6.0293 17.9297 7.00195 17.9297 8.34961C17.9297 8.85352 17.8359 9.3457 17.6484 9.82617C17.4727 10.3066 17.2031 10.7344 16.8398 11.1094C16.4883 11.4727 16.0547 11.7773 15.5391 12.0234C15.0234 12.2578 14.4258 12.375 13.7461 12.375C12.4336 12.375 11.373 11.9473 10.5645 11.0918C9.75586 10.2246 9.35156 9.07031 9.35156 7.62891C9.35156 6.83203 9.46289 6.0293 9.68555 5.2207C9.91992 4.40039 10.3301 3.64453 10.916 2.95312C11.5137 2.25 12.3105 1.63477 13.3066 1.10742C14.3027 0.580078 15.5566 0.210938 17.0684 0V2.86523Z" fill="black"/>
</svg>
