<svg width="41" height="41" viewBox="0 0 41 41" fill="none" xmlns="http://www.w3.org/2000/svg">
<path d="M15.8377 17.6561C16.2282 17.2657 16.8622 17.2658 17.2527 17.6561C17.643 18.0466 17.643 18.6797 17.2527 19.0702L13.4139 22.9081L17.4549 26.9491L21.2928 23.1112C21.6833 22.7207 22.3173 22.7207 22.7078 23.1112C23.0977 23.5017 23.098 24.1349 22.7078 24.5253L18.869 28.3632L20.8895 30.3837C21.0768 30.5712 21.1815 30.8256 21.1815 31.0907C21.1814 31.3558 21.0768 31.6102 20.8895 31.7977L16.7078 35.9774L16.7088 35.9784C16.2105 36.4784 15.6176 36.8756 14.9656 37.1464C14.3138 37.4169 13.6147 37.5555 12.909 37.5555C12.2032 37.5555 11.5042 37.417 10.8524 37.1464C10.2009 36.8759 9.6092 36.4788 9.11115 35.9794L7.45392 34.3231L2.70685 39.0712C2.31639 39.4612 1.68319 39.4613 1.29279 39.0712C0.90232 38.6807 0.902436 38.0467 1.29279 37.6561L6.03986 32.9081L4.38361 31.2528V31.2518C3.88442 30.754 3.48802 30.1627 3.21759 29.5116C2.94688 28.8596 2.80744 28.1599 2.80743 27.454C2.80748 26.7482 2.94692 26.0492 3.21759 25.3973C3.48826 24.7455 3.8847 24.1534 4.38458 23.6552L8.56525 19.4745C8.95577 19.084 9.58976 19.084 9.98029 19.4745L11.9998 21.494L15.8377 17.6561ZM5.79767 25.0702L5.79669 25.0721C5.4833 25.3845 5.23399 25.7553 5.06427 26.1639C4.89454 26.5727 4.80748 27.0114 4.80743 27.454C4.80744 27.8966 4.89458 28.3353 5.06427 28.744C5.23403 29.1528 5.48317 29.5243 5.79669 29.8368L10.5262 34.5663C10.8386 34.8798 11.2102 35.1289 11.619 35.2987C12.0278 35.4684 12.4664 35.5555 12.909 35.5555C13.3517 35.5555 13.7902 35.4685 14.199 35.2987C14.6079 35.1289 14.9793 34.8798 15.2918 34.5663L18.7674 31.0907L9.27228 21.5956L5.79767 25.0702ZM37.6561 1.29285C38.0466 0.902322 38.6806 0.902322 39.0711 1.29285C39.4612 1.68331 39.4613 2.31647 39.0711 2.70691L34.3231 7.45398L35.9783 9.10925L36.1609 9.29968C36.5756 9.75567 36.9094 10.2811 37.1463 10.8514C37.4169 11.5032 37.5554 12.2024 37.5555 12.9081C37.5555 13.6138 37.4168 14.313 37.1463 14.9647C36.8756 15.6167 36.4784 16.2096 35.9783 16.7079L35.9774 16.7069L31.7977 20.8885C31.6102 21.0759 31.3557 21.1805 31.0906 21.1805C30.8257 21.1804 30.571 21.0758 30.3836 20.8885L19.4744 9.97937C19.0843 9.58881 19.084 8.95471 19.4744 8.56433L23.6561 4.38269C24.154 3.88332 24.746 3.48716 25.3973 3.21667C26.049 2.94605 26.7482 2.80662 27.4539 2.80652C28.1597 2.80652 28.8597 2.9461 29.5115 3.21667C30.1627 3.48711 30.7549 3.88346 31.2527 4.38269L32.909 6.03894L37.6561 1.29285ZM27.4539 4.80652C27.0115 4.80662 26.5725 4.89368 26.1639 5.06335C25.7553 5.23307 25.3844 5.48244 25.0721 5.79578L25.0701 5.79675L21.5955 9.27136L31.0906 18.7665L34.5662 15.2909C34.8798 14.9784 35.1289 14.607 35.2986 14.1981C35.4684 13.7893 35.5555 13.3507 35.5555 12.9081C35.5554 12.4656 35.4683 12.0267 35.2986 11.618C35.1289 11.2095 34.8796 10.8376 34.5662 10.5253L32.2108 8.1698C32.208 8.16707 32.2047 8.16476 32.202 8.16199C32.1989 8.15891 32.1962 8.15533 32.1932 8.15222L29.8367 5.79578C29.5243 5.48244 29.1526 5.23303 28.744 5.06335C28.3353 4.8938 27.8963 4.80652 27.4539 4.80652Z" fill="white"/>
<path d="M17.2527 17.6561L17.9601 16.9492L17.9597 16.9489L17.2527 17.6561ZM17.2527 19.0702L17.9598 19.7774L17.9601 19.7771L17.2527 19.0702ZM13.4139 22.9081L12.7069 22.2009C12.5193 22.3884 12.4139 22.6428 12.4139 22.908C12.4139 23.1733 12.5192 23.4276 12.7068 23.6152L13.4139 22.9081ZM17.4549 26.9491L16.7478 27.6562C17.1383 28.0467 17.7715 28.0467 18.162 27.6562L17.4549 26.9491ZM22.7078 23.1112L23.4155 22.4046L23.4149 22.4041L22.7078 23.1112ZM22.7078 24.5253L23.4148 25.2325L23.4151 25.2322L22.7078 24.5253ZM18.869 28.3632L18.1619 27.656C17.9744 27.8435 17.869 28.0979 17.869 28.3631C17.8689 28.6283 17.9743 28.8827 18.1618 29.0703L18.869 28.3632ZM20.8895 30.3837L21.5969 29.6769L21.5966 29.6766L20.8895 30.3837ZM21.1815 31.0907L22.1815 31.0908V31.0907H21.1815ZM20.8895 31.7977L21.5964 32.505L21.5968 32.5046L20.8895 31.7977ZM16.7078 35.9774L16.0009 35.2701C15.8133 35.4577 15.7079 35.712 15.7078 35.9773C15.7078 36.2426 15.8132 36.497 16.0007 36.6845L16.7078 35.9774ZM16.7088 35.9784L17.4171 36.6843C17.8065 36.2935 17.806 35.6613 17.4159 35.2713L16.7088 35.9784ZM14.9656 37.1464L15.349 38.0699L15.3491 38.0699L14.9656 37.1464ZM12.909 37.5555L12.909 38.5555H12.909L12.909 37.5555ZM10.8524 37.1464L10.4689 38.0699L10.4689 38.0699L10.8524 37.1464ZM9.11115 35.9794L9.81926 35.2733L9.81804 35.2721L9.11115 35.9794ZM7.45392 34.3231L8.16082 33.6158C7.77023 33.2254 7.13717 33.2256 6.74674 33.6161L7.45392 34.3231ZM2.70685 39.0712L3.41354 39.7787L3.41403 39.7782L2.70685 39.0712ZM1.29279 39.0712L0.585679 39.7783L0.585972 39.7786L1.29279 39.0712ZM1.29279 37.6561L0.585606 36.9491L0.585508 36.9492L1.29279 37.6561ZM6.03986 32.9081L6.74704 33.6151C6.93458 33.4275 7.03991 33.1731 7.03986 32.9079C7.0398 32.6426 6.93437 32.3883 6.74675 32.2008L6.03986 32.9081ZM4.38361 31.2528H3.38361C3.38361 31.5181 3.48904 31.7726 3.67671 31.9601L4.38361 31.2528ZM4.38361 31.2518H5.38361C5.38361 30.9862 5.27789 30.7314 5.08978 30.5438L4.38361 31.2518ZM3.21759 29.5116L2.29404 29.8951L2.29408 29.8952L3.21759 29.5116ZM2.80743 27.454L1.80743 27.4539V27.454L2.80743 27.454ZM3.21759 25.3973L2.29405 25.0138L2.29404 25.0139L3.21759 25.3973ZM4.38458 23.6552L5.09051 24.3634L5.09169 24.3623L4.38458 23.6552ZM8.56525 19.4745L7.85815 18.7674L7.85814 18.7674L8.56525 19.4745ZM9.98029 19.4745L10.6874 18.7674V18.7674L9.98029 19.4745ZM11.9998 21.494L11.2927 22.2011C11.6832 22.5917 12.3164 22.5917 12.7069 22.2011L11.9998 21.494ZM5.79767 25.0702L5.09056 24.3631C5.01456 24.4391 4.95131 24.5268 4.90324 24.623L5.79767 25.0702ZM5.79669 25.0721L6.50265 25.7804C6.57916 25.7041 6.64281 25.616 6.69112 25.5194L5.79669 25.0721ZM5.06427 26.1639L4.14075 25.7804L4.14072 25.7805L5.06427 26.1639ZM4.80743 27.454L3.80743 27.4539V27.454L4.80743 27.454ZM5.06427 28.744L4.14069 29.1274L4.14073 29.1275L5.06427 28.744ZM5.79669 29.8368L6.5038 29.1297L6.5026 29.1285L5.79669 29.8368ZM10.5262 34.5663L11.2345 33.8604L11.2333 33.8592L10.5262 34.5663ZM11.619 35.2987L11.2354 36.2222L11.2355 36.2223L11.619 35.2987ZM12.909 35.5555L12.909 36.5555H12.909L12.909 35.5555ZM14.199 35.2987L14.5825 36.2223L14.5825 36.2222L14.199 35.2987ZM15.2918 34.5663L14.5847 33.8592L14.5835 33.8604L15.2918 34.5663ZM18.7674 31.0907L19.4745 31.7978C19.865 31.4073 19.865 30.7741 19.4745 30.3836L18.7674 31.0907ZM9.27228 21.5956L9.97938 20.8885C9.58886 20.4979 8.9557 20.4979 8.56517 20.8885L9.27228 21.5956ZM37.6561 1.29285L38.3631 2.00003L38.3632 1.99995L37.6561 1.29285ZM39.0711 1.29285L39.7785 0.586034L39.7782 0.58574L39.0711 1.29285ZM39.0711 2.70691L39.7781 3.41409L39.7785 3.41377L39.0711 2.70691ZM34.3231 7.45398L33.616 6.7468C33.4285 6.93433 33.3231 7.18869 33.3231 7.45393C33.323 7.71916 33.4284 7.97354 33.616 8.16109L34.3231 7.45398ZM35.9783 9.10925L36.7001 8.41711C36.6953 8.41207 36.6904 8.40708 36.6854 8.40215L35.9783 9.10925ZM36.1609 9.29968L36.9008 8.62695C36.8949 8.6204 36.8888 8.61393 36.8827 8.60754L36.1609 9.29968ZM37.1463 10.8514L38.0699 10.468L38.0698 10.4679L37.1463 10.8514ZM37.5555 12.9081H38.5555V12.908L37.5555 12.9081ZM37.1463 14.9647L38.0698 15.3482L38.0699 15.3481L37.1463 14.9647ZM35.9783 16.7079L35.2712 17.415C35.6613 17.805 36.2935 17.8056 36.6842 17.4162L35.9783 16.7079ZM35.9774 16.7069L36.6845 15.9998C36.4969 15.8122 36.2425 15.7069 35.9772 15.7069C35.712 15.7069 35.4576 15.8124 35.2701 16L35.9774 16.7069ZM31.7977 20.8885L32.5045 21.5959L32.5049 21.5955L31.7977 20.8885ZM31.0906 21.1805L31.0902 22.1805H31.0907L31.0906 21.1805ZM30.3836 20.8885L29.6765 21.5957L29.6768 21.5959L30.3836 20.8885ZM19.4744 9.97937L18.7669 10.6861L18.7673 10.6865L19.4744 9.97937ZM19.4744 8.56433L20.1815 9.27144L19.4744 8.56433ZM23.6561 4.38269L24.3632 5.0898L24.3642 5.0888L23.6561 4.38269ZM25.3973 3.21667L25.0138 2.29313L25.0137 2.29315L25.3973 3.21667ZM27.4539 2.80652V1.80652H27.4538L27.4539 2.80652ZM29.5115 3.21667L29.8951 2.29316L29.8949 2.29309L29.5115 3.21667ZM31.2527 4.38269L30.5447 5.08885L30.5456 5.0898L31.2527 4.38269ZM32.909 6.03894L32.2019 6.74605C32.5924 7.13654 33.2255 7.13658 33.616 6.74612L32.909 6.03894ZM27.4539 4.80652V3.80652H27.4537L27.4539 4.80652ZM26.1639 5.06335L25.7804 4.13981L25.7803 4.13987L26.1639 5.06335ZM25.0721 5.79578L25.5193 6.6902C25.6159 6.64189 25.7041 6.57824 25.7803 6.50173L25.0721 5.79578ZM25.0701 5.79675L24.6229 4.90233C24.5268 4.95039 24.439 5.01364 24.363 5.08965L25.0701 5.79675ZM21.5955 9.27136L20.8884 8.56426C20.4979 8.95478 20.4979 9.58794 20.8884 9.97847L21.5955 9.27136ZM31.0906 18.7665L30.3835 19.4736C30.7741 19.8641 31.4072 19.8641 31.7977 19.4736L31.0906 18.7665ZM34.5662 15.2909L33.8603 14.5826L33.8591 14.5838L34.5662 15.2909ZM35.2986 14.1981L36.2222 14.5816L36.2222 14.5815L35.2986 14.1981ZM35.5555 12.9081H36.5555V12.9079L35.5555 12.9081ZM35.2986 11.618L36.2222 11.2346L36.2221 11.2343L35.2986 11.618ZM34.5662 10.5253L33.8591 11.2324L33.8603 11.2336L34.5662 10.5253ZM32.2108 8.1698L32.9179 7.46264L32.9094 7.45431L32.2108 8.1698ZM32.202 8.16199L31.4949 8.86909L31.4952 8.86939L32.202 8.16199ZM32.1932 8.15222L32.9093 7.45417L32.9003 7.44512L32.1932 8.15222ZM29.8367 5.79578L29.1285 6.50181L29.1296 6.50288L29.8367 5.79578ZM28.744 5.06335L29.1274 4.13981L29.1272 4.13971L28.744 5.06335ZM15.8377 17.6561L16.5448 18.3632L16.5458 18.3634L17.2527 17.6561L17.9597 16.9489C17.1788 16.1683 15.9117 16.1679 15.1306 16.949L15.8377 17.6561ZM17.2527 17.6561L16.5454 18.363V18.3633L17.2527 19.0702L17.9601 19.7771C18.7406 18.9961 18.7406 17.7302 17.9601 16.9492L17.2527 17.6561ZM17.2527 19.0702L16.5457 18.363L12.7069 22.2009L13.4139 22.9081L14.1209 23.6153L17.9598 19.7774L17.2527 19.0702ZM13.4139 22.9081L12.7068 23.6152L16.7478 27.6562L17.4549 26.9491L18.162 26.242L14.121 22.201L13.4139 22.9081ZM17.4549 26.9491L18.162 27.6562L21.9999 23.8183L21.2928 23.1112L20.5857 22.4041L16.7478 26.242L17.4549 26.9491ZM21.2928 23.1112L21.9999 23.8183H22.0007L22.7078 23.1112L23.4149 22.4041C22.6339 21.6231 21.3667 21.6231 20.5857 22.4041L21.2928 23.1112ZM22.7078 23.1112L22.0002 23.8178L22.0005 23.8184L22.7078 24.5253L23.4151 25.2322C24.1959 24.451 24.1949 23.1852 23.4155 22.4046L22.7078 23.1112ZM22.7078 24.5253L22.0008 23.8181L18.1619 27.656L18.869 28.3632L19.576 29.0704L23.4148 25.2325L22.7078 24.5253ZM18.869 28.3632L18.1618 29.0703L20.1824 31.0908L20.8895 30.3837L21.5966 29.6766L19.5761 27.6561L18.869 28.3632ZM20.8895 30.3837L20.182 31.0904L20.1815 31.0907H21.1815H22.1815C22.1815 30.5623 21.9728 30.0531 21.5969 29.6769L20.8895 30.3837ZM21.1815 31.0907L20.1815 31.0906L20.1821 31.0909L20.8895 31.7977L21.5968 32.5046C21.9729 32.1282 22.1814 31.619 22.1815 31.0908L21.1815 31.0907ZM20.8895 31.7977L20.1825 31.0905L16.0009 35.2701L16.7078 35.9774L17.4148 36.6847L21.5964 32.505L20.8895 31.7977ZM16.7078 35.9774L16.0007 36.6845L16.0017 36.6855L16.7088 35.9784L17.4159 35.2713L17.4149 35.2703L16.7078 35.9774ZM16.7088 35.9784L16.0005 35.2725C15.5951 35.6793 15.1126 36.0026 14.5821 36.2228L14.9656 37.1464L15.3491 38.0699C16.1226 37.7487 16.8259 37.2776 17.4171 36.6843L16.7088 35.9784ZM14.9656 37.1464L14.5822 36.2228C14.0526 36.4426 13.4839 36.5555 12.909 36.5555L12.909 37.5555L12.909 38.5555C13.7456 38.5555 14.575 38.3912 15.349 38.0699L14.9656 37.1464ZM12.909 37.5555L12.909 36.5555C12.3341 36.5555 11.7654 36.4427 11.2358 36.2228L10.8524 37.1464L10.4689 38.0699C11.243 38.3913 12.0724 38.5555 12.909 38.5555L12.909 37.5555ZM10.8524 37.1464L11.2358 36.2228C10.7063 36.0029 10.2248 35.68 9.81926 35.2733L9.11115 35.9794L8.40303 36.6855C8.99357 37.2777 9.69547 37.7488 10.4689 38.0699L10.8524 37.1464ZM9.11115 35.9794L9.81804 35.2721L8.16082 33.6158L7.45392 34.3231L6.74702 35.0304L8.40425 36.6867L9.11115 35.9794ZM7.45392 34.3231L6.74674 33.6161L1.99967 38.3641L2.70685 39.0712L3.41403 39.7782L8.1611 35.0302L7.45392 34.3231ZM2.70685 39.0712L2.00015 38.3636L1.9996 38.3638L1.29279 39.0712L0.585972 39.7786C1.36696 40.5589 2.63277 40.5585 3.41354 39.7787L2.70685 39.0712ZM1.29279 39.0712L1.99989 38.3641C1.99905 38.3632 1.99902 38.363 1.99932 38.3635C1.99959 38.3639 1.99983 38.3644 1.99999 38.3648C2.00025 38.3654 1.99998 38.365 1.99998 38.3637C1.99998 38.3624 2.00026 38.362 2.00002 38.3626C1.99988 38.3629 1.99966 38.3633 1.99941 38.3637C1.99914 38.3641 1.9992 38.3639 2.00006 38.3631L1.29279 37.6561L0.585508 36.9492C-0.194968 37.73 -0.195482 38.9971 0.585679 39.7783L1.29279 39.0712ZM1.29279 37.6561L1.99997 38.3632L6.74704 33.6151L6.03986 32.9081L5.33268 32.201L0.585606 36.9491L1.29279 37.6561ZM6.03986 32.9081L6.74675 32.2008L5.0905 30.5455L4.38361 31.2528L3.67671 31.9601L5.33296 33.6154L6.03986 32.9081ZM4.38361 31.2528H5.38361V31.2518H4.38361H3.38361V31.2528H4.38361ZM4.38361 31.2518L5.08978 30.5438C4.68346 30.1385 4.361 29.6575 4.1411 29.128L3.21759 29.5116L2.29408 29.8952C2.61503 30.6679 3.08538 31.3694 3.67744 31.9599L4.38361 31.2518ZM3.21759 29.5116L4.14114 29.1281C3.92092 28.5978 3.80744 28.0283 3.80743 27.454L2.80743 27.454L1.80743 27.454C1.80744 28.2915 1.97284 29.1215 2.29404 29.8951L3.21759 29.5116ZM2.80743 27.454L3.80743 27.454C3.80747 26.8799 3.9209 26.3112 4.14114 25.7808L3.21759 25.3973L2.29404 25.0139C1.97294 25.7872 1.80748 26.6164 1.80743 27.4539L2.80743 27.454ZM3.21759 25.3973L4.14113 25.7808C4.36143 25.2503 4.68401 24.7686 5.09051 24.3634L4.38458 23.6552L3.67865 22.9469C3.08539 23.5382 2.61508 24.2407 2.29405 25.0138L3.21759 25.3973ZM4.38458 23.6552L5.09169 24.3623L9.27235 20.1816L8.56525 19.4745L7.85814 18.7674L3.67748 22.948L4.38458 23.6552ZM8.56525 19.4745L9.27234 20.1816L9.27318 20.1816L9.98029 19.4745L10.6874 18.7674C9.90634 17.9863 8.63919 17.9864 7.85815 18.7674L8.56525 19.4745ZM9.98029 19.4745L9.27318 20.1816L11.2927 22.2011L11.9998 21.494L12.7069 20.7869L10.6874 18.7674L9.98029 19.4745ZM11.9998 21.494L12.7069 22.2011L16.5448 18.3632L15.8377 17.6561L15.1306 16.949L11.2927 20.7869L11.9998 21.494ZM5.79767 25.0702L4.90324 24.623L4.90226 24.6249L5.79669 25.0721L6.69112 25.5194L6.6921 25.5174L5.79767 25.0702ZM5.79669 25.0721L5.09074 24.3639C4.68496 24.7683 4.36136 25.2492 4.14075 25.7804L5.06427 26.1639L5.98778 26.5475C6.10662 26.2614 6.28163 26.0007 6.50265 25.7804L5.79669 25.0721ZM5.06427 26.1639L4.14072 25.7805C3.9203 26.3113 3.80749 26.8803 3.80743 27.4539L4.80743 27.454L5.80743 27.4541C5.80746 27.1424 5.86879 26.8341 5.98782 26.5474L5.06427 26.1639ZM4.80743 27.454L3.80743 27.454C3.80744 28.0277 3.92038 28.5967 4.14069 29.1274L5.06427 28.744L5.98785 28.3606C5.86878 28.0738 5.80744 27.7654 5.80743 27.454L4.80743 27.454ZM5.06427 28.744L4.14073 29.1275C4.36106 29.6581 4.68424 30.1399 5.09079 30.5451L5.79669 29.8368L6.5026 29.1285C6.28209 28.9087 6.107 28.6475 5.98781 28.3605L5.06427 28.744ZM5.79669 29.8368L5.08959 30.5439L9.81908 35.2734L10.5262 34.5663L11.2333 33.8592L6.5038 29.1297L5.79669 29.8368ZM10.5262 34.5663L9.81787 35.2722C10.223 35.6787 10.705 36.0019 11.2354 36.2222L11.619 35.2987L12.0025 34.3752C11.7155 34.256 11.4542 34.0808 11.2345 33.8604L10.5262 34.5663ZM11.619 35.2987L11.2355 36.2223C11.7663 36.4427 12.3353 36.5555 12.909 36.5555L12.909 35.5555L12.909 34.5555C12.5974 34.5555 12.2892 34.4942 12.0024 34.3751L11.619 35.2987ZM12.909 35.5555L12.909 36.5555C13.4828 36.5555 14.0516 36.4427 14.5825 36.2223L14.199 35.2987L13.8156 34.3752C13.5288 34.4942 13.2206 34.5555 12.909 34.5555L12.909 35.5555ZM14.199 35.2987L14.5825 36.2222C15.1131 36.0019 15.5949 35.6788 16.0001 35.2722L15.2918 34.5663L14.5835 33.8604C14.3637 34.0809 14.1026 34.256 13.8155 34.3752L14.199 35.2987ZM15.2918 34.5663L15.9989 35.2734L19.4745 31.7978L18.7674 31.0907L18.0603 30.3836L14.5847 33.8592L15.2918 34.5663ZM18.7674 31.0907L19.4745 30.3836L9.97938 20.8885L9.27228 21.5956L8.56517 22.3027L18.0603 31.7978L18.7674 31.0907ZM9.27228 21.5956L8.56517 20.8885L5.09056 24.3631L5.79767 25.0702L6.50478 25.7773L9.97938 22.3027L9.27228 21.5956ZM37.6561 1.29285L38.3632 1.99995H38.364L39.0711 1.29285L39.7782 0.58574C38.9972 -0.195309 37.73 -0.195309 36.949 0.58574L37.6561 1.29285ZM39.0711 1.29285L38.3637 1.99966L38.3638 2.00004L39.0711 2.70691L39.7785 3.41377C40.5589 2.63281 40.5587 1.36691 39.7785 0.586034L39.0711 1.29285ZM39.0711 2.70691L38.3641 1.99973L33.616 6.7468L34.3231 7.45398L35.0301 8.16116L39.7781 3.41409L39.0711 2.70691ZM34.3231 7.45398L33.616 8.16109L35.2712 9.81636L35.9783 9.10925L36.6854 8.40215L35.0302 6.74687L34.3231 7.45398ZM35.9783 9.10925L35.2566 9.8014L35.4392 9.99183L36.1609 9.29968L36.8827 8.60754L36.7001 8.41711L35.9783 9.10925ZM36.1609 9.29968L35.4211 9.97242C35.7583 10.3433 36.03 10.7709 36.2228 11.235L37.1463 10.8514L38.0698 10.4679C37.7888 9.79121 37.3928 9.168 36.9008 8.62695L36.1609 9.29968ZM37.1463 10.8514L36.2227 11.2349C36.4425 11.7643 36.5554 12.3333 36.5555 12.9082L37.5555 12.9081L38.5555 12.908C38.5554 12.0716 38.3912 11.242 38.0699 10.468L37.1463 10.8514ZM37.5555 12.9081H36.5555C36.5555 13.4829 36.4425 14.0517 36.2227 14.5814L37.1463 14.9647L38.0699 15.3481C38.3911 14.5742 38.5555 13.7447 38.5555 12.9081H37.5555ZM37.1463 14.9647L36.2228 14.5812C36.0025 15.1117 35.6792 15.5942 35.2725 15.9996L35.9783 16.7079L36.6842 17.4162C37.2775 16.825 37.7487 16.1217 38.0698 15.3482L37.1463 14.9647ZM35.9783 16.7079L36.6854 16.0008L36.6845 15.9998L35.9774 16.7069L35.2702 17.414L35.2712 17.415L35.9783 16.7079ZM35.9774 16.7069L35.2701 16L31.0904 20.1816L31.7977 20.8885L32.5049 21.5955L36.6846 17.4139L35.9774 16.7069ZM31.7977 20.8885L31.0908 20.1812L31.0906 20.1805L31.0906 21.1805L31.0907 22.1805C31.619 22.1805 32.1282 21.972 32.5045 21.5959L31.7977 20.8885ZM31.0906 21.1805L31.0911 20.1805L31.0904 20.1812L30.3836 20.8885L29.6768 21.5959C30.0532 21.9721 30.5626 22.1803 31.0902 22.1805L31.0906 21.1805ZM30.3836 20.8885L31.0907 20.1814L20.1815 9.27226L19.4744 9.97937L18.7673 10.6865L29.6765 21.5957L30.3836 20.8885ZM19.4744 9.97937L20.182 9.27269C20.1811 9.27183 20.181 9.2716 20.1813 9.272C20.1815 9.27234 20.1817 9.27274 20.1818 9.27306C20.182 9.27354 20.1817 9.27301 20.1817 9.27164C20.1817 9.27028 20.182 9.26987 20.1818 9.27054C20.1816 9.27095 20.1813 9.27145 20.1811 9.27189C20.1807 9.27238 20.1807 9.27224 20.1815 9.27144L19.4744 8.56433L18.7673 7.85722C17.986 8.63855 17.9873 9.90549 18.7669 10.6861L19.4744 9.97937ZM19.4744 8.56433L20.1815 9.27144L24.3632 5.0898L23.6561 4.38269L22.949 3.67558L18.7673 7.85722L19.4744 8.56433ZM23.6561 4.38269L24.3642 5.0888C24.7691 4.68274 25.2507 4.36037 25.7808 4.1402L25.3973 3.21667L25.0137 2.29315C24.2413 2.61395 23.539 3.0839 22.948 3.67658L23.6561 4.38269ZM25.3973 3.21667L25.7808 4.14022C26.311 3.92006 26.8799 3.8066 27.4541 3.80652L27.4539 2.80652L27.4538 1.80652C26.6165 1.80663 25.787 1.97205 25.0138 2.29313L25.3973 3.21667ZM27.4539 2.80652V3.80652C28.028 3.80652 28.5978 3.92011 29.1281 4.14026L29.5115 3.21667L29.8949 2.29309C29.1216 1.97209 28.2913 1.80652 27.4539 1.80652V2.80652ZM29.5115 3.21667L29.128 4.14019C29.658 4.3603 30.1398 4.68287 30.5447 5.08885L31.2527 4.38269L31.9608 3.67653C31.3699 3.08406 30.6674 2.61392 29.8951 2.29316L29.5115 3.21667ZM31.2527 4.38269L30.5456 5.0898L32.2019 6.74605L32.909 6.03894L33.6161 5.33183L31.9599 3.67558L31.2527 4.38269ZM32.909 6.03894L33.616 6.74612L38.3631 2.00003L37.6561 1.29285L36.949 0.585667L32.202 5.33176L32.909 6.03894ZM27.4539 4.80652L27.4537 3.80652C26.8805 3.80664 26.3112 3.9194 25.7804 4.13981L26.1639 5.06335L26.5474 5.9869C26.8338 5.86796 27.1425 5.80659 27.4541 5.80652L27.4539 4.80652ZM26.1639 5.06335L25.7803 4.13987C25.2493 4.36044 24.7683 4.68407 24.3638 5.08982L25.0721 5.79578L25.7803 6.50173C26.0005 6.2808 26.2614 6.10571 26.5475 5.98684L26.1639 5.06335ZM25.0721 5.79578L24.6249 4.90135L24.6229 4.90233L25.0701 5.79675L25.5173 6.69118L25.5193 6.6902L25.0721 5.79578ZM25.0701 5.79675L24.363 5.08965L20.8884 8.56426L21.5955 9.27136L22.3026 9.97847L25.7772 6.50386L25.0701 5.79675ZM21.5955 9.27136L20.8884 9.97847L30.3835 19.4736L31.0906 18.7665L31.7977 18.0594L22.3026 8.56426L21.5955 9.27136ZM31.0906 18.7665L31.7977 19.4736L35.2733 15.998L34.5662 15.2909L33.8591 14.5838L30.3835 18.0594L31.0906 18.7665ZM34.5662 15.2909L35.2721 15.9992C35.6787 15.594 36.0019 15.1122 36.2222 14.5816L35.2986 14.1981L34.3751 13.8146C34.2559 14.1017 34.0809 14.3628 33.8603 14.5826L34.5662 15.2909ZM35.2986 14.1981L36.2222 14.5815C36.4426 14.0508 36.5555 13.4818 36.5555 12.9081H35.5555H34.5555C34.5555 13.2196 34.4942 13.5279 34.3751 13.8147L35.2986 14.1981ZM35.5555 12.9081L36.5555 12.9079C36.5554 12.3345 36.4426 11.7654 36.2222 11.2346L35.2986 11.618L34.3751 12.0015C34.4941 12.2881 34.5554 12.5966 34.5555 12.9082L35.5555 12.9081ZM35.2986 11.618L36.2221 11.2343C36.0019 10.7043 35.6787 10.2221 35.2721 9.81694L34.5662 10.5253L33.8603 11.2336C34.0806 11.4531 34.2559 11.7147 34.3752 12.0018L35.2986 11.618ZM34.5662 10.5253L35.2733 9.81816L32.9179 7.46269L32.2108 8.1698L31.5036 8.87691L33.8591 11.2324L34.5662 10.5253ZM32.2108 8.1698L32.9094 7.45431C32.8909 7.43629 32.8753 7.42239 32.8659 7.41415C32.861 7.40994 32.857 7.40655 32.8547 7.40453C32.8534 7.4035 32.8524 7.40265 32.8519 7.40215C32.8515 7.40189 32.8513 7.40167 32.8511 7.40155C32.8509 7.40133 32.851 7.40144 32.8509 7.40135C32.8507 7.40114 32.8524 7.4026 32.8546 7.40451C32.857 7.40655 32.8609 7.40991 32.8657 7.41416C32.8752 7.42248 32.8906 7.43638 32.9088 7.45459L32.202 8.16199L31.4952 8.86939C31.5148 8.88898 31.5316 8.90421 31.5425 8.91382C31.548 8.91872 31.5527 8.92272 31.5558 8.9254C31.5588 8.92795 31.5613 8.93004 31.5618 8.93047C31.563 8.93147 31.5616 8.9303 31.5603 8.92919C31.5587 8.9278 31.5554 8.92505 31.5513 8.92148C31.5434 8.91453 31.5292 8.90194 31.5121 8.88529L32.2108 8.1698ZM32.202 8.16199L32.9091 7.45488C32.9251 7.47093 32.9374 7.48439 32.9447 7.49251C32.9484 7.49668 32.9514 7.50005 32.9532 7.5021C32.9549 7.50404 32.9561 7.50551 32.9559 7.5053C32.9559 7.50526 32.9559 7.50526 32.9557 7.50509C32.9556 7.50496 32.9554 7.50473 32.9552 7.50447C32.9548 7.50396 32.954 7.50308 32.9531 7.50203C32.9513 7.49997 32.9483 7.49652 32.9446 7.49233C32.9374 7.48418 32.9251 7.47048 32.9093 7.45423L32.1932 8.15222L31.4771 8.85022C31.4627 8.83552 31.4519 8.82344 31.4462 8.81692C31.4432 8.81355 31.4409 8.81093 31.4398 8.8097C31.4391 8.8088 31.4381 8.80768 31.4392 8.80893C31.4397 8.80956 31.4417 8.81185 31.4441 8.81462C31.4466 8.81751 31.4503 8.8217 31.4547 8.82669C31.4635 8.83645 31.4773 8.8515 31.4949 8.86909L32.202 8.16199ZM32.1932 8.15222L32.9003 7.44512L30.5438 5.08867L29.8367 5.79578L29.1296 6.50288L31.4861 8.85933L32.1932 8.15222ZM29.8367 5.79578L30.5449 5.08974C30.14 4.68358 29.658 4.36011 29.1274 4.13981L28.744 5.06335L28.3605 5.9869C28.6472 6.10596 28.9087 6.28129 29.1286 6.50181L29.8367 5.79578ZM28.744 5.06335L29.1272 4.13971C28.5968 3.91964 28.0276 3.80652 27.4539 3.80652V4.80652V5.80652C27.7651 5.80652 28.0738 5.86796 28.3607 5.987L28.744 5.06335Z" fill="white"/>
</svg>
