<svg width="34" height="34" viewBox="0 0 34 34" fill="none" xmlns="http://www.w3.org/2000/svg">
<path d="M27.665 0.530273C28.2673 0.434235 28.8813 0.568916 29.3955 0.905273C29.9787 1.28691 30.3768 1.88841 30.5312 2.55957V2.56055L32.8887 12.8418L32.9346 13.0957C33.015 13.6901 32.9061 14.3028 32.6152 14.832C32.2816 15.4388 31.7246 15.9034 31.0459 16.0889H31.0449L29.3496 16.5498C28.2672 16.8446 27.1252 16.6561 26.1836 16.04C25.9515 15.8882 25.7374 15.7135 25.542 15.5205L20.6162 16.666C20.7644 17.1211 20.8447 17.606 20.8447 18.1045C20.8447 19.4242 20.2852 20.6507 19.377 21.4707L23.8662 31.2607C24.0962 31.7626 23.8757 32.3566 23.374 32.5869C22.872 32.8171 22.2781 32.5967 22.0479 32.0947L17.6025 22.4004C17.3237 22.4637 17.0329 22.498 16.7324 22.498C16.4322 22.498 16.1418 22.4637 15.8633 22.4004L11.4189 32.0947C11.1888 32.5967 10.5947 32.8169 10.0928 32.5869C9.59087 32.3567 9.37043 31.7627 9.60059 31.2607L14.0889 21.4717C13.2769 20.7387 12.7436 19.6806 12.6396 18.5215L9.625 19.2227C9.61676 19.2248 9.60892 19.2286 9.60059 19.2305C9.59258 19.2323 9.58417 19.2327 9.57617 19.2344L4.33301 20.4541L4.33203 20.4531C3.67781 20.6065 3.00043 20.4716 2.45215 20.0928C1.90677 19.7157 1.54011 19.1365 1.4043 18.4971L1.40527 18.4961L0.572266 14.8643L0.571289 14.8594C0.423782 14.1988 0.506103 13.4995 0.80957 12.8936C1.11387 12.2862 1.62755 11.8002 2.27051 11.5586C2.27523 11.5568 2.28041 11.5554 2.28516 11.5537L22.7461 4.2168C22.8407 3.82029 22.9876 3.43604 23.1855 3.07617C23.7316 2.08368 24.633 1.34129 25.7119 1.04688L27.4082 0.585938L27.665 0.530273ZM16.7324 15.7109C15.6462 15.7113 14.6212 16.6998 14.6211 18.1045C14.6212 19.5092 15.6462 20.4977 16.7324 20.498C17.8189 20.498 18.8446 19.5095 18.8447 18.1045C18.8446 16.6995 17.8189 15.7109 16.7324 15.7109ZM2.97363 13.4307C2.83244 13.4838 2.69102 13.6028 2.59766 13.7891C2.50436 13.9753 2.47544 14.2015 2.52246 14.418L3.35742 18.0664L3.36133 18.0811C3.39774 18.2525 3.4896 18.3784 3.58887 18.4473C3.68446 18.5133 3.78622 18.5283 3.87695 18.5068H3.87988L8.17871 17.5068L6.91992 12.0156L2.97363 13.4307ZM8.81543 11.3359L10.127 17.0537L12.9463 16.3975C13.5589 14.849 14.9819 13.7112 16.7324 13.7109C17.8276 13.7109 18.7947 14.1567 19.5156 14.8691L24.4443 13.7227C24.4256 13.6645 24.408 13.6059 24.3916 13.5469L24.3389 13.3398L22.7363 6.34961C22.736 6.34839 22.7356 6.34692 22.7354 6.3457L8.81543 11.3359ZM27.9336 2.51562L26.2383 2.97656C25.7165 3.11899 25.2404 3.48958 24.9375 4.04004C24.6337 4.59248 24.5394 5.26532 24.6855 5.90332L26.2881 12.8936C26.4344 13.5307 26.8019 14.0539 27.2793 14.3662C27.7525 14.6757 28.3059 14.7612 28.8242 14.6201L30.5186 14.1592C30.6401 14.126 30.7717 14.0328 30.8623 13.8682C30.9538 13.7016 30.9855 13.4914 30.9395 13.29V13.2891L28.582 3.00781C28.5358 2.80714 28.4234 2.659 28.2998 2.57812C28.1805 2.50028 28.0516 2.48361 27.9336 2.51562Z" fill="white"/>
<path d="M27.665 0.530273L27.5863 0.0365126C27.5772 0.0379638 27.5681 0.0396664 27.5591 0.0416183L27.665 0.530273ZM29.3955 0.905273L29.6693 0.486903L29.6692 0.486838L29.3955 0.905273ZM30.5312 2.55957H31.0312C31.0312 2.52184 31.027 2.48424 31.0185 2.44747L30.5312 2.55957ZM30.5312 2.56055H30.0312C30.0312 2.59815 30.0355 2.63564 30.0439 2.67229L30.5312 2.56055ZM32.8887 12.8418L33.3807 12.7529C33.3793 12.7452 33.3778 12.7376 33.376 12.7301L32.8887 12.8418ZM32.9346 13.0957L33.43 13.0286C33.4291 13.0213 33.4279 13.014 33.4266 13.0068L32.9346 13.0957ZM32.6152 14.832L33.0534 15.073L33.0534 15.0729L32.6152 14.832ZM31.0459 16.0889V16.5889C31.0904 16.5889 31.1347 16.5829 31.1777 16.5712L31.0459 16.0889ZM31.0449 16.0889V15.5889C31.0006 15.5889 30.9565 15.5948 30.9137 15.6064L31.0449 16.0889ZM29.3496 16.5498L29.2184 16.0673L29.2182 16.0674L29.3496 16.5498ZM26.1836 16.04L25.9098 16.4584L25.9098 16.4584L26.1836 16.04ZM25.542 15.5205L25.8933 15.1647C25.7712 15.0442 25.5958 14.9946 25.4287 15.0335L25.542 15.5205ZM20.6162 16.666L20.503 16.179C20.3665 16.2107 20.2496 16.2983 20.1808 16.4203C20.1119 16.5423 20.0974 16.6876 20.1408 16.8208L20.6162 16.666ZM20.8447 18.1045L21.3447 18.1045V18.1045L20.8447 18.1045ZM19.377 21.4707L19.0419 21.0996C18.8798 21.2459 18.8314 21.4806 18.9225 21.6791L19.377 21.4707ZM23.8662 31.2607L24.3207 31.0524L24.3207 31.0523L23.8662 31.2607ZM23.374 32.5869L23.5824 33.0414L23.5827 33.0413L23.374 32.5869ZM22.0479 32.0947L21.5934 32.3031L21.5934 32.3032L22.0479 32.0947ZM17.6025 22.4004L18.057 22.192C17.9584 21.9769 17.7225 21.8604 17.4917 21.9128L17.6025 22.4004ZM16.7324 22.498L16.7323 22.998H16.7324V22.498ZM15.8633 22.4004L15.9741 21.9128C15.7433 21.8604 15.5074 21.9769 15.4088 22.192L15.8633 22.4004ZM11.4189 32.0947L11.8734 32.3031L11.8735 32.3031L11.4189 32.0947ZM10.0928 32.5869L9.88429 33.0414L9.88451 33.0415L10.0928 32.5869ZM9.60059 31.2607L10.0551 31.4691L10.0551 31.4691L9.60059 31.2607ZM14.0889 21.4717L14.5434 21.6801C14.6344 21.4815 14.586 21.2469 14.4239 21.1005L14.0889 21.4717ZM12.6396 18.5215L13.1376 18.4768C13.1247 18.3327 13.05 18.2012 12.9328 18.1164C12.8155 18.0316 12.6673 18.0017 12.5264 18.0345L12.6396 18.5215ZM9.625 19.2227L9.5117 18.7355L9.50087 18.7383L9.625 19.2227ZM9.60059 19.2305L9.71232 19.7178L9.71251 19.7178L9.60059 19.2305ZM9.57617 19.2344L9.47618 18.7443L9.46288 18.7474L9.57617 19.2344ZM4.33301 20.4541L3.97945 20.8077C4.10158 20.9298 4.27808 20.9802 4.4463 20.9411L4.33301 20.4541ZM4.33203 20.4531L4.68558 20.0996C4.56324 19.9772 4.38635 19.9268 4.2179 19.9663L4.33203 20.4531ZM2.45215 20.0928L2.16782 20.5041L2.16794 20.5041L2.45215 20.0928ZM1.4043 18.4971L1.05074 18.1435C0.931041 18.2632 0.880036 18.4354 0.915208 18.601L1.4043 18.4971ZM1.40527 18.4961L1.75883 18.8496C1.88056 18.7279 1.93111 18.5521 1.89262 18.3843L1.40527 18.4961ZM0.572266 14.8643L0.0817821 14.9624L0.0849203 14.976L0.572266 14.8643ZM0.571289 14.8594L1.0617 14.7613L1.05927 14.7504L0.571289 14.8594ZM0.80957 12.8936L0.36254 12.6696L0.362507 12.6696L0.80957 12.8936ZM2.27051 11.5586L2.09464 11.0905L2.09463 11.0905L2.27051 11.5586ZM2.28516 11.5537L2.45377 12.0244L2.45392 12.0244L2.28516 11.5537ZM22.7461 4.2168L22.9149 4.68745C23.0738 4.63046 23.1932 4.49709 23.2324 4.33285L22.7461 4.2168ZM23.1855 3.07617L22.7475 2.83514L22.7474 2.8352L23.1855 3.07617ZM25.7119 1.04688L25.5808 0.564371L25.5803 0.564511L25.7119 1.04688ZM27.4082 0.585938L27.3023 0.0972824C27.2938 0.0991145 27.2854 0.101166 27.2771 0.103434L27.4082 0.585938ZM16.7324 15.7109V15.2109H16.7322L16.7324 15.7109ZM14.6211 18.1045L14.1211 18.1044V18.1045L14.6211 18.1045ZM16.7324 20.498L16.7322 20.998H16.7324V20.498ZM18.8447 18.1045L19.3447 18.1045V18.1044L18.8447 18.1045ZM2.97363 13.4307L2.80485 12.9599L2.79748 12.9627L2.97363 13.4307ZM2.59766 13.7891L2.15067 13.565L2.1506 13.5651L2.59766 13.7891ZM2.52246 14.418L2.03382 14.5241L2.03506 14.5295L2.52246 14.418ZM3.35742 18.0664L2.87002 18.1779C2.87135 18.1837 2.87277 18.1895 2.8743 18.1952L3.35742 18.0664ZM3.36133 18.0811L3.85042 17.9772C3.84864 17.9688 3.84665 17.9605 3.84445 17.9522L3.36133 18.0811ZM3.58887 18.4473L3.30384 18.8581L3.30465 18.8586L3.58887 18.4473ZM3.87695 18.5068V18.0068C3.83821 18.0068 3.7996 18.0113 3.7619 18.0203L3.87695 18.5068ZM3.87988 18.5068V19.0068C3.91802 19.0068 3.95603 19.0025 3.99317 18.9938L3.87988 18.5068ZM8.17871 17.5068L8.292 17.9938C8.56035 17.9314 8.72763 17.6637 8.66607 17.3951L8.17871 17.5068ZM6.91992 12.0156L7.40728 11.9039C7.37534 11.7646 7.28529 11.6456 7.15989 11.577C7.03448 11.5084 6.88571 11.4967 6.75116 11.545L6.91992 12.0156ZM8.81543 11.3359L8.6467 10.8653C8.40832 10.9507 8.27147 11.2009 8.32809 11.4477L8.81543 11.3359ZM10.127 17.0537L9.63961 17.1655C9.66932 17.295 9.74937 17.4074 9.86207 17.4778C9.97478 17.5482 10.1109 17.5708 10.2403 17.5407L10.127 17.0537ZM12.9463 16.3975L13.0596 16.8844C13.2195 16.8472 13.3509 16.734 13.4112 16.5814L12.9463 16.3975ZM16.7324 13.7109V13.2109H16.7323L16.7324 13.7109ZM19.5156 14.8691L19.1642 15.2248C19.2863 15.3454 19.4617 15.395 19.6289 15.3561L19.5156 14.8691ZM24.4443 13.7227L24.5576 14.2097C24.6938 14.178 24.8105 14.0908 24.8794 13.9691C24.9483 13.8475 24.9631 13.7026 24.9203 13.5695L24.4443 13.7227ZM24.3916 13.5469L23.907 13.6703L23.9099 13.681L24.3916 13.5469ZM24.3389 13.3398L23.8514 13.4516L23.8543 13.4633L24.3389 13.3398ZM22.7363 6.34961L22.249 6.46127L22.249 6.46134L22.7363 6.34961ZM22.7354 6.3457L23.2228 6.23444C23.191 6.09501 23.101 5.97588 22.9755 5.90717C22.8501 5.83847 22.7012 5.82677 22.5666 5.87503L22.7354 6.3457ZM27.9336 2.51562L27.8027 2.03307L27.8024 2.03314L27.9336 2.51562ZM26.2383 2.97656L26.1071 2.49408L26.1066 2.49421L26.2383 2.97656ZM24.9375 4.04004L24.4994 3.79901L24.4994 3.7991L24.9375 4.04004ZM24.6855 5.90332L24.1982 6.01498L24.1982 6.01505L24.6855 5.90332ZM26.2881 12.8936L25.8007 13.0053L25.8008 13.0055L26.2881 12.8936ZM27.2793 14.3662L27.0055 14.7846L27.0056 14.7847L27.2793 14.3662ZM28.8242 14.6201L28.693 14.1377L28.6929 14.1377L28.8242 14.6201ZM30.5186 14.1592L30.6498 14.6416L30.6503 14.6415L30.5186 14.1592ZM30.8623 13.8682L31.3004 14.1092L31.3006 14.1088L30.8623 13.8682ZM30.9395 13.29H30.4395C30.4395 13.3276 30.4437 13.365 30.452 13.4015L30.9395 13.29ZM30.9395 13.2891H31.4395C31.4395 13.2515 31.4352 13.214 31.4268 13.1773L30.9395 13.2891ZM28.582 3.00781L29.0694 2.89607L29.0693 2.8956L28.582 3.00781ZM28.2998 2.57812L28.5735 2.15969L28.573 2.15937L28.2998 2.57812ZM27.665 0.530273L27.7438 1.02403C28.2208 0.947966 28.7095 1.05402 29.1218 1.32371L29.3955 0.905273L29.6692 0.486838C29.0531 0.083812 28.3137 -0.0794954 27.5863 0.0365126L27.665 0.530273ZM29.3955 0.905273L29.1217 1.32364C29.59 1.6301 29.9166 2.11813 30.044 2.67167L30.5312 2.55957L31.0185 2.44747C30.8371 1.65868 30.3673 0.943714 29.6693 0.486903L29.3955 0.905273ZM30.5312 2.55957H30.0312V2.56055H30.5312H31.0312V2.55957H30.5312ZM30.5312 2.56055L30.0439 2.67229L32.4013 12.9535L32.8887 12.8418L33.376 12.7301L31.0186 2.4488L30.5312 2.56055ZM32.8887 12.8418L32.3966 12.9307L32.4425 13.1846L32.9346 13.0957L33.4266 13.0068L33.3807 12.7529L32.8887 12.8418ZM32.9346 13.0957L32.4391 13.1628C32.5055 13.6536 32.4151 14.158 32.1771 14.5912L32.6152 14.832L33.0534 15.0729C33.3971 14.4475 33.5245 13.7266 33.43 13.0286L32.9346 13.0957ZM32.6152 14.832L32.1771 14.5911C31.904 15.0878 31.4532 15.4593 30.9141 15.6065L31.0459 16.0889L31.1777 16.5712C31.996 16.3476 32.6591 15.7899 33.0534 15.073L32.6152 14.832ZM31.0459 16.0889V15.5889H31.0449V16.0889V16.5889H31.0459V16.0889ZM31.0449 16.0889L30.9137 15.6064L29.2184 16.0673L29.3496 16.5498L29.4808 17.0323L31.1761 16.5714L31.0449 16.0889ZM29.3496 16.5498L29.2182 16.0674C28.2766 16.3238 27.2817 16.161 26.4573 15.6216L26.1836 16.04L25.9098 16.4584C26.9687 17.1512 28.2578 17.3654 29.481 17.0322L29.3496 16.5498ZM26.1836 16.04L26.4574 15.6216C26.2545 15.4889 26.0662 15.3354 25.8933 15.1647L25.542 15.5205L25.1907 15.8763C25.4087 16.0915 25.6486 16.2875 25.9098 16.4584L26.1836 16.04ZM25.542 15.5205L25.4287 15.0335L20.503 16.179L20.6162 16.666L20.7295 17.153L25.6552 16.0075L25.542 15.5205ZM20.6162 16.666L20.1408 16.8208C20.2731 17.227 20.3447 17.6598 20.3447 18.1045L20.8447 18.1045L21.3447 18.1045C21.3447 17.5523 21.2557 17.0151 21.0916 16.5112L20.6162 16.666ZM20.8447 18.1045L20.3447 18.1045C20.3447 19.2846 19.8438 20.3756 19.0419 21.0996L19.377 21.4707L19.712 21.8418C20.7267 20.9258 21.3447 19.5638 21.3447 18.1045L20.8447 18.1045ZM19.377 21.4707L18.9225 21.6791L23.4117 31.4692L23.8662 31.2607L24.3207 31.0523L19.8314 21.2623L19.377 21.4707ZM23.8662 31.2607L23.4117 31.4691C23.5266 31.7199 23.4163 32.0173 23.1654 32.1325L23.374 32.5869L23.5827 33.0413C24.335 32.6959 24.6658 31.8053 24.3207 31.0524L23.8662 31.2607ZM23.374 32.5869L23.1656 32.1324C22.9146 32.2475 22.6174 32.1372 22.5023 31.8863L22.0479 32.0947L21.5934 32.3032C21.9387 33.0561 22.8295 33.3866 23.5824 33.0414L23.374 32.5869ZM22.0479 32.0947L22.5023 31.8863L18.057 22.192L17.6025 22.4004L17.148 22.6088L21.5934 32.3031L22.0479 32.0947ZM17.6025 22.4004L17.4917 21.9128C17.2483 21.9681 16.9947 21.998 16.7324 21.998V22.498V22.998C17.0712 22.998 17.3991 22.9594 17.7133 22.888L17.6025 22.4004ZM16.7324 22.498L16.7325 21.998C16.4705 21.998 16.2173 21.9681 15.9741 21.9128L15.8633 22.4004L15.7525 22.888C16.0664 22.9593 16.3938 22.998 16.7323 22.998L16.7324 22.498ZM15.8633 22.4004L15.4088 22.192L10.9644 31.8864L11.4189 32.0947L11.8735 32.3031L16.3178 22.6088L15.8633 22.4004ZM11.4189 32.0947L10.9644 31.8863C10.8495 32.137 10.5523 32.2475 10.301 32.1324L10.0928 32.5869L9.88451 33.0415C10.6372 33.3863 11.5281 33.0563 11.8734 32.3031L11.4189 32.0947ZM10.0928 32.5869L10.3013 32.1325C10.0503 32.0173 9.94 31.7201 10.0551 31.4691L9.60059 31.2607L9.14608 31.0523C8.80085 31.8053 9.13143 32.696 9.88429 33.0414L10.0928 32.5869ZM9.60059 31.2607L10.0551 31.4691L14.5434 21.6801L14.0889 21.4717L13.6344 21.2633L9.14608 31.0524L9.60059 31.2607ZM14.0889 21.4717L14.4239 21.1005C13.7073 20.4537 13.2306 19.5131 13.1376 18.4768L12.6396 18.5215L12.1416 18.5662C12.2566 19.8481 12.8464 21.0237 13.7538 21.8428L14.0889 21.4717ZM12.6396 18.5215L12.5264 18.0345L9.51173 18.7357L9.625 19.2227L9.73827 19.7097L12.7529 19.0085L12.6396 18.5215ZM9.625 19.2227L9.50087 18.7383C9.48287 18.7429 9.46829 18.7476 9.45924 18.7507C9.45463 18.7522 9.45077 18.7536 9.44828 18.7545C9.44618 18.7552 9.44363 18.7561 9.44362 18.7561C9.44294 18.7564 9.44382 18.7561 9.44523 18.7556C9.44673 18.755 9.44952 18.7541 9.45316 18.7529C9.46027 18.7506 9.47268 18.7468 9.48866 18.7432L9.60059 19.2305L9.71251 19.7178C9.73266 19.7132 9.74918 19.7082 9.76036 19.7046C9.771 19.7011 9.77987 19.6979 9.78203 19.6971C9.78643 19.6956 9.78252 19.697 9.77852 19.6983C9.77352 19.7 9.76301 19.7034 9.74913 19.707L9.625 19.2227ZM9.60059 19.2305L9.48886 18.7431C9.50094 18.7403 9.51052 18.7387 9.51589 18.7378C9.52087 18.7371 9.52447 18.7366 9.52276 18.7368C9.52276 18.7368 9.52035 18.7371 9.51868 18.7374C9.51658 18.7376 9.51337 18.7381 9.50959 18.7386C9.5022 18.7397 9.49038 18.7416 9.47622 18.7445L9.57617 19.2344L9.67612 19.7243C9.66596 19.7264 9.6582 19.7275 9.65489 19.728C9.65243 19.7284 9.64974 19.7287 9.654 19.7282C9.65639 19.7279 9.66409 19.7268 9.67315 19.7254C9.68259 19.7239 9.69623 19.7215 9.71232 19.7178L9.60059 19.2305ZM9.57617 19.2344L9.46288 18.7474L4.21972 19.9671L4.33301 20.4541L4.4463 20.9411L9.68946 19.7214L9.57617 19.2344ZM4.33301 20.4541L4.68656 20.1005L4.68558 20.0996L4.33203 20.4531L3.97848 20.8067L3.97945 20.8077L4.33301 20.4541ZM4.33203 20.4531L4.2179 19.9663C3.70409 20.0868 3.17097 19.9817 2.73636 19.6814L2.45215 20.0928L2.16794 20.5041C2.82988 20.9615 3.65152 21.1262 4.44616 20.9399L4.33203 20.4531ZM2.45215 20.0928L2.73648 19.6815C2.30247 19.3814 2.00434 18.9156 1.89339 18.3932L1.4043 18.4971L0.915208 18.601C1.07588 19.3574 1.51107 20.05 2.16782 20.5041L2.45215 20.0928ZM1.4043 18.4971L1.75785 18.8506L1.75883 18.8496L1.40527 18.4961L1.05172 18.1425L1.05074 18.1435L1.4043 18.4971ZM1.40527 18.4961L1.89262 18.3843L1.05961 14.7525L0.572266 14.8643L0.0849203 14.976L0.917928 18.6079L1.40527 18.4961ZM0.572266 14.8643L1.06256 14.7662L1.06158 14.7613L0.571289 14.8594L0.0809987 14.9574L0.0819753 14.9623L0.572266 14.8643ZM0.571289 14.8594L1.05927 14.7504C0.936452 14.2004 1.00554 13.6188 1.25663 13.1175L0.80957 12.8936L0.362507 12.6696C0.00666595 13.3801 -0.0888888 14.1972 0.0833069 14.9683L0.571289 14.8594ZM0.80957 12.8936L1.2566 13.1175C1.50841 12.6149 1.92928 12.221 2.44639 12.0266L2.27051 11.5586L2.09463 11.0905C1.32582 11.3794 0.719339 11.9574 0.36254 12.6696L0.80957 12.8936ZM2.27051 11.5586L2.44637 12.0266C2.43996 12.0291 2.43494 12.0308 2.43229 12.0316C2.42979 12.0325 2.42805 12.033 2.42903 12.0327C2.42926 12.0326 2.42939 12.0326 2.42984 12.0325C2.4302 12.0323 2.43071 12.0322 2.43129 12.032C2.43241 12.0316 2.43412 12.0311 2.43612 12.0304C2.43998 12.0292 2.44626 12.0271 2.45377 12.0244L2.28516 11.5537L2.11654 11.083C2.12168 11.0812 2.12553 11.0799 2.12694 11.0794C2.1279 11.0791 2.12911 11.0787 2.12661 11.0795C2.12512 11.08 2.1209 11.0813 2.11595 11.083C2.11086 11.0847 2.10342 11.0872 2.09464 11.0905L2.27051 11.5586ZM2.28516 11.5537L2.45392 12.0244L22.9149 4.68745L22.7461 4.2168L22.5773 3.74614L2.11639 11.0831L2.28516 11.5537ZM22.7461 4.2168L23.2324 4.33285C23.3169 3.97899 23.4478 3.63687 23.6236 3.31715L23.1855 3.07617L22.7474 2.8352C22.5274 3.23522 22.3645 3.66158 22.2597 4.10074L22.7461 4.2168ZM23.1855 3.07617L23.6236 3.3172C24.109 2.43503 24.9041 1.7856 25.8435 1.52924L25.7119 1.04688L25.5803 0.564511C24.3619 0.896988 23.3543 1.73234 22.7475 2.83514L23.1855 3.07617ZM25.7119 1.04688L25.843 1.52938L27.5393 1.06844L27.4082 0.585938L27.2771 0.103434L25.5808 0.564372L25.7119 1.04688ZM27.4082 0.585938L27.5141 1.07459L27.7709 1.01893L27.665 0.530273L27.5591 0.0416183L27.3023 0.0972824L27.4082 0.585938ZM16.7324 15.7109L16.7322 15.2109C15.3352 15.2114 14.1213 16.4598 14.1211 18.1044L14.6211 18.1045L15.1211 18.1045C15.1212 16.9399 15.9571 16.2112 16.7326 16.2109L16.7324 15.7109ZM14.6211 18.1045L14.1211 18.1045C14.1212 19.7493 15.3352 20.9975 16.7322 20.998L16.7324 20.498L16.7326 19.998C15.9571 19.9978 15.1212 19.2692 15.1211 18.1045L14.6211 18.1045ZM16.7324 20.498V20.998C18.1297 20.998 19.3446 19.7497 19.3447 18.1045L18.8447 18.1045L18.3447 18.1045C18.3446 19.2693 17.5081 19.998 16.7324 19.998V20.498ZM18.8447 18.1045L19.3447 18.1044C19.3446 16.4594 18.1297 15.2109 16.7324 15.2109V15.7109V16.2109C17.5081 16.2109 18.3446 16.9397 18.3447 18.1045L18.8447 18.1045ZM2.97363 13.4307L2.79748 12.9627C2.53056 13.0632 2.29647 13.2741 2.15067 13.565L2.59766 13.7891L3.04465 14.0131C3.08557 13.9315 3.13433 13.9044 3.14979 13.8986L2.97363 13.4307ZM2.59766 13.7891L2.1506 13.5651C2.00491 13.856 1.96322 14.1989 2.03385 14.5241L2.52246 14.418L3.01107 14.3118C2.98766 14.2041 3.00381 14.0946 3.04471 14.013L2.59766 13.7891ZM2.52246 14.418L2.03506 14.5295L2.87002 18.1779L3.35742 18.0664L3.84482 17.9549L3.00986 14.3064L2.52246 14.418ZM3.35742 18.0664L2.8743 18.1952L2.87821 18.2099L3.36133 18.0811L3.84445 17.9522L3.84054 17.9376L3.35742 18.0664ZM3.36133 18.0811L2.87224 18.1849C2.93344 18.4731 3.09353 18.7122 3.30384 18.8581L3.58887 18.4473L3.87389 18.0365C3.88108 18.0414 3.87786 18.0411 3.87094 18.0304C3.86459 18.0206 3.85599 18.0034 3.85042 17.9772L3.36133 18.0811ZM3.58887 18.4473L3.30465 18.8586C3.51504 19.004 3.76159 19.0479 3.99201 18.9934L3.87695 18.5068L3.7619 18.0203C3.78323 18.0152 3.80633 18.0145 3.82865 18.0188C3.85127 18.0231 3.8663 18.0312 3.87308 18.0359L3.58887 18.4473ZM3.87695 18.5068V19.0068H3.87988V18.5068V18.0068H3.87695V18.5068ZM3.87988 18.5068L3.99317 18.9938L8.292 17.9938L8.17871 17.5068L8.06542 17.0198L3.7666 18.0198L3.87988 18.5068ZM8.17871 17.5068L8.66607 17.3951L7.40728 11.9039L6.91992 12.0156L6.43256 12.1273L7.69135 17.6186L8.17871 17.5068ZM6.91992 12.0156L6.75116 11.545L2.80487 12.96L2.97363 13.4307L3.1424 13.9013L7.08869 12.4863L6.91992 12.0156ZM8.81543 11.3359L8.32809 11.4477L9.63961 17.1655L10.127 17.0537L10.6143 16.9419L9.30277 11.2242L8.81543 11.3359ZM10.127 17.0537L10.2403 17.5407L13.0596 16.8844L12.9463 16.3975L12.8329 15.9105L10.0136 16.5667L10.127 17.0537ZM12.9463 16.3975L13.4112 16.5814C13.9594 15.1959 15.2155 14.2112 16.7325 14.2109L16.7324 13.7109L16.7323 13.2109C14.7484 13.2113 13.1584 14.5022 12.4814 16.2135L12.9463 16.3975ZM16.7324 13.7109V14.2109C17.6858 14.2109 18.5294 14.5974 19.1642 15.2248L19.5156 14.8691L19.8671 14.5135C19.0601 13.716 17.9694 13.2109 16.7324 13.2109V13.7109ZM19.5156 14.8691L19.6289 15.3561L24.5576 14.2097L24.4443 13.7227L24.3311 13.2357L19.4023 14.3821L19.5156 14.8691ZM24.4443 13.7227L24.9203 13.5695C24.9036 13.5177 24.8879 13.4654 24.8733 13.4127L24.3916 13.5469L23.9099 13.681C23.9281 13.7464 23.9476 13.8114 23.9684 13.8758L24.4443 13.7227ZM24.3916 13.5469L24.8761 13.4235L24.8234 13.2164L24.3389 13.3398L23.8543 13.4633L23.9071 13.6703L24.3916 13.5469ZM24.3389 13.3398L24.8262 13.2281L23.2237 6.23788L22.7363 6.34961L22.249 6.46134L23.8515 13.4516L24.3389 13.3398ZM22.7363 6.34961L23.2237 6.23795C23.2225 6.23268 23.2214 6.22845 23.2209 6.22617C23.2206 6.22494 23.2203 6.22392 23.2201 6.22326C23.22 6.22265 23.2198 6.22209 23.2198 6.22201C23.2196 6.2214 23.22 6.22273 23.2204 6.22435C23.2208 6.22603 23.2217 6.22969 23.2228 6.23444L22.7354 6.3457L22.2479 6.45697C22.2491 6.46232 22.2502 6.46662 22.2508 6.46896C22.2513 6.47124 22.2519 6.47324 22.2519 6.47331C22.2521 6.47398 22.2517 6.47269 22.2513 6.47114C22.2509 6.46952 22.25 6.46593 22.249 6.46127L22.7363 6.34961ZM22.7354 6.3457L22.5666 5.87503L8.6467 10.8653L8.81543 11.3359L8.98416 11.8066L22.9041 6.81637L22.7354 6.3457ZM27.9336 2.51562L27.8024 2.03314L26.1071 2.49408L26.2383 2.97656L26.3695 3.45905L28.0648 2.99811L27.9336 2.51562ZM26.2383 2.97656L26.1066 2.49421C25.4461 2.67452 24.8633 3.1376 24.4994 3.79901L24.9375 4.04004L25.3756 4.28107C25.6174 3.84157 25.987 3.56345 26.3699 3.45891L26.2383 2.97656ZM24.9375 4.04004L24.4994 3.7991C24.1354 4.46097 24.0251 5.25954 24.1982 6.01498L24.6855 5.90332L25.1729 5.79166C25.0536 5.2711 25.132 4.72398 25.3756 4.28098L24.9375 4.04004ZM24.6855 5.90332L24.1982 6.01505L25.8007 13.0053L26.2881 12.8936L26.7754 12.7818L25.1729 5.79159L24.6855 5.90332ZM26.2881 12.8936L25.8008 13.0055C25.9742 13.7608 26.4136 14.3973 27.0055 14.7846L27.2793 14.3662L27.5531 13.9478C27.1902 13.7104 26.8946 13.3006 26.7754 12.7816L26.2881 12.8936ZM27.2793 14.3662L27.0056 14.7847C27.5962 15.1709 28.2967 15.282 28.9556 15.1026L28.8242 14.6201L28.6929 14.1377C28.3151 14.2405 27.9088 14.1805 27.553 13.9478L27.2793 14.3662ZM28.8242 14.6201L28.9555 15.1026L30.6498 14.6416L30.5186 14.1592L30.3873 13.6767L28.693 14.1377L28.8242 14.6201ZM30.5186 14.1592L30.6503 14.6415C30.9111 14.5703 31.1489 14.3844 31.3004 14.1092L30.8623 13.8682L30.4243 13.6271C30.3944 13.6813 30.3692 13.6817 30.3868 13.6769L30.5186 14.1592ZM30.8623 13.8682L31.3006 14.1088C31.4515 13.8339 31.5 13.4984 31.4269 13.1785L30.9395 13.29L30.452 13.4015C30.471 13.4845 30.4561 13.5692 30.424 13.6275L30.8623 13.8682ZM30.9395 13.29H31.4395V13.2891H30.9395H30.4395V13.29H30.9395ZM30.9395 13.2891L31.4268 13.1773L29.0694 2.89607L28.582 3.00781L28.0947 3.11956L30.4521 13.4008L30.9395 13.2891ZM28.582 3.00781L29.0693 2.8956C28.9957 2.57605 28.811 2.31504 28.5735 2.15969L28.2998 2.57812L28.0261 2.99656C28.0359 3.00296 28.0759 3.03823 28.0948 3.12002L28.582 3.00781ZM28.2998 2.57812L28.573 2.15937C28.3355 2.0044 28.0597 1.96333 27.8027 2.03307L27.9336 2.51562L28.0645 2.99818C28.0572 3.00016 28.0474 3.00103 28.0373 2.99941C28.0269 2.99775 28.0231 2.99462 28.0266 2.99688L28.2998 2.57812Z" fill="white"/>
</svg>
