<svg width="20" height="20" viewBox="0 0 20 20" fill="none" xmlns="http://www.w3.org/2000/svg">
<path d="M10 2C6.941 2 2.97063 2.76272 2.97063 2.76272L2.96064 2.77408C1.56741 2.99581 0.5 4.18717 0.5 5.63604V9.99929V10.0007V14.3625V14.364C0.50136 15.0559 0.750559 15.7247 1.20285 16.2503C1.65515 16.7759 2.28091 17.1238 2.96777 17.2316L2.97063 17.2359C2.97063 17.2359 6.941 18 10 18C13.059 18 17.0294 17.2359 17.0294 17.2359L17.0308 17.2344C17.7184 17.1269 18.3449 16.7787 18.7975 16.2525C19.2502 15.7263 19.4993 15.0566 19.5 14.364V14.3625V10.0007V9.99929V5.63604C19.499 4.94383 19.2499 4.27467 18.7976 3.7488C18.3453 3.22292 17.7193 2.8748 17.0322 2.76698L17.0294 2.76272C17.0294 2.76272 13.059 2 10 2ZM7.80769 6.653L13.6538 9.99929L7.80769 13.3456V6.653Z" fill="white"/>
</svg>
